<svg xmlns="http://www.w3.org/2000/svg" width="38" height="40" fill="none"><path fill="#fff" d="M28.374 17.168a.548.548 0 0 1-.4-.171.548.548 0 0 1-.171-.4v-2.933a8.778 8.778 0 0 0-1.029-4.132 8.508 8.508 0 0 0-2.856-3.18.601.601 0 0 1-.229-.381.598.598 0 0 1 .077-.42.692.692 0 0 1 .38-.247.46.46 0 0 1 .42.095A9.962 9.962 0 0 1 27.783 9a9.812 9.812 0 0 1 1.161 4.665v2.933c0 .152-.05.285-.152.4a.532.532 0 0 1-.419.171ZM11.235 8.751a.882.882 0 0 1-.171-.02.332.332 0 0 1-.171-.094.482.482 0 0 1-.229-.362.54.54 0 0 1 .114-.438c.33-.457.705-.889 1.124-1.295.419-.406.857-.774 1.314-1.104a.54.54 0 0 1 .438-.115.482.482 0 0 1 .362.229.54.54 0 0 1 .114.438.464.464 0 0 1-.267.362c-.406.304-.793.634-1.161.99a8.244 8.244 0 0 0-1.01 1.18.492.492 0 0 1-.19.172.59.59 0 0 1-.267.057Zm-1.752 8.417a.548.548 0 0 1-.4-.171.548.548 0 0 1-.17-.4v-2.933c0-.559.044-1.117.132-1.676a9.215 9.215 0 0 1 .4-1.6.77.77 0 0 1 .324-.342.529.529 0 0 1 .438-.038c.127.05.228.152.305.305a.577.577 0 0 1 .038.457 6.771 6.771 0 0 0-.381 1.428 9.887 9.887 0 0 0-.114 1.504v2.895a.548.548 0 0 1-.172.4.548.548 0 0 1-.4.171Zm17.063 5.446a.642.642 0 0 1-.324-.076.51.51 0 0 1-.21-.267.648.648 0 0 1 0-.438.457.457 0 0 1 .305-.285 3.761 3.761 0 0 0 1.638-1.371c.406-.61.61-1.282.61-2.019 0-.305-.109-.565-.324-.78a1.064 1.064 0 0 0-.781-.324h-1.143a.548.548 0 0 1-.4-.172.548.548 0 0 1-.17-.4.55.55 0 0 1 .17-.4.548.548 0 0 1 .4-.17h1.143c.61 0 1.136.221 1.58.666.445.444.667.97.667 1.58 0 .965-.267 1.854-.8 2.666a4.496 4.496 0 0 1-2.133 1.752.307.307 0 0 1-.133.038h-.095Zm-15.12.038h-.114a.293.293 0 0 1-.115-.038 4.685 4.685 0 0 1-2.209-1.752 4.667 4.667 0 0 1-.838-2.704c0-.635.223-1.168.667-1.6a2.237 2.237 0 0 1 1.618-.647h1.105c.152 0 .286.05.4.153a.531.531 0 0 1 .171.418.548.548 0 0 1-.171.4.548.548 0 0 1-.4.172h-1.104c-.33 0-.603.108-.82.323a1.064 1.064 0 0 0-.323.781c0 .762.216 1.447.647 2.057a3.75 3.75 0 0 0 1.676 1.333c.153.076.26.184.324.324a.58.58 0 0 1 .019.438.611.611 0 0 1-.229.247.571.571 0 0 1-.304.095Zm.685 2.895a.61.61 0 0 1-.495-.267 5.185 5.185 0 0 1-.685-2.59v-6.246a.55.55 0 0 1 .171-.4.548.548 0 0 1 .4-.171c.05 0 .095-.006.133-.019a1.05 1.05 0 0 0 .134-.057l.076-.076c.025-.026.038-.064.038-.115l1.18-3.427c.178-.483.496-.845.953-1.086a1.98 1.98 0 0 1 1.447-.171l.38.114c1.016.28 2.045.42 3.086.42 1.04 0 2.056-.14 3.047-.42l.38-.114c.508-.127.997-.07 1.467.171.47.242.78.603.933 1.086l1.18 3.427c.026.077.077.14.153.19a.4.4 0 0 0 .228.077c.153 0 .286.057.4.171a.548.548 0 0 1 .172.4v1.371a.548.548 0 0 1-.172.4.548.548 0 0 1-.4.172.548.548 0 0 1-.4-.172.548.548 0 0 1-.17-.4v-.914a1.376 1.376 0 0 1-.534-.361 1.677 1.677 0 0 1-.343-.553l-1.18-3.427a.833.833 0 0 0-.4-.458.802.802 0 0 0-.59-.076l-.382.115a12.828 12.828 0 0 1-6.779 0l-.38-.115a.86.86 0 0 0-.61.076.682.682 0 0 0-.381.458l-1.18 3.427a1.358 1.358 0 0 1-.23.42 2.183 2.183 0 0 1-.342.342l-.152.076-.153.076v5.79c0 .355.045.704.134 1.047.089.343.21.666.361.971a.532.532 0 0 1 .058.419.533.533 0 0 1-.248.343.743.743 0 0 1-.152.057.626.626 0 0 1-.153.019Zm7.656 4.57H18.09c-.457 0-.895-.082-1.314-.247a3.987 3.987 0 0 1-1.124-.667l-2.094-1.828a.61.61 0 0 1-.172-.4.484.484 0 0 1 .133-.4.529.529 0 0 1 .381-.21.574.574 0 0 1 .42.134l2.094 1.828a2.578 2.578 0 0 0 1.676.648h1.676a2.577 2.577 0 0 0 1.676-.647l2.894-2.553c.457-.38.806-.837 1.047-1.37a4.11 4.11 0 0 0 .362-1.715v-2.209c0-.152.057-.285.172-.4a.548.548 0 0 1 .4-.17.55.55 0 0 1 .4.17.548.548 0 0 1 .17.4v2.21c0 .761-.152 1.485-.456 2.17a5.089 5.089 0 0 1-1.333 1.79l-2.895 2.552c-.33.28-.704.502-1.123.667a3.552 3.552 0 0 1-1.314.247Zm-.838-7.16c-.178 0-.362-.025-.552-.076a4.047 4.047 0 0 1-.553-.19.578.578 0 0 1-.305-.343.482.482 0 0 1 .039-.42.578.578 0 0 1 .342-.304.482.482 0 0 1 .42.038c.203.102.406.152.609.152.203 0 .406-.05.61-.152a.482.482 0 0 1 .418-.038c.152.05.267.152.343.305a.482.482 0 0 1 .038.419.578.578 0 0 1-.305.342 4.2 4.2 0 0 1-.533.19 2.026 2.026 0 0 1-.571.077Zm0 3.123c-.33 0-.654-.044-.971-.133a3.333 3.333 0 0 1-.895-.4.608.608 0 0 1-.267-.343.503.503 0 0 1 .076-.457.532.532 0 0 1 .343-.247.533.533 0 0 1 .419.057 2.4 2.4 0 0 0 1.295.38c.457 0 .888-.127 1.295-.38a.533.533 0 0 1 .419-.057.53.53 0 0 1 .342.247.645.645 0 0 1 .058.457.533.533 0 0 1-.248.343c-.28.178-.578.31-.895.4a3.588 3.588 0 0 1-.971.133Zm-1.79-8.607a.626.626 0 0 1-.153-.02.241.241 0 0 1-.114-.056c-.305-.178-.673-.267-1.104-.267-.432 0-.788.089-1.067.267a.533.533 0 0 1-.419.057.533.533 0 0 1-.342-.248.46.46 0 0 1-.096-.419.692.692 0 0 1 .248-.38c.482-.28 1.047-.42 1.695-.42.647 0 1.2.14 1.656.42a.464.464 0 0 1 .267.361.637.637 0 0 1-.076.438.61.61 0 0 1-.495.267Zm6.322 0a.626.626 0 0 1-.152-.02.744.744 0 0 1-.153-.056c-.279-.178-.634-.267-1.066-.267-.432 0-.8.089-1.105.267a.533.533 0 0 1-.419.057.533.533 0 0 1-.342-.248.598.598 0 0 1-.076-.419.565.565 0 0 1 .266-.38c.457-.28 1.01-.42 1.657-.42s1.212.14 1.695.42c.127.075.21.196.247.361a.49.49 0 0 1-.095.438.61.61 0 0 1-.21.19.505.505 0 0 1-.247.077Zm-7.693 2.742a3.15 3.15 0 0 1-.686-.076 1.653 1.653 0 0 1-.61-.267.533.533 0 0 1-.247-.343.533.533 0 0 1 .057-.419.463.463 0 0 1 .362-.266.638.638 0 0 1 .438.076c.178.101.413.152.705.152s.527-.05.704-.152a.598.598 0 0 1 .42-.076.566.566 0 0 1 .38.266.532.532 0 0 1 .057.42.533.533 0 0 1-.247.342 2.084 2.084 0 0 1-.629.267c-.216.05-.45.076-.704.076Zm6.322 0c-.254 0-.489-.026-.705-.076a2.084 2.084 0 0 1-.628-.267.533.533 0 0 1-.248-.343.532.532 0 0 1 .057-.419.564.564 0 0 1 .381-.266.598.598 0 0 1 .42.076c.177.101.412.152.704.152s.527-.05.704-.152c.127-.076.273-.102.438-.076a.463.463 0 0 1 .362.266.532.532 0 0 1 .057.42.533.533 0 0 1-.247.342 1.657 1.657 0 0 1-.61.267 3.15 3.15 0 0 1-.685.076ZM34.125 39.41a.557.557 0 0 1-.343-.114.757.757 0 0 1-.228-.267l-.077-.343a6.169 6.169 0 0 0-1.808-2.723 6.302 6.302 0 0 0-2.952-1.466l-4.647-.876a2.127 2.127 0 0 1-1.218-.743 2.044 2.044 0 0 1-.496-1.352v-3.351a.55.55 0 0 1 .172-.4.554.554 0 0 1 .8-.001.548.548 0 0 1 .171.4v3.352c0 .254.076.47.229.648.152.178.342.292.57.343l4.647.876a7.218 7.218 0 0 1 3.485 1.713 7.172 7.172 0 0 1 2.114 3.238l.114.343c.051.127.038.266-.038.419a.455.455 0 0 1-.343.266c-.025.026-.05.038-.076.038h-.076Zm-30.393 0h-.076c-.025 0-.05-.012-.076-.038a.589.589 0 0 1-.343-.286.529.529 0 0 1-.038-.438l.114-.304a7.172 7.172 0 0 1 2.114-3.238 7.217 7.217 0 0 1 3.485-1.713l4.647-.915a.853.853 0 0 0 .57-.304.961.961 0 0 0 .23-.648v-3.351c0-.152.056-.286.17-.4a.55.55 0 0 1 .8-.001.548.548 0 0 1 .172.4v3.352c0 .508-.165.959-.495 1.352-.33.394-.736.642-1.219.743l-4.646.876a6.302 6.302 0 0 0-2.952 1.466 6.169 6.169 0 0 0-1.81 2.724l-.075.342a.756.756 0 0 1-.229.267.557.557 0 0 1-.343.114Zm6.056 0a.583.583 0 0 1-.4-.152.488.488 0 0 1-.171-.381 4.363 4.363 0 0 0-.343-1.485 4.814 4.814 0 0 0-.8-1.295l-1.028-1.22a.484.484 0 0 1-.133-.399.61.61 0 0 1 .171-.4.603.603 0 0 1 .438-.133.544.544 0 0 1 .4.21l1.028 1.218c.432.457.762.984.99 1.58.229.597.369 1.213.42 1.848a.655.655 0 0 1-.153.419.469.469 0 0 1-.38.19h-.039Zm18.281 0a.507.507 0 0 1-.419-.19.655.655 0 0 1-.152-.42 6.063 6.063 0 0 1 1.41-3.428l1.066-1.218a.529.529 0 0 1 .38-.21.574.574 0 0 1 .42.134c.126.102.19.229.19.381s-.05.292-.152.419l-1.029 1.219c-.33.38-.59.812-.78 1.295a4.623 4.623 0 0 0-.324 1.485.635.635 0 0 1-.21.38.583.583 0 0 1-.4.153Zm-5.065-2.894a.508.508 0 0 1-.38-.152.583.583 0 0 1-.191-.42c0-.152.063-.292.19-.419.33-.33.616-.704.857-1.123a4.64 4.64 0 0 0 .514-1.314.516.516 0 0 1 .248-.362.49.49 0 0 1 .438-.057.517.517 0 0 1 .361.248.49.49 0 0 1 .058.438 6.023 6.023 0 0 1-.629 1.618c-.292.52-.64.984-1.047 1.39a.478.478 0 0 1-.19.114.719.719 0 0 1-.23.039Zm-4.075 1.675a6.238 6.238 0 0 1-3.942-1.352 6.028 6.028 0 0 1-2.228-3.484.49.49 0 0 1 .057-.438.67.67 0 0 1 .362-.286.598.598 0 0 1 .685.419c.28 1.193.889 2.158 1.828 2.894.94.737 2.019 1.105 3.238 1.105.279 0 .558-.02.838-.057a3.37 3.37 0 0 0 .8-.21.529.529 0 0 1 .437.038.59.59 0 0 1 .286.343.53.53 0 0 1-.038.438.59.59 0 0 1-.343.286 5.703 5.703 0 0 1-.971.228 6.88 6.88 0 0 1-1.01.076Zm-3.923-33.63a.489.489 0 0 1-.381-.17.784.784 0 0 1-.19-.4c0-.33.025-.674.076-1.03.05-.355.14-.723.266-1.104.051-.127.127-.253.229-.38a.842.842 0 0 1 .343-.267c.152-.076.304-.114.457-.114.152 0 .304.025.457.076.33.127.64.28.933.457.292.178.565.38.819.61a.59.59 0 0 1 .171.38.574.574 0 0 1-.133.42.59.59 0 0 1-.381.17.574.574 0 0 1-.42-.133 14.288 14.288 0 0 0-.646-.457 3.562 3.562 0 0 0-.762-.38 4.847 4.847 0 0 0-.21.875c-.038.28-.057.559-.057.838 0 .152-.05.286-.152.4a.635.635 0 0 1-.381.21h-.038Zm3.923 5.904h-.057c-.013 0-.032-.013-.058-.038a6.632 6.632 0 0 1-2.19-.61 6.19 6.19 0 0 1-1.847-1.333 6.876 6.876 0 0 1-1.314-1.847 6.37 6.37 0 0 1-.628-2.19.924.924 0 0 1 .057-.495c.064-.152.146-.292.248-.419.127-.101.266-.184.419-.247a.925.925 0 0 1 .495-.057 8.016 8.016 0 0 1 1.79.418 6.223 6.223 0 0 1 1.561.838.482.482 0 0 1 .229.362.54.54 0 0 1-.114.438.482.482 0 0 1-.362.229.54.54 0 0 1-.438-.115 4.974 4.974 0 0 0-1.257-.666 7.48 7.48 0 0 0-1.486-.362 5.497 5.497 0 0 0 1.62 3.333 5.497 5.497 0 0 0 3.332 1.618.437.437 0 0 1 .4.134.723.723 0 0 1 .21.4.589.589 0 0 1-.153.4.634.634 0 0 1-.381.209h-.077Zm3.923-5.903h-.038a.548.548 0 0 1-.4-.172.487.487 0 0 1-.134-.438c0-.254-.019-.527-.057-.819a4.787 4.787 0 0 0-.21-.895c-.279.127-.539.26-.78.4s-.45.299-.628.476a.603.603 0 0 1-.439.134.545.545 0 0 1-.4-.21.574.574 0 0 1-.133-.419.529.529 0 0 1 .21-.38 5.41 5.41 0 0 1 .819-.61 5.78 5.78 0 0 1 .933-.457c.152-.05.304-.076.457-.076.152 0 .304.038.457.114a.84.84 0 0 1 .343.267c.101.127.177.266.228.419.127.355.216.71.267 1.066.05.355.063.698.038 1.028a.58.58 0 0 1-.153.4.488.488 0 0 1-.38.172Zm-3.885 5.903h-.077a.634.634 0 0 1-.38-.21.583.583 0 0 1-.153-.4.664.664 0 0 1 .21-.418.46.46 0 0 1 .4-.115c1.27-.152 2.367-.692 3.294-1.618A5.497 5.497 0 0 0 23.88 4.37a5.525 5.525 0 0 0-1.485.343 5.462 5.462 0 0 0-1.257.685.51.51 0 0 1-.42.115.602.602 0 0 1-.38-.229.54.54 0 0 1-.114-.438.482.482 0 0 1 .228-.362 6.088 6.088 0 0 1 1.58-.838 8.354 8.354 0 0 1 1.81-.418.938.938 0 0 1 .457.038c.152.05.292.14.419.266.127.127.216.267.266.42a.923.923 0 0 1 .038.456 6.678 6.678 0 0 1-.609 2.228 6.19 6.19 0 0 1-1.333 1.847 6.188 6.188 0 0 1-1.847 1.333 6.632 6.632 0 0 1-2.19.61c-.025 0-.044.006-.057.019l-.02.019Zm-.038 0c-.178 0-.343-.038-.495-.114a.983.983 0 0 1-.381-.343 7.681 7.681 0 0 1-1.486-4.57 7.682 7.682 0 0 1 1.485-4.57.983.983 0 0 1 .382-.344c.152-.076.317-.114.495-.114a1.124 1.124 0 0 1 .876.419 8.29 8.29 0 0 1 1.104 2.19c.254.774.381 1.58.381 2.418a7.77 7.77 0 0 1-.38 2.4 7.619 7.619 0 0 1-1.105 2.17 1.354 1.354 0 0 1-.381.325.965.965 0 0 1-.495.133Zm0-8.874a6.23 6.23 0 0 0-.914 1.809 6.768 6.768 0 0 0-.305 2.038c0 .685.101 1.352.305 1.999a6.23 6.23 0 0 0 .914 1.81c.406-.56.71-1.163.914-1.81a6.642 6.642 0 0 0 .305-2c0-.71-.102-1.39-.305-2.037a6.228 6.228 0 0 0-.914-1.81Zm14.396 5.332c-.508 0-.933-.178-1.276-.533a1.75 1.75 0 0 1-.514-1.257c0-.508.171-.94.514-1.295a1.701 1.701 0 0 1 1.276-.533c.483 0 .902.177 1.257.533.355.355.533.787.533 1.295 0 .482-.178.901-.533 1.257a1.72 1.72 0 0 1-1.257.533Zm0-2.476a.623.623 0 0 0-.457.19.67.67 0 0 0-.19.496c0 .178.063.33.19.457s.28.19.457.19c.178 0 .33-.063.457-.19a.623.623 0 0 0 .19-.457.67.67 0 0 0-.19-.495.623.623 0 0 0-.457-.19Zm2.171 13.673c-.635 0-1.18-.228-1.638-.685a2.28 2.28 0 0 1-.685-1.676c0-.635.228-1.18.685-1.638a2.235 2.235 0 0 1 1.638-.686c.66 0 1.219.23 1.676.686.457.457.685 1.003.685 1.638a2.28 2.28 0 0 1-.685 1.676 2.28 2.28 0 0 1-1.676.685Zm0-3.542a1.16 1.16 0 0 0-.819.343 1.11 1.11 0 0 0-.362.838c0 .33.115.61.343.838.229.228.508.342.838.342.33 0 .616-.114.857-.342a1.11 1.11 0 0 0 .362-.838c0-.33-.12-.61-.362-.838a1.204 1.204 0 0 0-.857-.343Zm.152-4.113a.722.722 0 0 1-.228-.038.367.367 0 0 1-.19-.153l-.02-.019-.057-.057-.019-.038-.019-.038c0-.025-.006-.044-.019-.057a.081.081 0 0 1-.019-.057v-.114c0-.077.013-.153.038-.229a.478.478 0 0 1 .114-.19c.026 0 .045-.007.058-.02.012-.012.019-.031.019-.057.025 0 .044-.006.057-.019.013-.012.032-.019.057-.019s.044-.006.057-.019a.081.081 0 0 1 .057-.019h.229a76.046 76.046 0 0 0 .076.038c.025 0 .044.007.057.02.013.012.032.018.057.018l.057.058.02.019c.05.05.094.114.133.19a.507.507 0 0 1 .057.229v.057c0 .012-.013.031-.038.057v.114c-.026 0-.038.013-.038.038s-.013.038-.038.038c0 .026-.007.045-.02.057-.012.013-.031.02-.057.02a.885.885 0 0 1-.171.133.4.4 0 0 1-.21.057Zm-4.303 4.532h-.172c-.012 0-.031-.013-.057-.038-.025 0-.044-.006-.057-.02-.013-.012-.032-.018-.057-.018 0-.025-.006-.044-.02-.057-.012-.013-.03-.02-.056-.02a.478.478 0 0 1-.114-.19.719.719 0 0 1-.039-.228v-.153c0-.025.013-.038.038-.038 0-.025.007-.044.02-.057a.081.081 0 0 0 .019-.057l.057-.057.019-.02.057-.056.019-.02c.025 0 .044-.006.057-.018.013-.013.032-.02.057-.02.026-.025.045-.037.057-.037h.058a.41.41 0 0 1 .247 0 .574.574 0 0 1 .248.152c.025 0 .044.013.057.038l.019.038c0 .025.006.044.019.057a.081.081 0 0 1 .019.057c.025 0 .038.013.038.038v.077l.019.038c.013.025.019.05.019.076a.4.4 0 0 1-.057.21.885.885 0 0 1-.133.17.507.507 0 0 1-.381.153ZM4.532 6.923a1.72 1.72 0 0 1-1.257-.533 1.72 1.72 0 0 1-.533-1.257c0-.508.178-.94.533-1.295a1.72 1.72 0 0 1 1.257-.533 1.7 1.7 0 0 1 1.276.533c.343.355.514.787.514 1.295 0 .482-.171.901-.514 1.257a1.7 1.7 0 0 1-1.276.533Zm0-2.476a.623.623 0 0 0-.457.19.67.67 0 0 0-.19.496c0 .178.063.33.19.457s.28.19.457.19c.178 0 .33-.063.457-.19a.623.623 0 0 0 .19-.457.67.67 0 0 0-.19-.495.623.623 0 0 0-.457-.19ZM2.362 18.12a2.28 2.28 0 0 1-1.676-.685A2.28 2.28 0 0 1 0 15.759c0-.635.229-1.18.686-1.638a2.28 2.28 0 0 1 1.675-.686c.635 0 1.181.23 1.638.686.457.457.686 1.003.686 1.638a2.28 2.28 0 0 1-.686 1.676 2.235 2.235 0 0 1-1.638.685Zm0-3.542c-.33 0-.616.114-.858.343a1.11 1.11 0 0 0-.361.838c0 .33.12.61.361.838.242.228.527.342.857.342.305 0 .578-.114.82-.342a1.11 1.11 0 0 0 .361-.838c0-.33-.114-.61-.343-.838a1.14 1.14 0 0 0-.838-.343Zm-.153-4.113h-.114c-.026-.025-.045-.038-.057-.038H1.98l-.038-.02c-.025-.012-.038-.031-.038-.056-.025 0-.044-.007-.057-.02l-.019-.018a.726.726 0 0 1-.133-.19.507.507 0 0 1-.057-.23V9.78c.025-.025.038-.044.038-.057v-.057c.025-.025.038-.044.038-.057 0-.013.013-.02.038-.02 0-.025.006-.044.019-.056.013-.013.019-.032.019-.057.025 0 .044-.007.057-.02.013-.012.032-.018.057-.018 0-.026.007-.039.02-.039.012 0 .031-.012.056-.038h.058c.012 0 .031-.012.057-.038h.228c.026.026.045.038.057.038h.058l.038.02c.025.012.038.031.038.057.025 0 .044.006.057.019l.019.019.057.057c.013.012.019.031.019.057.025 0 .038.006.038.019s.013.032.038.057v.114c.026.026.038.045.038.057v.115c0 .012-.012.031-.038.057v.114c-.025.026-.038.044-.038.057 0 .013-.013.02-.038.02 0 .025-.006.044-.019.056l-.057.057-.02.02c-.012.012-.03.019-.056.019 0 .025-.013.038-.038.038-.026 0-.038.012-.038.038H2.38c-.012 0-.031.013-.057.038H2.21Zm4.304 4.532H6.34c-.012 0-.031-.013-.057-.038l-.038-.02-.038-.018-.057-.057a6.44 6.44 0 0 1-.02-.02l-.056-.056-.02-.02c-.025-.025-.037-.044-.037-.057 0-.012-.013-.031-.039-.057v-.114c-.025 0-.038-.013-.038-.038v-.114c0-.026.013-.051.038-.076v-.077c.026-.025.039-.044.039-.057 0-.013.012-.032.038-.057 0-.025.006-.044.019-.057.012-.013.031-.02.057-.02 0-.024.006-.043.019-.056.013-.013.032-.02.057-.02l.038-.018.038-.02c.026-.025.045-.037.057-.037h.343c.013 0 .032.012.057.038.026 0 .045.006.057.019l.02.019c.025 0 .044.006.057.019l.057.057.019.019a.081.081 0 0 1 .019.057c.025.025.038.044.038.057 0 .013.013.032.038.057v.038c0 .026.013.039.038.039v.228c-.025.025-.038.045-.038.057v.057c0 .026-.006.045-.02.057l-.056.058-.02.038-.018.038a.478.478 0 0 1-.19.114.719.719 0 0 1-.23.038Z"/></svg>