<svg xmlns="http://www.w3.org/2000/svg" width="39" height="42" fill="none"><path fill="#fff" d="M17.748 7.313c.076-.253.222-.47.438-.647.216-.178.463-.267.743-.267h1.142c.28 0 .527.09.743.267.216.178.362.394.438.647l.19.915a7.885 7.885 0 0 0 .686.304L22.89 8a1.2 1.2 0 0 1 .8-.171c.279.038.52.146.723.323l.8.838c.203.203.317.445.343.724.025.28-.038.533-.19.762l-.534.8c.076.101.133.209.171.323.038.114.083.235.134.362l.914.19c.28.051.508.184.685.4.178.216.267.464.267.743v1.828a.548.548 0 0 1-.172.4.548.548 0 0 1-.4.171.548.548 0 0 1-.4-.171.548.548 0 0 1-.17-.4v-1.828l-.02-.02-.019-.018-1.257-.267a.66.66 0 0 1-.266-.133.458.458 0 0 1-.152-.248 3.782 3.782 0 0 0-.19-.57 5.248 5.248 0 0 0-.268-.534.676.676 0 0 1-.076-.305c0-.101.038-.19.114-.266l.686-1.067V9.79l-.838-.8c0-.025-.006-.038-.019-.038-.012 0-.019.013-.019.038l-1.066.686a.676.676 0 0 1-.305.076.676.676 0 0 1-.305-.076 6.806 6.806 0 0 0-1.066-.42 1.018 1.018 0 0 1-.267-.19.565.565 0 0 1-.152-.266l-.267-1.257h-1.218L18.624 8.8a.565.565 0 0 1-.152.266.988.988 0 0 1-.267.19 6.806 6.806 0 0 0-1.066.419.676.676 0 0 1-.305.077.676.676 0 0 1-.305-.076l-1.066-.686c0-.025-.006-.038-.02-.038-.012 0-.018.013-.018.038l-.838.8v.076l.723 1.029a.672.672 0 0 1 .077.304.676.676 0 0 1-.077.305 5.29 5.29 0 0 0-.266.533c-.076.178-.14.368-.19.571a.458.458 0 0 1-.153.248.66.66 0 0 1-.266.133l-1.257.267-.02.019-.018.019v1.828a.548.548 0 0 1-.172.4.548.548 0 0 1-.4.171.548.548 0 0 1-.4-.171.548.548 0 0 1-.17-.4v-1.828c0-.28.088-.527.266-.743a1.12 1.12 0 0 1 .685-.4l.914-.19c.051-.127.096-.248.134-.362.038-.114.095-.222.171-.324l-.533-.8a1.147 1.147 0 0 1-.19-.761c.025-.28.139-.52.342-.724l.838-.838a1.16 1.16 0 0 1 .685-.323 1.2 1.2 0 0 1 .8.171l.762.533a10.501 10.501 0 0 0 .686-.304l.19-.915Zm1.752 4.685a1.84 1.84 0 0 0-1.352.552 1.795 1.795 0 0 0-.552 1.314 1.934 1.934 0 0 0 .266.952.533.533 0 0 1 .057.42.642.642 0 0 1-.285.38.482.482 0 0 1-.42.038.608.608 0 0 1-.342-.266 3.636 3.636 0 0 1-.305-.724 2.768 2.768 0 0 1-.114-.8c0-.838.299-1.549.895-2.133a2.967 2.967 0 0 1 2.152-.876 2.97 2.97 0 0 1 2.152.876c.596.584.895 1.295.895 2.133 0 .28-.038.546-.114.8a3.636 3.636 0 0 1-.305.724.608.608 0 0 1-.343.266.482.482 0 0 1-.419-.038.642.642 0 0 1-.285-.38.533.533 0 0 1 .057-.42c.076-.127.14-.273.19-.438.05-.165.076-.336.076-.514 0-.508-.184-.946-.552-1.314a1.839 1.839 0 0 0-1.352-.552Zm-5.332 16.453a.51.51 0 0 1 .419.114.47.47 0 0 1 .19.381c.127 1.194.642 2.197 1.543 3.01a4.596 4.596 0 0 0 3.18 1.218 4.596 4.596 0 0 0 3.18-1.219c.901-.812 1.416-1.815 1.543-3.009 0-.152.063-.279.19-.38a.51.51 0 0 1 .419-.115.6.6 0 0 1 .38.229.655.655 0 0 1 .153.419c-.177 1.472-.819 2.71-1.923 3.713-1.105 1.003-2.419 1.504-3.942 1.504-1.523 0-2.837-.501-3.942-1.504-1.104-1.003-1.733-2.24-1.885-3.713a.51.51 0 0 1 .114-.42.602.602 0 0 1 .381-.228Zm2.476-3.047c.177 0 .317.057.419.172a.583.583 0 0 1 .152.4v2.475c0 .635.222 1.174.666 1.619.445.444.984.666 1.619.666s1.174-.222 1.619-.666c.444-.445.666-.984.666-1.619v-2.475c0-.153.057-.286.171-.4a.548.548 0 0 1 .4-.172c.153 0 .286.057.4.172a.548.548 0 0 1 .172.4v2.475c0 .94-.337 1.746-1.01 2.419-.672.672-1.479 1.009-2.418 1.009-.94 0-1.746-.337-2.419-1.01-.672-.672-1.009-1.478-1.009-2.418v-2.475c0-.153.057-.286.172-.4a.548.548 0 0 1 .4-.172Zm8.455-10.283c0-.178.05-.317.152-.419a.566.566 0 0 1 .419-.152h1.371c.457 0 .844.159 1.162.476.317.317.476.704.476 1.162v1.561c0 .66-.197 1.257-.59 1.79a3.012 3.012 0 0 1-1.543 1.105l-.724.228a.529.529 0 0 1-.438-.038.589.589 0 0 1-.285-.343.53.53 0 0 1 .038-.438.46.46 0 0 1 .343-.247l.723-.229a1.82 1.82 0 0 0 .971-.704c.242-.343.362-.718.362-1.124v-1.561a.489.489 0 0 0-.133-.362.489.489 0 0 0-.362-.134H25.67a.531.531 0 0 1-.419-.171.583.583 0 0 1-.152-.4ZM10.32 16.187c0-.457.159-.844.476-1.161a1.58 1.58 0 0 1 1.162-.476h1.371c.178 0 .318.05.419.152a.566.566 0 0 1 .152.42.58.58 0 0 1-.152.399.531.531 0 0 1-.419.171H11.96a.507.507 0 0 0-.343.134.456.456 0 0 0-.152.361v1.562c0 .406.12.78.362 1.124.24.342.565.577.97.704l.725.229a.46.46 0 0 1 .342.247.53.53 0 0 1 .038.438.589.589 0 0 1-.285.343.529.529 0 0 1-.438.038l-.724-.228a3.012 3.012 0 0 1-1.542-1.105 2.942 2.942 0 0 1-.59-1.79v-1.561Zm18.36 18.359c.152.076.254.19.304.343a.482.482 0 0 1-.038.419l-.723 1.447v3.085a.548.548 0 0 1-.172.4.548.548 0 0 1-.8 0 .548.548 0 0 1-.17-.4v-3.237c0-.051.005-.096.018-.134a1.04 1.04 0 0 1 .057-.133l.762-1.523a.511.511 0 0 1 .343-.286.668.668 0 0 1 .419.019Zm-18.358 0a.742.742 0 0 1 .438-.02.51.51 0 0 1 .324.287l.762 1.523c.025.05.044.095.057.133a.421.421 0 0 1 .019.134v3.237a.548.548 0 0 1-.171.4.548.548 0 0 1-.8 0 .548.548 0 0 1-.172-.4v-3.085l-.723-1.447a.482.482 0 0 1-.038-.42.578.578 0 0 1 .304-.342Zm6.894-6.208a.598.598 0 0 1-.42.686l-7.083 1.675a3.433 3.433 0 0 0-1.81 1.01 3.522 3.522 0 0 0-.932 1.847l-.229 1.409a.532.532 0 0 1-.228.362.547.547 0 0 1-.42.095.532.532 0 0 1-.361-.229.548.548 0 0 1-.095-.419l.228-1.409a4.604 4.604 0 0 1 1.2-2.418 4.685 4.685 0 0 1 2.38-1.39l7.084-1.676a.547.547 0 0 1 .42.095c.126.089.215.21.266.362ZM5.827 36.944c.152.026.28.102.381.229a.51.51 0 0 1 .114.419l-.304 1.676h26.964l-.266-1.676a.548.548 0 0 1 .095-.42.532.532 0 0 1 .362-.228.547.547 0 0 1 .419.096.527.527 0 0 1 .228.361l.42 2.324c0 .101-.013.19-.039.266a.96.96 0 0 1-.114.229.724.724 0 0 1-.19.133.507.507 0 0 1-.229.057H5.332a.507.507 0 0 1-.228-.057.725.725 0 0 1-.19-.133.959.959 0 0 1-.115-.229.474.474 0 0 1 0-.266l.38-2.324a.532.532 0 0 1 .23-.361.548.548 0 0 1 .418-.096Zm15.958-8.607a.698.698 0 0 1 .267-.362.547.547 0 0 1 .419-.095l7.084 1.676c.94.228 1.733.692 2.38 1.39a4.605 4.605 0 0 1 1.2 2.418l.228 1.41a.548.548 0 0 1-.095.418.532.532 0 0 1-.362.229.547.547 0 0 1-.419-.095.532.532 0 0 1-.228-.362l-.229-1.41a3.523 3.523 0 0 0-.933-1.847 3.422 3.422 0 0 0-1.77-1.009l-7.123-1.675a.598.598 0 0 1-.419-.686ZM12.76 15.12c0-.178.057-.317.171-.419a.583.583 0 0 1 .4-.152h12.34c.152 0 .286.05.4.152a.532.532 0 0 1 .171.42v5.217c0 .99-.216 1.936-.647 2.837a7.167 7.167 0 0 1-1.79 2.343l-1.714 1.409a3.34 3.34 0 0 1-.914.533 2.84 2.84 0 0 1-1.028.19h-1.296a2.84 2.84 0 0 1-1.028-.19 3.314 3.314 0 0 1-.914-.533l-1.714-1.41a7.167 7.167 0 0 1-1.79-2.342 6.491 6.491 0 0 1-.647-2.837V15.12Zm1.142.571v4.647c0 .838.178 1.631.534 2.38.355.75.85 1.39 1.485 1.924l1.714 1.409a1.828 1.828 0 0 0 1.219.457h1.295a1.828 1.828 0 0 0 1.218-.457l1.714-1.41a5.642 5.642 0 0 0 1.485-1.923 5.483 5.483 0 0 0 .534-2.38v-4.647H13.9ZM7.274 2.552c-1.193 0-2.215.426-3.066 1.277-.85.85-1.275 1.872-1.275 3.066 0 1.218.425 2.253 1.276 3.104.85.85 1.872 1.275 3.065 1.275 1.22 0 2.254-.425 3.104-1.275.851-.851 1.276-1.886 1.276-3.104 0-1.194-.425-2.216-1.276-3.066-.85-.851-1.885-1.276-3.104-1.276ZM1.79 6.896c0-1.499.54-2.787 1.619-3.866 1.079-1.081 2.367-1.62 3.865-1.62 1.524 0 2.825.54 3.904 1.619 1.08 1.079 1.619 2.367 1.619 3.866 0 1.523-.54 2.824-1.619 3.903-1.079 1.08-2.38 1.619-3.904 1.619-1.498 0-2.786-.54-3.865-1.619C2.329 9.72 1.79 8.418 1.79 6.895Zm3.047-.42c.152 0 .286.051.4.153a.532.532 0 0 1 .171.419c0 .508.184.946.552 1.314.369.368.807.552 1.314.552.534 0 .984-.184 1.352-.552.369-.368.553-.806.553-1.314 0-.178.057-.318.171-.42a.583.583 0 0 1 .4-.151c.152 0 .286.05.4.152a.532.532 0 0 1 .171.419c0 .812-.298 1.517-.895 2.114a2.934 2.934 0 0 1-2.152.895 2.872 2.872 0 0 1-2.132-.895c-.584-.597-.876-1.302-.876-2.114 0-.178.05-.318.152-.42a.566.566 0 0 1 .419-.151ZM6.55 5.029a.548.548 0 0 1-.172.4.548.548 0 0 1-.4.172.532.532 0 0 1-.418-.172.583.583 0 0 1-.153-.4c0-.152.051-.285.153-.4a.532.532 0 0 1 .418-.171c.153 0 .286.057.4.171a.548.548 0 0 1 .172.4Zm2.628 0a.548.548 0 0 1-.172.4.548.548 0 0 1-.4.172.548.548 0 0 1-.4-.172.548.548 0 0 1-.17-.4.55.55 0 0 1 .17-.4.548.548 0 0 1 .4-.171c.153 0 .286.057.4.171a.548.548 0 0 1 .172.4Zm22.547-2.475a4.25 4.25 0 0 0-2.514.8.598.598 0 0 1-.419.076.602.602 0 0 1-.38-.229.46.46 0 0 1-.096-.419.692.692 0 0 1 .247-.38c.432-.305.92-.547 1.467-.724a5.44 5.44 0 0 1 1.695-.267c1.523 0 2.818.54 3.884 1.619 1.067 1.079 1.6 2.367 1.6 3.866 0 1.523-.533 2.824-1.6 3.903-1.066 1.08-2.361 1.619-3.884 1.619-1.524 0-2.825-.54-3.904-1.619-1.08-1.079-1.619-2.38-1.619-3.903 0-.381.045-.756.133-1.124.09-.368.197-.717.324-1.047a.582.582 0 0 1 .324-.305c.14-.05.285-.05.438 0 .152.05.254.152.305.305.05.152.05.304 0 .457A2.946 2.946 0 0 0 27.46 6a5.29 5.29 0 0 0-.076.895c0 1.218.419 2.253 1.257 3.104.838.85 1.866 1.275 3.085 1.275 1.193 0 2.215-.425 3.066-1.275.85-.851 1.275-1.886 1.275-3.104 0-1.194-.425-2.216-1.276-3.066-.85-.851-1.872-1.276-3.065-1.276Zm0 4.989c-.356 0-.654.127-.895.38a1.235 1.235 0 0 0-.362.877.532.532 0 0 1-.172.419.583.583 0 0 1-.4.152.583.583 0 0 1-.4-.152.532.532 0 0 1-.17-.42c0-.66.234-1.224.704-1.694a2.31 2.31 0 0 1 1.695-.705c.66 0 1.225.235 1.694.705.47.47.705 1.035.705 1.695a.532.532 0 0 1-.171.419.583.583 0 0 1-.4.152.583.583 0 0 1-.4-.152.532.532 0 0 1-.172-.42c0-.33-.127-.621-.38-.875-.254-.254-.546-.381-.876-.381ZM30.964 4.8a.548.548 0 0 1-.171.4.548.548 0 0 1-.4.171.548.548 0 0 1-.4-.171.548.548 0 0 1-.172-.4c0-.153.057-.286.172-.4a.554.554 0 0 1 .8-.001.548.548 0 0 1 .17.4Zm2.628 0a.588.588 0 0 1-.152.4.532.532 0 0 1-.42.171.548.548 0 0 1-.4-.171.548.548 0 0 1-.17-.4c0-.153.056-.286.17-.4a.548.548 0 0 1 .4-.171c.178 0 .318.057.42.17a.583.583 0 0 1 .152.4Z"/></svg>