<svg xmlns="http://www.w3.org/2000/svg" width="60" height="60" fill="none"><g fill="#fff" clip-path="url(#a)"><path d="M41.092 31.872c2.223-1.83 1.66-4.329 1.742-4.825h.17a4.367 4.367 0 0 0 4.362-4.362 3.2 3.2 0 0 0-1.326-2.593v-2.474c0-6.69-4.523-12.342-10.67-14.061a5.577 5.577 0 0 0-5.374-4.053 5.576 5.576 0 0 0-5.372 4.053c-6.148 1.72-10.671 7.372-10.671 14.06v2.476a3.2 3.2 0 0 0-1.326 2.592 4.367 4.367 0 0 0 4.362 4.363h.17v1.128a4.78 4.78 0 0 0 1.742 3.696c-5.173 2.611-8.538 7.97-8.538 13.863v11.796c0 1.088.885 1.973 1.973 1.973h4.772a.879.879 0 1 0 0-1.758h-4.772a.215.215 0 0 1-.215-.215V45.735a13.8 13.8 0 0 1 8.824-12.847l1.565.516 2.628 4.045a.878.878 0 1 0 1.474-.957l-1.435-2.209 3.32 1.095c.95.313 2.015.324 3 0l3.319-1.095-4.82 7.42-1.467-2.26a.879.879 0 1 0-1.474.958l1.906 2.934c-1.02 1.757-4.327 7.927-4.543 14.411h-3.796a.879.879 0 1 0 0 1.758h27.035a1.975 1.975 0 0 0 1.973-1.973V45.735c0-5.894-3.365-11.252-8.538-13.863Zm1.912-6.582h-.17v-4.05h1.33c.797 0 1.444.649 1.444 1.445a2.608 2.608 0 0 1-2.604 2.605ZM29.996 1.262c1.39 0 2.624.739 3.296 1.874a14.659 14.659 0 0 0-1.85-.117h-2.89c-.628 0-1.245.04-1.851.117a3.824 3.824 0 0 1 3.295-1.874ZM15.711 17.618c0-7.08 5.76-12.84 12.84-12.84h2.89c7.08 0 12.841 5.76 12.841 12.84v1.868c-.161-.006-.007-.002-1.448-.003v-2.897a.879.879 0 0 0-.897-.879c-5.415.11-8.892-.888-10.334-2.974a2.376 2.376 0 0 0-1.798-1.027 2.32 2.32 0 0 0-1.88.75c-2.12 2.311-5.345 3.375-9.864 3.251a.878.878 0 0 0-.903.878v2.898c-1.44.001-1.287-.003-1.448.003v-1.868Zm1.278 7.672a2.608 2.608 0 0 1-2.605-2.605c0-.796.648-1.444 1.445-1.444h1.33v4.049h-.17Zm13.957 8.418a3.055 3.055 0 0 1-1.899 0L21 31.055a3.026 3.026 0 0 1-2.083-2.88v-10.7c4.593-.029 7.97-1.286 10.305-3.83a.57.57 0 0 1 .463-.186.627.627 0 0 1 .473.274c1.733 2.507 5.31 3.734 10.92 3.74v10.703a3.028 3.028 0 0 1-2.083 2.88l-8.048 2.652Zm16.926 23.823a.215.215 0 0 1-.215.215h-21.48c.258-6.934 4.428-13.743 4.56-13.958l6.746-10.384 1.565-.516a13.8 13.8 0 0 1 8.824 12.847v11.796Z"/><path d="M32.137 27.92c-1.44.605-2.84.605-4.28 0a.88.88 0 0 0-.68 1.622 7.243 7.243 0 0 0 2.82.588 7.25 7.25 0 0 0 2.82-.588.88.88 0 0 0-.68-1.621ZM57.04-.496a.879.879 0 0 0-.879.879v19.92a7.339 7.339 0 0 1-2.16 5.22l-2.898 2.9a.634.634 0 0 1-.9-.893l2.575-2.616c.511-.519.82-1.205.87-1.931l.614-8.786a1.217 1.217 0 0 0-.941-1.275 1.217 1.217 0 0 0-1.409.727l-1.921 4.689c-.122.297-.565.208-.565-.111v-4.113c0-2.166.754-4.283 2.124-5.96a2.921 2.921 0 0 0 .655-1.84V.383a.879.879 0 1 0-1.758 0v5.931c0 .265-.092.523-.259.728a11.214 11.214 0 0 0-2.52 7.072v4.113c0 1.13.92 2.051 2.051 2.051.837 0 1.581-.5 1.898-1.273l.66-1.609-.382 5.465a1.3 1.3 0 0 1-.37.82l-2.575 2.616a2.38 2.38 0 0 0-.023 3.331 2.39 2.39 0 0 0 3.42.037l2.897-2.9a9.085 9.085 0 0 0 2.675-6.462V.383a.879.879 0 0 0-.879-.88ZM11.045 26.297 8.47 23.68a1.299 1.299 0 0 1-.37-.82l-.381-5.465.659 1.608a2.044 2.044 0 0 0 1.898 1.274c1.131 0 2.051-.92 2.051-2.051v-4.113c0-2.57-.895-5.081-2.52-7.072a1.153 1.153 0 0 1-.26-.728V.383a.879.879 0 1 0-1.757 0v5.931c0 .669.233 1.322.656 1.84a9.452 9.452 0 0 1 2.124 5.96v4.113c0 .319-.444.409-.566.11l-1.92-4.688a1.217 1.217 0 0 0-1.409-.727 1.217 1.217 0 0 0-.941 1.275l.612 8.786a3.06 3.06 0 0 0 .871 1.931l2.575 2.616a.634.634 0 0 1-.9.893l-2.897-2.9a7.338 7.338 0 0 1-2.161-5.22V.382a.879.879 0 1 0-1.758 0v19.92c0 2.44.95 4.736 2.676 6.463l2.897 2.899a2.39 2.39 0 0 0 3.42-.037 2.38 2.38 0 0 0-.024-3.331Zm16.05-3.352a.879.879 0 0 0-1.139-.498c-.494.193-.844.193-1.338 0a.88.88 0 0 0-.641 1.637c.453.177.881.266 1.31.266.428 0 .857-.09 1.31-.267a.879.879 0 0 0 .498-1.138Zm8.281-.498c-.494.193-.844.193-1.338 0a.88.88 0 0 0-.641 1.637c.453.177.881.266 1.31.266.428 0 .857-.09 1.31-.267a.879.879 0 0 0-.641-1.636Z"/></g><defs><clipPath id="a"><path fill="#fff" d="M0 0h60v60H0z"/></clipPath></defs></svg>