<svg xmlns="http://www.w3.org/2000/svg" width="76" height="76" fill="none"><path fill="#00939F" d="M52.886.407c.188.119.432-.144.254-.321a.18.18 0 0 0-.1-.053.177.177 0 0 0-.108-.033c-.25 0-.263.359-.046.407Zm-3.23.398c.266 0 .266-.415 0-.415-.268 0-.268.415 0 .415Zm-2.46 1.06c.267 0 .267-.415 0-.415s-.267.415 0 .415Zm-2.254 1.378c.269 0 .269-.415 0-.415-.267 0-.267.415 0 .415Zm-2.023 1.725c.267 0 .267-.415 0-.415s-.27.415 0 .415Zm2.046 11.163c.536 0 .536-.83 0-.83-.534 0-.536.83 0 .83Zm-.482-1.896c.536 0 .536-.833 0-.833-.534 0-.536.833 0 .833Zm-.553-1.656c.536 0 .536-.83 0-.83-.534 0-.536.83 0 .83Zm-.897-1.517c.536 0 .536-.832 0-.832-.534 0-.536.832 0 .832Zm-1.068-1.414c.534 0 .536-.832 0-.832s-.536.832 0 .832ZM40.55 8.27c.536 0 .536-.833 0-.833-.534 0-.536.833 0 .833Zm-1.343-1.588c.536 0 .536-.832 0-.832s-.536.832 0 .832Zm.38 23.118c-.27 0-.27.415 0 .415.267 0 .267-.415 0-.415Zm.78-2.071c-.267 0-.267.417 0 .417.269 0 .269-.417 0-.417Zm.922-2.115c-.27 0-.27.415 0 .415.267 0 .267-.415 0-.415Zm.782-1.333c.265 0 .267-.415 0-.415-.27 0-.27.415 0 .415Zm.596-1.748c.267 0 .27-.415 0-.415-.267 0-.267.415 0 .415Zm.599-1.516c.267 0 .267-.415 0-.415-.27 0-.27.415 0 .415ZM39.47 32.728c.006.004.017.002.025.006.008.002.015.01.023.015a.252.252 0 0 0 .08.014.207.207 0 0 0 .191-.129l5.604-13.563a.208.208 0 0 0-.114-.27c-.002-.003-.009-.003-.01-.005-.007 0-.007-.004-.013-.006a.208.208 0 0 0-.271.112l-5.63 13.555a.207.207 0 0 0 .115.271ZM25.376.805c.267 0 .267-.415 0-.415-.269 0-.269.415 0 .415Zm2.46 1.06c.268 0 .266-.415 0-.415-.268 0-.268.415 0 .415Zm2.254 1.378c.267 0 .267-.415 0-.415-.27 0-.27.415 0 .415Zm2.023 1.725c.267 0 .267-.415 0-.415-.27 0-.27.415 0 .415ZM30.067 15.3c-.536 0-.536.83 0 .83s.534-.83 0-.83Zm.482-1.898c-.536 0-.534.833 0 .833.536 0 .536-.833 0-.833Zm.552-.823c.536 0 .534-.83 0-.83-.536 0-.536.83 0 .83Zm.897-1.517c.536 0 .534-.832 0-.832-.536 0-.536.832 0 .832Zm1.068-1.414c.536 0 .536-.832 0-.832s-.534.832 0 .832ZM34.48 8.27c.536 0 .534-.833 0-.833-.536 0-.534.833 0 .833Zm1.345-1.588c.536 0 .536-.832 0-.832s-.534.832 0 .832Zm-.377 23.533c.267 0 .265-.415 0-.415-.27 0-.27.415 0 .415Zm-.784-2.07c.269 0 .269-.416 0-.416-.267 0-.265.417 0 .417Zm-.92-2.116c.269 0 .269-.415 0-.415-.267 0-.267.415 0 .415Zm-.78-1.748c.267 0 .267-.415 0-.415-.27 0-.27.415 0 .415Zm-.599-1.748c.27 0 .267-.415 0-.415s-.267.415 0 .415Zm-.596-1.516c.265 0 .265-.415 0-.415-.27 0-.27.415 0 .415Zm1.99-5.287c.227.793.698 1.49.948 2.273.257.808.188 1.64.036 2.46-.157.83-.403 1.662-.376 2.515.023.736.332 1.351.728 1.956.455.694.976 1.341 1.469 2.006.26.353.519.714.744 1.093v-4.167l-.636.839a.211.211 0 0 1-.167.083.207.207 0 0 1-.165-.334l.968-1.276v-2.661l-1.333 1.618a.205.205 0 0 1-.291.03.206.206 0 0 1-.032-.293l1.656-2.01v-2.167l-1.007 1.31a.208.208 0 0 1-.292.037.207.207 0 0 1-.038-.29l1.337-1.74V14.81l-1.193 1.529a.205.205 0 0 1-.163.08.208.208 0 0 1-.165-.336l1.515-1.942.006-.017v-2.246l-1.666 1.983a.206.206 0 0 1-.294.025.21.21 0 0 1-.025-.294l1.983-2.359c0-.002 0-.004.002-.006V9.458c-.367.783-.917 1.5-1.466 2.067-1.116 1.154-2.603 2.411-2.084 4.205Zm3.964-6.272v1.77c0 .001 0 .003.002.005l1.984 2.36a.21.21 0 0 1-.159.343.207.207 0 0 1-.16-.075l-1.667-1.983v2.246l.007.017 1.514 1.941a.207.207 0 0 1-.038.293.21.21 0 0 1-.292-.036l-1.19-1.529v2.203l1.336 1.74a.206.206 0 0 1-.037.289.205.205 0 0 1-.292-.038l-1.008-1.31v2.166l1.654 2.012c.073.09.06.22-.029.292a.193.193 0 0 1-.131.048.202.202 0 0 1-.161-.077l-1.333-1.62v2.663l.968 1.276a.21.21 0 0 1-.04.292.22.22 0 0 1-.127.042.21.21 0 0 1-.165-.083l-.636-.839v4.167c.226-.38.484-.74.745-1.093.492-.665 1.013-1.312 1.468-2.006.396-.605.705-1.22.728-1.956.027-.853-.217-1.686-.373-2.516-.155-.82-.226-1.651.031-2.459.25-.784.724-1.48.953-2.273.517-1.794-.968-3.051-2.086-4.205-.548-.567-1.099-1.284-1.466-2.067Zm-4.19 6.879c-.309-.753-.413-1.548-.135-2.328.27-.767.798-1.412 1.355-1.992.636-.66 1.287-1.26 1.777-2.045.382-.614.71-1.314.774-2.042a2.866 2.866 0 0 1 .004-.5v-.005a.165.165 0 0 1 .121-.186.192.192 0 0 1 .173 0c.075.023.132.084.121.188a3.4 3.4 0 0 1 .004.505c.065.726.393 1.426.774 2.04.492.786 1.139 1.384 1.777 2.046.557.58 1.085 1.224 1.356 1.991.277.78.173 1.575-.136 2.328-.317.778-.8 1.516-.91 2.363-.11.85.111 1.702.282 2.528.165.803.31 1.637.122 2.448-.149.647-.522 1.223-.893 1.76-.436.626-.912 1.22-1.36 1.834-.382.52-.78 1.066-1.01 1.673l-.006.023v2.53a.207.207 0 1 1-.415 0v-2.53c-.002-.009-.004-.015-.004-.023-.232-.607-.63-1.154-1.012-1.673-.448-.613-.926-1.208-1.357-1.833-.376-.539-.747-1.114-.897-1.76-.186-.812-.044-1.646.123-2.45.171-.825.392-1.676.282-2.527-.109-.847-.59-1.585-.91-2.363ZM22.145.407C22.362.359 22.35 0 22.1 0a.177.177 0 0 0-.109.033.186.186 0 0 0-.102.053c-.175.177.069.44.256.32Zm-2.002 2.565c.19-.188-.104-.482-.294-.294-.188.19.104.484.294.294Zm-.99 2.488c.19-.187-.105-.484-.294-.294-.19.19.104.484.294.294Zm-.618 2.57c.19-.19-.104-.484-.294-.294-.19.187.102.481.294.294Zm-.212 2.649c.19-.188-.103-.482-.295-.295-.187.19.105.484.295.294Zm9.341 6.448c.378-.38-.208-.967-.588-.588-.378.378.209.966.588.588Zm-1.683-1c.38-.378-.209-.966-.588-.589-.378.38.21.968.588.588Zm-1.56-.78c.377-.378-.21-.966-.588-.589-.38.38.208.968.588.588Zm-1.708-.439c.38-.38-.207-.967-.588-.59-.378.38.21.968.588.59Zm-1.756-.246c.38-.377-.209-.966-.586-.586-.38.378.208.968.586.586Zm-1.973.027c.377-.38-.211-.967-.589-.59-.38.38.207.968.589.59Zm-2.076-.173c.38-.377-.208-.966-.588-.588-.375.38.21.97.588.588Zm16.617 16.078c-.192.19.102.484.294.294.188-.187-.107-.481-.294-.294Zm-.912-2.014c-.19.187.105.484.294.294.19-.19-.104-.484-.294-.294Zm-.844-2.148c-.19.19.104.483.294.294.188-.188-.107-.482-.294-.294Zm-.684-1.788c-.188.19.106.484.294.294.19-.19-.105-.484-.294-.294Zm-.812-1.658c-.192.19.102.484.292.294s-.104-.484-.292-.294Zm-.358-1.203c.19-.188-.105-.482-.294-.295-.188.192.106.486.294.295Zm5.326 10.851c.034.082.11.13.192.13a.252.252 0 0 0 .08-.015c.008-.004.014-.013.022-.015.009-.004.017-.002.028-.006a.208.208 0 0 0 .112-.271l-5.63-13.555a.21.21 0 0 0-.272-.112c-.005.002-.006.006-.01.006-.005.002-.01.002-.011.004a.206.206 0 0 0-.115.271l5.604 13.563Zm-13.506-6.93c.75.387 1.29 1.026 1.762 1.714.478.699.89 1.458 1.512 2.044.538.503 1.193.722 1.9.868.811.169 1.64.256 2.457.38.43.066.87.135 1.295.243l-2.943-2.945.144 1.045a.203.203 0 0 1-.058.175.186.186 0 0 1-.119.059.203.203 0 0 1-.234-.177l-.22-1.588-1.882-1.881.204 2.088a.206.206 0 0 1-.185.227.206.206 0 0 1-.227-.186l-.255-2.592-1.53-1.53.214 1.636a.208.208 0 1 1-.413.054l-.284-2.173-1.558-1.558.238 1.923a.208.208 0 0 1-.413.05l-.302-2.444c-.004-.004-.004-.008-.009-.015l-1.589-1.589.225 2.582a.204.204 0 0 1-.06.165.214.214 0 0 1-.13.06.21.21 0 0 1-.225-.19l-.265-3.07-.004-.006-1.266-1.266c.3.816.428 1.719.44 2.516.025 1.601-.135 3.543 1.5 4.446.722.399 1.548.555 2.28.935Zm-3.926-8.19 1.266 1.265c.003.002.003.002.007.002l3.07.267a.21.21 0 0 1 .129.357.209.209 0 0 1-.165.058l-2.582-.225 1.59 1.59a.04.04 0 0 1 .016.008l2.445.302a.207.207 0 0 1 .118.353.202.202 0 0 1-.17.06l-1.924-.238 1.558 1.558 2.174.284a.208.208 0 0 1 .18.233.199.199 0 0 1-.061.12.206.206 0 0 1-.174.058l-1.637-.213 1.531 1.53 2.593.255a.207.207 0 1 1-.04.413l-2.09-.204 1.883 1.883 1.588.22a.204.204 0 0 1 .175.233.207.207 0 0 1-.059.119.211.211 0 0 1-.175.058l-1.043-.146 2.943 2.945a13.098 13.098 0 0 1-.242-1.295c-.125-.82-.212-1.646-.381-2.457-.148-.707-.365-1.362-.87-1.9-.584-.622-1.345-1.037-2.042-1.514-.686-.47-1.326-1.008-1.714-1.76-.38-.733-.536-1.559-.935-2.28-.905-1.635-2.845-1.475-4.448-1.5-.797-.012-1.698-.14-2.514-.44Zm4.232 8.872c-.678-.524-1.539-.705-2.315-1.029-.75-.314-1.387-.803-1.741-1.551-.353-.735-.434-1.565-.45-2.368-.02-.917.018-1.8-.19-2.7-.168-.716-.437-1.454-.92-2.02a3.089 3.089 0 0 1-.33-.331c-.077-.065-.081-.142-.048-.209a.161.161 0 0 1 .048-.085.21.21 0 0 1 .085-.05.163.163 0 0 1 .21.05c.12.098.226.215.33.331.566.482 1.304.751 2.018.918.903.209 1.785.173 2.703.19.803.015 1.63.1 2.367.448.746.36 1.236.993 1.55 1.744.325.774.504 1.637 1.028 2.315.525.676 1.28 1.124 1.985 1.587.686.45 1.377.939 1.819 1.644.35.563.494 1.232.61 1.879.136.749.22 1.504.337 2.257.098.636.202 1.305.469 1.898l.01.014 1.792 1.794a.208.208 0 1 1-.294.294l-1.792-1.794a.04.04 0 0 1-.016-.008c-.593-.267-1.26-.37-1.9-.47-.751-.116-1.508-.2-2.257-.335-.642-.115-1.314-.26-1.875-.611-.705-.442-1.197-1.133-1.646-1.817-.465-.705-.909-1.464-1.587-1.985Zm7.421 23.632c.505-.536.722-1.193.87-1.898.169-.811.256-1.637.381-2.457.065-.431.134-.87.242-1.295l-2.943 2.945 1.043-.146a.21.21 0 0 1 .175.058.207.207 0 0 1 .059.12.204.204 0 0 1-.175.233l-1.588.219-1.883 1.883 2.09-.204a.201.201 0 0 1 .167.06.216.216 0 0 1 .06.125.209.209 0 0 1-.187.228l-2.593.254-1.53 1.531 1.637-.213a.207.207 0 0 1 .173.059.199.199 0 0 1 .06.119.208.208 0 0 1-.18.233l-2.173.284-1.558 1.558 1.923-.238a.201.201 0 0 1 .171.06.207.207 0 0 1-.119.352l-2.444.304c-.006.002-.012.006-.017.006l-1.589 1.59 2.582-.224a.203.203 0 0 1 .165.058c.033.036.056.08.06.132a.206.206 0 0 1-.19.223l-3.071.269-.005.002-1.266 1.266c.816-.302 1.717-.428 2.514-.44 1.604-.025 3.543.136 4.448-1.5.399-.721.555-1.547.935-2.28.388-.75 1.028-1.29 1.714-1.76.697-.477 1.458-.892 2.042-1.516ZM17.515 57.22l1.266-1.266s.002-.004.005-.006l.264-3.07a.21.21 0 0 1 .226-.19.203.203 0 0 1 .129.06.2.2 0 0 1 .06.165l-.225 2.58 1.59-1.587c.004-.006.004-.01.008-.015l.302-2.444a.208.208 0 0 1 .353-.123.217.217 0 0 1 .06.173l-.238 1.923 1.558-1.558.284-2.173a.207.207 0 0 1 .232-.18.22.22 0 0 1 .12.059.212.212 0 0 1 .061.175l-.215 1.637 1.531-1.53.255-2.593a.204.204 0 0 1 .227-.186.206.206 0 0 1 .186.227l-.205 2.088 1.881-1.881.221-1.587a.206.206 0 0 1 .353-.12.203.203 0 0 1 .058.176l-.144 1.045 2.943-2.945c-.425.108-.865.177-1.295.244-.818.121-1.646.21-2.457.38-.707.146-1.362.365-1.9.867-.621.586-1.034 1.346-1.512 2.044-.471.688-1.012 1.327-1.762 1.715-.732.38-1.558.536-2.28.934-1.635.903-1.475 2.843-1.5 4.447-.012.796-.14 1.7-.44 2.515Zm10.856-5.817c-.705.461-1.46.907-1.985 1.585-.524.678-.703 1.541-1.029 2.315-.313.751-.803 1.385-1.55 1.744-.735.348-1.563.434-2.366.448-.918.017-1.8-.018-2.703.19-.714.167-1.452.436-2.017.918-.098.11-.2.217-.313.313l-.019.018h-.002a.165.165 0 0 1-.207.05.21.21 0 0 1-.085-.05.16.16 0 0 1-.048-.085c-.033-.067-.03-.144.048-.209.098-.119.215-.227.33-.331.483-.566.752-1.304.92-2.017.208-.903.17-1.785.19-2.703.016-.803.097-1.633.45-2.367.354-.75.99-1.237 1.741-1.552.776-.323 1.637-.505 2.315-1.028.678-.522 1.122-1.281 1.587-1.986.449-.684.941-1.376 1.646-1.816.561-.353 1.233-.497 1.875-.612.749-.135 1.506-.219 2.257-.335.64-.1 1.307-.203 1.9-.47.004-.004.01-.006.016-.008l1.792-1.794a.208.208 0 1 1 .294.294l-1.792 1.794c-.004.004-.006.008-.01.015-.267.592-.371 1.262-.47 1.898-.116.752-.2 1.508-.335 2.256-.117.647-.26 1.316-.611 1.88-.442.704-1.133 1.192-1.819 1.645Zm24.926-2.08c-.753-.387-1.291-1.026-1.76-1.714-.478-.699-.895-1.458-1.517-2.044-.538-.502-1.19-.721-1.898-.867-.811-.17-1.637-.259-2.457-.38-.431-.067-.87-.136-1.295-.244l2.943 2.945-.144-1.045a.204.204 0 0 1 .06-.175.188.188 0 0 1 .117-.06.21.21 0 0 1 .236.179l.22 1.587 1.878 1.881-.202-2.088a.213.213 0 0 1 .06-.169.201.201 0 0 1 .128-.058.208.208 0 0 1 .227.186l.25 2.592 1.533 1.531-.212-1.637a.211.211 0 0 1 .058-.175.221.221 0 0 1 .119-.059.21.21 0 0 1 .236.18l.281 2.173 1.558 1.558-.238-1.923a.216.216 0 0 1 .059-.173.206.206 0 0 1 .123-.059.208.208 0 0 1 .231.182l.303 2.444c.002.004.006.009.008.015l1.587 1.587-.223-2.58a.197.197 0 0 1 .06-.165.204.204 0 0 1 .128-.06.208.208 0 0 1 .225.19l.269 3.07a.02.02 0 0 0 .002.006l1.264 1.266c-.3-.816-.425-1.719-.438-2.515-.025-1.604.136-3.544-1.5-4.447-.721-.398-1.55-.555-2.28-.934Zm3.923 8.191-1.262-1.266-.008-.002-3.07-.27a.206.206 0 0 1-.19-.222.225.225 0 0 1 .058-.132.212.212 0 0 1 .167-.058l2.58.223-1.587-1.59c-.006 0-.01-.003-.015-.005l-2.444-.303a.207.207 0 0 1-.123-.352.208.208 0 0 1 .173-.06l1.923.237-1.558-1.558-2.173-.284a.209.209 0 0 1-.18-.233.21.21 0 0 1 .234-.178l1.637.213-1.533-1.53-2.59-.255a.205.205 0 0 1-.186-.228.182.182 0 0 1 .059-.125.206.206 0 0 1 .166-.06l2.09.204-1.881-1.883-1.59-.22a.206.206 0 0 1-.177-.233.207.207 0 0 1 .059-.119.213.213 0 0 1 .175-.058l1.045.146-2.943-2.945c.109.426.18.864.242 1.295.123.82.21 1.646.382 2.457.146.705.365 1.362.87 1.898.584.624 1.343 1.039 2.041 1.516.689.47 1.327 1.01 1.715 1.76.377.733.538 1.559.934 2.28.903 1.636 2.843 1.475 4.449 1.5.794.012 1.697.138 2.51.44Zm-4.228-8.872c.674.523 1.54.705 2.313 1.028.751.315 1.385.803 1.742 1.552.35.734.436 1.564.45 2.367.017.918-.018 1.8.192 2.703.165.713.434 1.451.918 2.017.117.104.23.212.33.331.075.063.08.142.05.207a.204.204 0 0 1-.05.087.204.204 0 0 1-.088.05.16.16 0 0 1-.205-.05 2.975 2.975 0 0 1-.333-.331c-.563-.482-1.304-.751-2.017-.918-.903-.209-1.783-.173-2.701-.19-.805-.014-1.635-.1-2.371-.448-.747-.359-1.235-.993-1.548-1.744-.325-.774-.507-1.637-1.028-2.315-.524-.678-1.283-1.124-1.988-1.585-.684-.453-1.374-.94-1.816-1.645-.35-.564-.497-1.233-.611-1.88-.136-.748-.22-1.504-.336-2.256-.1-.636-.203-1.306-.47-1.898-.006-.005-.006-.01-.008-.015l-1.794-1.794a.208.208 0 1 1 .294-.294l1.794 1.794c.004.002.008.002.015.008.592.267 1.262.37 1.898.47.753.116 1.51.2 2.258.335.645.115 1.314.259 1.876.611.706.44 1.194 1.133 1.645 1.817.465.705.91 1.464 1.59 1.986ZM45.57 25.007c-.505.538-.724 1.193-.87 1.9-.171.811-.259 1.637-.382 2.457-.063.432-.133.87-.242 1.295l2.943-2.945-1.045.146a.213.213 0 0 1-.175-.058.207.207 0 0 1-.059-.12.206.206 0 0 1 .178-.233l1.589-.219 1.881-1.883-2.09.204a.207.207 0 0 1-.166-.06.182.182 0 0 1-.059-.125.204.204 0 0 1 .186-.228l2.59-.254 1.533-1.53-1.637.212a.21.21 0 0 1-.233-.177.209.209 0 0 1 .179-.234l2.173-.284 1.56-1.558-1.925.238a.208.208 0 0 1-.05-.413l2.444-.302a.034.034 0 0 1 .015-.009l1.587-1.589-2.58.225a.22.22 0 0 1-.167-.058.23.23 0 0 1-.058-.132.21.21 0 0 1 .19-.225l3.07-.267.008-.002 1.262-1.266c-.813.303-1.717.428-2.511.44-1.606.025-3.546-.135-4.449 1.5-.396.721-.557 1.547-.934 2.28-.388.752-1.026 1.29-1.715 1.76-.698.477-1.457.893-2.041 1.514Zm11.944-7.198-1.264 1.264-.002.007-.269 3.07a.208.208 0 0 1-.225.19.215.215 0 0 1-.127-.061.197.197 0 0 1-.061-.165l.223-2.582-1.587 1.59c-.002.006-.006.01-.008.014l-.303 2.444a.208.208 0 0 1-.231.182.22.22 0 0 1-.123-.059.213.213 0 0 1-.059-.173l.238-1.923-1.558 1.558-.282 2.174a.21.21 0 0 1-.354.12.211.211 0 0 1-.058-.175l.212-1.637-1.533 1.531-.25 2.592a.21.21 0 0 1-.355.128.213.213 0 0 1-.06-.17l.202-2.087-1.879 1.881-.219 1.588a.206.206 0 0 1-.236.177.176.176 0 0 1-.116-.059.204.204 0 0 1-.06-.175l.143-1.045-2.943 2.945a13.72 13.72 0 0 1 1.295-.244c.82-.123 1.646-.21 2.457-.38.707-.145 1.36-.364 1.898-.867.622-.586 1.039-1.345 1.516-2.044.47-.688 1.008-1.326 1.76-1.714.73-.38 1.559-.536 2.28-.935 1.636-.903 1.475-2.845 1.5-4.446.013-.797.138-1.7.438-2.514Zm-10.856 5.817c.705-.463 1.464-.911 1.988-1.587.521-.678.703-1.541 1.028-2.315.313-.75.8-1.385 1.548-1.744.736-.348 1.566-.433 2.371-.448.918-.017 1.798.019 2.7-.19.714-.167 1.455-.436 2.018-.918.104-.116.21-.233.333-.331a.16.16 0 0 1 .207-.05.193.193 0 0 1 .136.138c.03.064.024.141-.05.204v.002l-.021.019c-.094.112-.2.215-.31.313-.483.565-.752 1.303-.917 2.018-.21.902-.175 1.784-.192 2.701-.014.803-.1 1.634-.45 2.368-.357.748-.99 1.236-1.742 1.551-.773.324-1.639.505-2.313 1.029-.68.521-1.124 1.28-1.589 1.985-.45.684-.938 1.375-1.645 1.817-.562.35-1.231.496-1.876.61-.748.136-1.505.22-2.258.337-.636.1-1.306.202-1.898.469l-.015.008-1.794 1.794a.202.202 0 0 1-.148.06.208.208 0 0 1-.146-.355l1.794-1.793c.002-.004.002-.01.008-.014.267-.593.37-1.262.47-1.898.116-.753.2-1.508.335-2.257.115-.647.261-1.316.612-1.88.442-.704 1.132-1.192 1.816-1.643ZM2.974 20.141c.19-.188-.104-.482-.294-.294-.188.19.106.484.294.294Zm2.488-.99c.19-.19-.104-.484-.294-.295-.19.188.105.482.294.294Zm2.57-.62c.19-.188-.104-.482-.294-.294-.19.192.104.486.294.294Zm2.649-.21c.192-.19-.103-.482-.294-.295-.188.19.106.484.294.294Zm6.449 9.341c.377-.38-.21-.966-.589-.588-.38.38.211.965.588.588Zm-1.002-1.683c.38-.38-.208-.966-.588-.588-.377.38.21.965.588.588Zm-.78-1.56c.38-.38-.21-.968-.586-.588-.381.38.209.965.586.588Zm-1.026-2.294c-.38.377.209.965.586.588.382-.38-.208-.968-.586-.588Zm.344-1.17c.378-.378-.21-.966-.588-.589-.38.382.209.968.588.589Zm-.565-2.564c-.377.38.21.968.588.589.38-.378-.208-.966-.588-.589Zm.42-1.483c.377-.38-.211-.967-.589-.588-.38.378.209.966.588.588Zm16.076 16.613c-.19.19.104.483.294.294.19-.19-.105-.482-.294-.294Zm-2.015-.912c-.19.192.104.486.294.294.188-.187-.107-.481-.294-.294Zm-2.148-.842c-.188.19.106.481.294.294.19-.192-.105-.486-.294-.294Zm-1.788-.684c-.188.19.107.483.294.294.19-.19-.104-.484-.294-.294Zm-1.658-.814c-.19.19.107.484.294.294.19-.19-.106-.484-.294-.294Zm-1.495-.65c-.19.19.104.483.294.294.19-.188-.104-.482-.294-.295ZM.409 22.142c.12-.187-.144-.433-.321-.256a.208.208 0 0 0-.053.102.182.182 0 0 0-.035.108c0 .25.36.263.409.046Zm.398 3.229c0-.265-.415-.267-.415 0 0 .269.415.269.415 0Zm1.058 2.461c0-.267-.415-.267-.415 0 0 .27.415.27.415 0Zm1.38 2.253c0-.265-.415-.267-.415 0 0 .269.415.269.415 0ZM4.97 32.11c0-.267-.415-.27-.415 0 0 .267.415.267.415 0Zm11.165-2.048c0-.534-.833-.536-.833 0s.833.536.833 0Zm-1.898.484c0-.534-.832-.537-.832 0 0 .535.832.535.832 0Zm-1.654.55c0-.534-.832-.534-.832 0 0 .536.832.536.832 0Zm-1.519.897c0-.534-.832-.536-.832 0s.832.536.832 0ZM9.65 33.066c0-.536-.832-.536-.832 0 0 .534.832.536.832 0Zm-1.378 1.412c0-.534-.832-.536-.832 0s.832.536.832 0Zm-1.587 1.345c0-.534-.833-.536-.833 0s.833.536.833 0Zm23.115-.38c0 .27.415.27.415 0 0-.266-.415-.266-.415 0Zm-2.07-.78c0 .268.416.268.416 0s-.415-.268-.415 0Zm-2.114-.921c0 .269.415.269.415 0 0-.265-.415-.267-.415 0Zm-1.748-.78c0 .267.415.267.415 0 0-.27-.415-.27-.415 0Zm-1.747-.599c0 .27.415.27.415 0 0-.267-.416-.267-.416 0Zm-1.517-.596c0 .267.415.267.415 0 0-.27-.415-.27-.415 0Zm11.934 3.92a.208.208 0 0 0 .192-.127c.004-.01.002-.02.006-.033.003-.006.01-.01.013-.017a.208.208 0 0 0-.113-.27l-13.565-5.605a.212.212 0 0 0-.27.113v.014l-.01.009a.21.21 0 0 0 .113.273L32.46 35.67a.174.174 0 0 0 .08.017ZM0 52.93c0 .044.015.079.035.108a.206.206 0 0 0 .053.102c.177.176.442-.068.32-.256-.047-.22-.408-.205-.408.046Zm.807-3.275c0-.269-.415-.269-.415 0 0 .267.415.265.415 0Zm1.058-2.46c0-.27-.415-.27-.415 0 0 .266.415.266.415 0Zm1.38-2.253c0-.272-.415-.27-.415 0 0 .265.415.265.415 0Zm1.725-2.026c0-.266-.415-.266-.415 0 0 .27.415.268.415 0Zm11.165 2.049c0-.536-.833-.536-.833 0s.833.533.833 0Zm-1.898-.484c0-.536-.832-.536-.832 0s.832.536.832 0Zm-1.654-.55c0-.537-.832-.537-.832 0 0 .535.832.533.832 0Zm-1.519-.898c0-.536-.832-.536-.832 0 0 .534.832.534.832 0Zm-2.246-1.072c0 .536.832.536.832 0s-.832-.534-.832 0ZM7.44 40.55c0 .536.832.534.832 0 0-.536-.832-.536-.832 0Zm-1.588-1.347c0 .536.833.536.833 0s-.833-.534-.833 0Zm23.948.382c0 .267.415.267.415 0 0-.27-.415-.27-.415 0Zm-2.07.78c0 .269.416.269.416 0 0-.267-.415-.267-.415 0Zm-2.114.922c0 .267.415.264.415 0 0-.27-.415-.27-.415 0Zm-1.748.78c0 .269.415.269.415 0 0-.267-.415-.267-.415 0Zm-1.747.598c0 .267.415.267.415 0 0-.269-.416-.269-.416 0Zm-1.517.597c0 .269.415.269.415 0 0-.267-.415-.267-.415 0Zm-.14-2.972c.83.154 1.66.4 2.514.373.738-.023 1.355-.332 1.958-.728.695-.455 1.341-.976 2.006-1.468.35-.261.714-.52 1.093-.745h-4.167l.84.636a.215.215 0 0 1 .082.167.215.215 0 0 1-.042.125.21.21 0 0 1-.292.04l-1.276-.968h-2.663l1.622 1.335a.2.2 0 0 1 .075.159.216.216 0 0 1-.046.133.21.21 0 0 1-.294.027l-2.01-1.654h-2.165l1.308 1.008c.054.04.08.102.08.164a.203.203 0 0 1-.043.125.205.205 0 0 1-.29.04l-1.74-1.337h-2.202l1.53 1.193a.206.206 0 0 1 .035.29.207.207 0 0 1-.292.038l-1.942-1.515-.017-.006H11.88l1.983 1.667a.21.21 0 0 1 .075.158.21.21 0 0 1-.344.16l-2.359-1.983-.006-.002H9.463c.78.365 1.497.916 2.064 1.466 1.152 1.116 2.411 2.603 4.205 2.086.793-.23 1.49-.703 2.276-.953.803-.257 1.637-.186 2.456-.031ZM9.463 37.306h1.766l.006-.002 2.36-1.983a.207.207 0 0 1 .293.027.2.2 0 0 1 .05.133.212.212 0 0 1-.075.159l-1.983 1.666h2.246c.004-.002.01-.006.017-.006l1.942-1.514a.208.208 0 0 1 .292.035.22.22 0 0 1 .043.13c0 .06-.027.123-.079.162l-1.529 1.193h2.203l1.74-1.337a.204.204 0 0 1 .29.038.22.22 0 0 1 .043.127.202.202 0 0 1-.081.165l-1.308 1.007h2.165l2.01-1.656a.207.207 0 0 1 .34.16.203.203 0 0 1-.075.161l-1.622 1.335h2.663l1.276-.968a.207.207 0 0 1 .334.165c0 .065-.03.125-.081.167l-.84.636h4.166c-.38-.225-.742-.484-1.093-.744-.665-.493-1.311-1.016-2.006-1.469-.603-.396-1.22-.705-1.958-.728-.853-.027-1.684.22-2.514.374-.82.154-1.653.225-2.456-.032-.787-.252-1.483-.723-2.276-.95-1.794-.52-3.053.967-4.205 2.083-.567.548-1.284 1.101-2.064 1.466Zm11.767 3.562c-.826-.169-1.677-.39-2.526-.281-.849.108-1.587.59-2.363.91-.755.308-1.55.412-2.33.135-.767-.271-1.414-.801-1.991-1.358-.664-.636-1.258-1.285-2.046-1.775-.614-.382-1.312-.709-2.042-.772-.167.009-.334.01-.503-.006-.102.01-.165-.046-.188-.12a.204.204 0 0 1 0-.174c.023-.075.086-.131.188-.12.169-.018.336-.016.503-.007.73-.063 1.428-.39 2.042-.772.788-.49 1.382-1.14 2.046-1.775.577-.559 1.224-1.086 1.991-1.358.78-.277 1.575-.173 2.33.136.776.32 1.514.801 2.363.91.849.108 1.7-.113 2.526-.282.803-.165 1.637-.309 2.45-.121.645.148 1.22.52 1.757.893.625.433 1.22.909 1.835 1.36.52.379 1.066.782 1.673 1.009.008 0 .014.004.02.006h2.533c.116 0 .208.092.208.209a.206.206 0 0 1-.208.206h-2.532c-.007.002-.013.006-.021.006-.607.228-1.154.63-1.673 1.01-.615.448-1.21.924-1.835 1.36-.536.37-1.112.744-1.757.892-.813.188-1.647.044-2.45-.12ZM2.68 55.18c.19.188.484-.106.294-.294-.188-.19-.482.104-.294.294Zm2.488.99c.19.19.484-.103.294-.293-.19-.188-.484.104-.294.294Zm2.57.62c.19.188.484-.106.294-.294-.19-.19-.484.102-.294.294Zm2.649.21c.191.189.486-.105.294-.293-.188-.19-.482.104-.294.294Zm6.742-9.635c-.377-.38-.967.209-.588.588.38.378.966-.208.588-.588Zm-1 1.681c-.378-.377-.966.21-.589.59.38.378.968-.208.588-.59Zm-.78 1.562c-.378-.38-.968.209-.587.589.376.38.966-.209.586-.589Zm-.44 1.707c-.378-.378-.966.21-.587.588.378.38.968-.209.586-.588Zm-.243 1.758c-.38-.38-.967.206-.588.588.378.377.966-.21.588-.588Zm-.565 2.563c.38.377.968-.21.588-.588-.377-.38-.965.206-.588.588Zm.42 1.483c-.38-.378-.968.21-.589.588.378.38.966-.209.588-.588Zm16.076-16.612c.19.187.483-.107.294-.294-.19-.19-.484.104-.294.294Zm-2.015.909c.188.19.482-.104.294-.294-.19-.19-.484.104-.294.294Zm-2.148.845c.19.191.483-.103.294-.292-.188-.192-.482.102-.294.292Zm-1.788.684c.19.19.484-.105.294-.294-.188-.19-.482.104-.294.294Zm-1.658.813c.188.188.484-.104.294-.294-.188-.19-.484.104-.294.294Zm-1.495.65c.19.189.484-.105.294-.293-.19-.19-.484.104-.294.294Zm11.256-5.891c-.002-.009-.01-.015-.015-.023l-.004-.027a.207.207 0 0 0-.271-.11l-13.555 5.626a.21.21 0 0 0-.112.274c0 .002.006.004.008.008v.015a.21.21 0 0 0 .194.127.172.172 0 0 0 .077-.017l13.565-5.602a.208.208 0 0 0 .113-.271Zm-12.9 32.832c.19.188.484-.106.294-.294-.19-.19-.482.104-.294.294Zm-.99-2.488c.19.188.483-.106.294-.294-.19-.19-.484.104-.294.294Zm-.618-2.57c.19.19.484-.104.294-.293-.192-.19-.484.106-.294.293Zm.082-2.944c-.19-.188-.482.106-.295.294.192.19.484-.105.295-.294Zm9.341-6.447c-.38-.378-.966.21-.588.588.38.38.966-.209.588-.588Zm-1.683 1c-.378-.38-.966.208-.588.588.38.378.968-.21.588-.588Zm-1.56.78c-.38-.38-.968.209-.588.588.377.378.965-.21.588-.588Zm-2.296 1.026c.381.38.967-.208.588-.588-.378-.377-.966.209-.588.588Zm-1.754.244c.377.38.965-.21.586-.588-.378-.38-.966.21-.586.588Zm-1.976-.023c.378.378.966-.21.589-.588-.382-.38-.968.209-.589.588Zm-2.075.171c.38.378.968-.21.588-.588-.377-.382-.963.209-.588.588Zm17.205-16.666c.188.188.482-.107.294-.294-.192-.19-.486.104-.294.294Zm-.912 2.014c.19.19.484-.102.294-.294-.19-.19-.483.105-.294.294Zm-.844 2.149c.187.188.482-.107.294-.294-.19-.19-.484.104-.294.294Zm-.684 1.785c.19.192.483-.102.294-.292-.188-.19-.482.104-.294.292Zm-.812 1.66c.188.19.482-.104.292-.294s-.484.105-.292.294Zm-.358 1.202c-.188-.19-.482.104-.294.294.19.19.483-.105.294-.294Zm-7.77 21.378c-.187-.12-.431.144-.256.32a.186.186 0 0 0 .102.053c.03.02.063.033.109.033.25 0 .262-.359.045-.406Zm3.231-.4c-.269 0-.269.414 0 .414.267 0 .267-.415 0-.415Zm2.46-1.058c-.268 0-.268.415 0 .415.266 0 .268-.415 0-.415Zm2.254-1.379c-.27 0-.27.415 0 .415.267 0 .267-.415 0-.415Zm2.023-1.725c-.27 0-.27.415 0 .415.267 0 .267-.415 0-.415Zm-2.046-11.164c-.536 0-.536.832 0 .832.534 0 .536-.832 0-.832Zm.482 1.898c-.534 0-.536.832 0 .832s.536-.832 0-.832Zm.552 1.656c-.536 0-.536.83 0 .83.534 0 .536-.83 0-.83Zm.897 1.516c-.536 0-.536.832 0 .832.534 0 .536-.832 0-.832Zm1.068 1.414c-.534 0-.536.832 0 .832s.536-.832 0-.832Zm1.414 1.379c-.534 0-.536.832 0 .832.534 0 .536-.832 0-.832Zm1.345 1.587c-.534 0-.536.832 0 .832s.536-.832 0-.832Zm-.377-23.115c.265 0 .267-.418 0-.418-.27 0-.27.418 0 .418Zm-.784 2.069c.269 0 .269-.418 0-.418-.265 0-.267.417 0 .417Zm-.92 2.114c.269 0 .269-.415 0-.415-.267 0-.267.415 0 .415Zm-.78 1.333c-.27 0-.27.415 0 .415.267 0 .267-.415 0-.415Zm-.599 1.748c-.267 0-.267.415 0 .415s.27-.415 0-.415Zm-.596 1.516c-.27 0-.27.417 0 .417.265 0 .265-.417 0-.417Zm3.794-11.71c-.01-.005-.02-.003-.028-.007-.008-.002-.014-.01-.023-.015a.207.207 0 0 0-.27.115l-5.605 13.563a.206.206 0 0 0 .115.271c.002.002.006.002.01.004.005 0 .006.005.01.007a.21.21 0 0 0 .273-.113l5.63-13.553a.21.21 0 0 0-.112-.273Zm14.092 31.92c-.267 0-.267.415 0 .415s.267-.415 0-.415Zm-2.459-1.057c-.267 0-.267.415 0 .415s.267-.415 0-.415Zm-2.254-1.379c-.267 0-.267.415 0 .415.269 0 .269-.415 0-.415Zm-2.023-1.725c-.27 0-.267.415 0 .415s.267-.415 0-.415Zm2.046-10.332c.536 0 .536-.832 0-.832s-.534.832 0 .832Zm-.482 1.898c.536 0 .536-.832 0-.832s-.534.832 0 .832Zm-.553.824c-.536 0-.534.83 0 .83.536 0 .536-.83 0-.83Zm-.897 1.516c-.536 0-.534.832 0 .832.536 0 .536-.832 0-.832Zm-1.068 1.414c-.536 0-.536.832 0 .832s.534-.832 0-.832Zm-1.416 1.379c-.536 0-.534.832 0 .832.536 0 .536-.832 0-.832Zm-1.343 1.587c-.536 0-.536.832 0 .832s.536-.832 0-.832Zm.38-23.533c-.27 0-.27.418 0 .418.267 0 .267-.418 0-.418Zm.78 2.07c-.267 0-.267.416 0 .416.269 0 .269-.417 0-.417Zm.922 2.116c-.27 0-.27.415 0 .415.267 0 .267-.415 0-.415Zm.782 1.748c-.27 0-.27.415 0 .415.267 0 .265-.415 0-.415Zm.596 1.748c-.267 0-.267.415 0 .415.27 0 .267-.415 0-.415Zm.599 1.516c-.27 0-.27.417 0 .417.267 0 .267-.417 0-.417Zm-1.99 5.287c-.23-.792-.703-1.489-.953-2.273-.257-.807-.186-1.64-.031-2.46.156-.83.4-1.661.373-2.514-.023-.737-.332-1.352-.728-1.957-.455-.694-.976-1.34-1.468-2.006a13.75 13.75 0 0 1-.745-1.093v4.167l.636-.838a.21.21 0 0 1 .165-.084.209.209 0 0 1 .167.334l-.968 1.276v2.662l1.333-1.619a.202.202 0 0 1 .16-.077c.048 0 .094.015.132.048.09.073.102.202.03.292l-1.655 2.01v2.168l1.008-1.31a.205.205 0 0 1 .164-.082.22.22 0 0 1 .128.042.21.21 0 0 1 .037.292l-1.337 1.74v2.202l1.191-1.529a.21.21 0 0 1 .292-.035c.092.07.109.2.038.292l-1.514 1.941a.142.142 0 0 1-.007.017v2.246l1.667-1.983a.206.206 0 0 1 .294-.025.21.21 0 0 1 .025.294l-1.984 2.359c-.002.002-.002.004-.002.006v1.769c.367-.782.918-1.5 1.466-2.067 1.118-1.154 2.603-2.411 2.086-4.205Zm-3.967 6.272V63.8c-.002-.002-.002-.004-.002-.006l-1.983-2.359a.21.21 0 0 1 .16-.344c.059 0 .117.025.159.075l1.666 1.983v-2.246l-.006-.017-1.514-1.941a.208.208 0 0 1 .327-.257l1.193 1.529v-2.202l-1.337-1.74a.21.21 0 0 1 .038-.292.221.221 0 0 1 .127-.042c.06 0 .123.027.165.082l1.007 1.31v-2.167l-1.656-2.011a.206.206 0 0 1 .032-.292.205.205 0 0 1 .292.03l1.332 1.618v-2.662l-.968-1.276a.207.207 0 0 1 .165-.334c.063 0 .125.03.167.084l.636.838v-4.167c-.225.38-.484.74-.744 1.093-.493.665-1.014 1.312-1.469 2.006-.396.605-.705 1.22-.728 1.957-.027.853.22 1.685.376 2.515.152.82.22 1.652-.036 2.459-.25.784-.721 1.48-.949 2.273-.519 1.794.968 3.052 2.084 4.205.549.567 1.1 1.285 1.466 2.067Zm4.19-6.879c.309.753.413 1.548.136 2.328-.271.765-.799 1.412-1.356 1.992-.638.66-1.285 1.26-1.777 2.046-.381.61-.709 1.314-.774 2.04.01.168.01.337-.004.504.01.105-.046.165-.12.188a.198.198 0 0 1-.086.02.207.207 0 0 1-.088-.02.166.166 0 0 1-.12-.188v-.002a2.888 2.888 0 0 1-.005-.502c-.065-.726-.392-1.43-.774-2.04-.49-.787-1.14-1.385-1.777-2.046-.557-.58-1.084-1.227-1.355-1.992-.278-.78-.174-1.575.135-2.328.32-.778.801-1.516.91-2.363.11-.85-.111-1.702-.282-2.527-.167-.803-.309-1.638-.123-2.45.15-.646.521-1.221.897-1.76.431-.625.91-1.22 1.357-1.833.382-.519.78-1.066 1.012-1.672 0-.009.002-.015.004-.023V43.53a.208.208 0 1 1 .415 0v2.532a.166.166 0 0 1 .007.023c.229.606.627 1.153 1.009 1.672.448.614.924 1.208 1.36 1.834.371.538.744 1.113.893 1.76.187.811.043 1.645-.121 2.449-.172.825-.393 1.676-.282 2.527.108.847.592 1.585.91 2.363Zm11.388 15.93c-.217.048-.205.407.046.407.046 0 .08-.012.108-.033a.18.18 0 0 0 .1-.052c.178-.177-.066-.44-.254-.321Zm2-2.565c-.188.188.106.482.294.294.19-.19-.104-.484-.294-.294Zm.993-2.488c-.19.188.104.482.294.294.188-.19-.104-.484-.294-.294Zm.617-2.57c-.188.19.107.484.294.294.19-.187-.104-.483-.294-.293Zm.21-2.65c-.187.19.107.484.295.294.19-.188-.104-.482-.294-.294ZM47.368 57.9c-.38.38.209.968.589.588.377-.377-.21-.966-.589-.588Zm1.682 1c-.38.377.209.966.587.588.38-.38-.207-.968-.587-.588Zm1.56.78c-.38.378.21.966.589.588.377-.38-.211-.968-.588-.588Zm1.707.438c-.378.38.21.968.588.588.38-.38-.207-.965-.588-.588Zm1.756.244c-.378.377.21.968.588.588.38-.377-.209-.968-.588-.588Zm1.977-.023c-.38.378.208.966.588.588.378-.38-.21-.967-.588-.588Zm2.073.171c-.38.378.209.966.586.588.38-.38-.209-.97-.586-.588ZM41.509 44.433c.187-.19-.107-.484-.294-.294-.19.187.104.481.294.294Zm.909 2.014c.19-.19-.104-.483-.294-.294-.188.192.106.484.294.294Zm.847 2.149c.188-.19-.107-.484-.294-.294-.19.187.104.481.294.294Zm.682 1.785c.19-.188-.105-.482-.294-.292-.19.19.104.484.294.292Zm.813 1.66c.188-.19-.106-.484-.294-.294-.19.19.104.484.294.294Zm.355 1.202c-.188.19.104.483.294.294.19-.19-.102-.484-.294-.294Zm-5.325-10.85a.206.206 0 0 0-.271-.115c-.008.005-.015.013-.023.015-.008.004-.019.002-.025.006a.209.209 0 0 0-.115.273l5.63 13.553c.033.08.11.13.191.13a.208.208 0 0 0 .08-.017c.006-.002.008-.007.012-.007.004-.002.009-.002.01-.004a.208.208 0 0 0 .115-.271L39.79 42.393Zm32.265 12.493c-.19.188.107.482.294.294.19-.19-.104-.484-.294-.294Zm-2.488.99c-.188.19.106.485.294.295.19-.19-.104-.482-.294-.294Zm-2.567.62c-.19.188.104.482.294.294.19-.192-.107-.484-.294-.294Zm-2.651.21c-.188.189.106.483.294.295.19-.19-.105-.484-.294-.294Zm-6.447-9.34c-.38.379.21.965.588.587.38-.38-.209-.967-.588-.588Zm.999 1.68c-.378.382.213.968.588.59.38-.38-.208-.967-.588-.59Zm.782 1.562c-.38.38.209.968.588.589.378-.38-.21-.968-.588-.589Zm1.026 2.295c.38-.378-.208-.966-.588-.588-.377.38.21.967.588.588Zm-.344 1.17c-.377.377.209.965.588.588.38-.382-.21-.968-.588-.588Zm.563 2.563c.38-.382-.208-.968-.588-.588-.377.377.213.965.588.588Zm-.417 1.483c-.377.38.21.968.588.588.38-.377-.208-.966-.588-.588ZM44.433 41.507c.19-.19-.102-.484-.294-.294-.188.187.106.481.294.294Zm2.019.909c.19-.19-.107-.484-.294-.294-.192.19.102.484.294.294Zm2.144.845c.19-.19-.104-.484-.294-.292-.19.19.106.483.294.292Zm1.79.684c.189-.19-.105-.484-.295-.294s.104.483.294.294Zm1.657.813c.19-.19-.104-.484-.294-.294s.104.482.294.294Zm1.496.65c.19-.189-.105-.483-.294-.293-.19.188.106.482.294.294Zm21.086 7.476c-.123.188.141.432.319.256a.193.193 0 0 0 .052-.102.197.197 0 0 0 .033-.108c0-.25-.358-.265-.404-.046Zm-.403-3.229c0 .265.417.267.417 0 0-.269-.417-.269-.417 0Zm-1.057-2.46c0 .266.417.266.417 0 0-.27-.417-.27-.417 0Zm-1.379-2.253c0 .265.415.265.415 0 0-.27-.415-.272-.415 0Zm-1.725-2.026c0 .268.415.27.415 0 0-.266-.415-.266-.415 0Zm4.276 8.925a1.049 1.049 0 0 0-1.1-1.547c.33 1.003.506 1.76.558 2.01.227-.088.419-.248.542-.463Zm-.711.868c-.213.14-.872.55-1.813 1.026.307.438.897.584 1.373.317.475-.267.657-.851.44-1.343Zm-2.159 1.197c-.498.242-1.057.488-1.662.72-.084.033-.175.064-.26.093a1.041 1.041 0 0 0 1.329.496c.514-.208.768-.788.593-1.31Zm-2.34.961c-.617.211-1.293.4-2.009.547a1.04 1.04 0 0 0 1.258.627c.515-.145.83-.654.75-1.174Zm-2.373.62c-.668.119-1.36.19-2.063.194a1.036 1.036 0 0 0 1.118.79 1.043 1.043 0 0 0 .945-.985Zm-2.518.181a8.647 8.647 0 0 1-2.063-.321 1.05 1.05 0 0 0 .926 1.116c.532.06 1.012-.29 1.137-.795Zm-8.883 6.503a8.75 8.75 0 0 1 .32 2.063c.504-.127.852-.607.792-1.137a1.049 1.049 0 0 0-1.112-.926Zm.328 2.518a11.994 11.994 0 0 1-.194 2.062 1.05 1.05 0 0 0 .986-.944 1.041 1.041 0 0 0-.793-1.118Zm.269 2.884a1.055 1.055 0 0 0-.53-.455c-.146.714-.34 1.39-.549 2.005a1.049 1.049 0 0 0 1.079-1.55Zm-1.227 1.969a22.322 22.322 0 0 1-.813 1.92 1.048 1.048 0 0 0 1.303-1.399 1.029 1.029 0 0 0-.49-.521Zm-.986 2.27c-.474.94-.887 1.599-1.024 1.812.49.217 1.072.035 1.343-.443a1.051 1.051 0 0 0-.32-1.37Zm-1.433 1.98a20.588 20.588 0 0 1-2.006-.556 1.037 1.037 0 0 0 .747 1.193 1.049 1.049 0 0 0 1.259-.636Zm-2.373-.681a19.928 19.928 0 0 1-1.684-.666c-.083-.035-.166-.077-.254-.114-.073.233-.069.483.025.713.106.26.307.465.567.571a1.041 1.041 0 0 0 1.346-.504Zm-2.334-.972c-.584-.288-1.2-.63-1.806-1.033a1.04 1.04 0 0 0 .446 1.33 1.043 1.043 0 0 0 1.36-.298Zm-2.115-1.243a12.298 12.298 0 0 1-1.596-1.32 1.04 1.04 0 0 0 .232 1.35c.404.332.982.307 1.364-.03Zm-1.913-1.65a8.745 8.745 0 0 1-1.23-1.683 1.05 1.05 0 0 0 .573 1.83c.23.026.46-.028.657-.147Zm-10.876-1.683a8.657 8.657 0 0 1-1.23 1.683 1.05 1.05 0 0 0 1.361-.242c.35-.44.288-1.074-.131-1.441Zm-1.548 2.012c-.498.495-1.04.933-1.595 1.32.38.338.959.364 1.364.032a1.04 1.04 0 0 0 .232-1.352Zm-1.902 1.531c-.609.403-1.224.745-1.806 1.033a1.044 1.044 0 0 0 1.806-1.032Zm-2.207 1.225c-.083.037-.169.079-.252.114a19.94 19.94 0 0 1-1.683.666c.115.231.302.412.54.51a1.051 1.051 0 0 0 1.372-.577c.094-.23.098-.48.023-.713Zm-2.302.905a20.35 20.35 0 0 1-2.007.556 1.048 1.048 0 0 0 1.894.14c.119-.215.155-.457.113-.696Zm-2.413.388c-.14-.215-.553-.872-1.027-1.813a1.047 1.047 0 0 0-.317 1.37c.267.478.854.66 1.344.443Zm-1.198-2.161a21.492 21.492 0 0 1-.719-1.66l-.098-.261c-.217.113-.39.292-.488.521a1.048 1.048 0 0 0 1.306 1.4Zm-.963-2.34a16.712 16.712 0 0 1-.549-2.005 1.043 1.043 0 0 0-.624 1.256 1.05 1.05 0 0 0 1.173.749Zm-.615-2.372a11.984 11.984 0 0 1-.194-2.062 1.041 1.041 0 0 0-.793 1.118c.05.523.476.917.987.944Zm-.188-2.517c.03-.69.127-1.383.321-2.063a1.037 1.037 0 0 0-.722.223 1.039 1.039 0 0 0-.39.703c-.06.53.288 1.01.791 1.137Zm-6.499-8.887c-.68.196-1.37.294-2.06.321a1.05 1.05 0 0 0 1.134.795 1.05 1.05 0 0 0 .926-1.116Zm-2.517.334a12.176 12.176 0 0 1-2.063-.194 1.04 1.04 0 0 0 .943.985c.525.058.995-.293 1.12-.791Zm-2.428-.267a16.13 16.13 0 0 1-2.006-.547 1.047 1.047 0 0 0 1.547 1.079 1.04 1.04 0 0 0 .459-.532Zm-2.426-.695c-.085-.029-.177-.06-.26-.094a20.34 20.34 0 0 1-1.66-.72 1.05 1.05 0 0 0 .594 1.31 1.046 1.046 0 0 0 1.326-.496Zm-2.269-.984c-.94-.476-1.6-.887-1.812-1.026a1.051 1.051 0 0 0 .44 1.343 1.049 1.049 0 0 0 1.372-.317Zm-1.981-1.433a20.9 20.9 0 0 1 .557-2.008 1.056 1.056 0 0 0-1.195.748 1.051 1.051 0 0 0 .638 1.26Zm.173-2.916c.096.24.28.43.507.542.183-.52.402-1.09.667-1.683.038-.081.077-.169.117-.252a1.044 1.044 0 0 0-1.289.59c-.108.257-.11.543-.002.803Zm1.087-2.352c.064.227.204.42.396.559a16.5 16.5 0 0 1 1.03-1.807 1.042 1.042 0 0 0-1.33.448 1.046 1.046 0 0 0-.096.8Zm1.637-1.554c.388-.555.828-1.095 1.32-1.596a1.042 1.042 0 0 0-1.35.23c-.333.406-.308.986.03 1.366Zm1.65-1.913a8.833 8.833 0 0 1 1.683-1.23 1.048 1.048 0 0 0-1.832.571c-.027.234.03.463.149.66ZM7.467 32.69a8.833 8.833 0 0 1-1.683-1.23 1.038 1.038 0 0 0 .241 1.362c.44.35 1.075.288 1.442-.132Zm-2.013-1.547c-.492-.5-.932-1.04-1.32-1.596-.338.38-.363.96-.03 1.367a1.042 1.042 0 0 0 1.35.229Zm-1.53-1.902a16.378 16.378 0 0 1-1.031-1.806 1.034 1.034 0 0 0-.3 1.358 1.05 1.05 0 0 0 1.33.448ZM2.7 27.034c-.04-.083-.08-.17-.117-.252a22.056 22.056 0 0 1-.667-1.683 1.051 1.051 0 0 0 .066 1.912c.234.094.484.1.718.023ZM1.097 24.62c.215.121.457.157.697.115a20.256 20.256 0 0 1-.557-2.009 1.048 1.048 0 0 0-.14 1.894Zm.309-2.3c.212-.14.872-.553 1.812-1.027a1.048 1.048 0 0 0-1.372-.317 1.051 1.051 0 0 0-.44 1.344Zm2.16-1.198a20.375 20.375 0 0 1 1.921-.815 1.04 1.04 0 0 0-1.326-.494c-.517.21-.77.788-.595 1.31Zm2.338-.963c.616-.209 1.292-.4 2.009-.549a1.04 1.04 0 0 0-.459-.527 1.028 1.028 0 0 0-.799-.096 1.036 1.036 0 0 0-.632.498 1.04 1.04 0 0 0-.119.674Zm2.374-.615c.667-.12 1.36-.19 2.063-.197a1.045 1.045 0 0 0-1.12-.79c-.28.027-.53.16-.71.38a1.04 1.04 0 0 0-.233.607Zm2.52-.186c.688.025 1.38.125 2.06.32a1.05 1.05 0 0 0-.926-1.113 1.045 1.045 0 0 0-1.135.793Zm8.88-6.501a8.865 8.865 0 0 1-.321-2.063c-.223.057-.423.18-.57.363a1.053 1.053 0 0 0-.22.774c.064.559.556.957 1.111.926Zm-.327-2.517c.002-.703.075-1.396.194-2.063a1.03 1.03 0 0 0-.607.233c-.22.178-.353.43-.38.71-.029.28.054.554.234.77.146.176.34.295.559.35Zm-.267-2.887c.119.213.304.37.527.457.146-.713.34-1.39.549-2.007a1.04 1.04 0 0 0-1.172.75c-.077.272-.042.556.096.8Zm1.224-1.967a21.483 21.483 0 0 1 .816-1.92 1.053 1.053 0 0 0-.745.02 1.048 1.048 0 0 0-.07 1.9Zm.986-2.269c.474-.94.887-1.598 1.027-1.812a1.046 1.046 0 0 0-1.026 1.812Zm1.433-1.981c.249.054 1.006.227 2.007.557A1.039 1.039 0 0 0 23.989.6a1.048 1.048 0 0 0-1.262.636Zm2.374.68c.52.181 1.09.4 1.683.667.083.036.169.077.252.115a1.045 1.045 0 0 0-.588-1.287 1.06 1.06 0 0 0-.807-.004c-.238.098-.425.28-.54.509Zm2.336.974c.582.287 1.197.63 1.806 1.032a1.05 1.05 0 0 0 .05-.697 1.052 1.052 0 0 0-1.295-.73c-.23.065-.424.205-.561.395Zm2.113 1.243c.554.388 1.097.826 1.595 1.32a1.04 1.04 0 0 0-.231-1.352 1.05 1.05 0 0 0-1.364.032Zm1.912 1.65a8.54 8.54 0 0 1 1.23 1.683c.42-.368.482-1.002.132-1.442a1.05 1.05 0 0 0-1.362-.242Zm10.524 1.015c.03.26.157.497.353.67a8.612 8.612 0 0 1 1.23-1.686 1.05 1.05 0 0 0-1.362.242 1.035 1.035 0 0 0-.22.774Zm1.752-1.985a1.04 1.04 0 0 0 .148.64 12.27 12.27 0 0 1 1.596-1.32 1.05 1.05 0 0 0-1.744.68Zm2.053-.891a16.366 16.366 0 0 1 1.806-1.032 1.058 1.058 0 0 0-.561-.395 1.046 1.046 0 0 0-.8.096 1.04 1.04 0 0 0-.445 1.331Zm2.204-1.224c.086-.038.169-.08.252-.115a20.473 20.473 0 0 1 1.684-.667 1.042 1.042 0 0 0-1.346-.505 1.037 1.037 0 0 0-.59 1.287Zm2.303-.905a20.762 20.762 0 0 1 2.006-.557 1.049 1.049 0 0 0-1.894-.14 1.027 1.027 0 0 0-.112.697Zm2.415-.388c.137.212.55.871 1.024 1.812.436-.307.584-.897.319-1.372a1.052 1.052 0 0 0-1.343-.44Zm1.197 2.16a22.313 22.313 0 0 1 .813 1.921 1.05 1.05 0 0 0-.073-1.9 1.03 1.03 0 0 0-.74-.02Zm1.635 2.457a1.024 1.024 0 0 0-.674-.117c.21.616.403 1.292.549 2.005a1.05 1.05 0 0 0 .53-.457 1.055 1.055 0 0 0-.405-1.43Zm.55 2.488a1.046 1.046 0 0 0-.608-.233c.119.667.192 1.36.194 2.063a1.051 1.051 0 0 0 .415-1.83Zm-.423 2.286a8.75 8.75 0 0 1-.319 2.061 1.053 1.053 0 0 0 1.112-.926 1.05 1.05 0 0 0-.793-1.135Zm6.501 8.881a8.627 8.627 0 0 1 2.061-.319 1.051 1.051 0 0 0-1.135-.793c-.28.032-.527.171-.705.39a1.06 1.06 0 0 0-.22.722Zm2.518-.327c.703.004 1.395.075 2.063.194a1.04 1.04 0 0 0-.945-.987 1.065 1.065 0 0 0-.77.232 1.038 1.038 0 0 0-.348.56Zm2.427.26c.716.148 1.392.34 2.009.549a1.03 1.03 0 0 0-.119-.674 1.036 1.036 0 0 0-.632-.498 1.037 1.037 0 0 0-.799.096 1.04 1.04 0 0 0-.459.527Zm2.426.697a21.084 21.084 0 0 1 1.923.816c.175-.522-.08-1.1-.594-1.31a1.042 1.042 0 0 0-1.329.494Zm2.27.986c.94.476 1.599.887 1.812 1.027a1.051 1.051 0 0 0-.44-1.344 1.05 1.05 0 0 0-1.373.317Zm1.98 1.433a20.244 20.244 0 0 1-.556 2.009c.24.041.484.006.696-.115a1.055 1.055 0 0 0 .403-1.433 1.057 1.057 0 0 0-.542-.46Zm-.17 2.916c-.098-.24-.28-.43-.511-.542a21.139 21.139 0 0 1-.78 1.935c.233.075.484.071.713-.023a1.054 1.054 0 0 0 .578-1.37Zm-1.483 1.794a17.04 17.04 0 0 1-1.033 1.806 1.05 1.05 0 0 0 1.33-.448 1.05 1.05 0 0 0-.297-1.358Zm-.979 2.707a1.042 1.042 0 0 0-.264-.595 12.322 12.322 0 0 1-1.323 1.596 1.05 1.05 0 0 0 1.587-1.001Zm-1.914 1.318a8.849 8.849 0 0 1-1.685 1.23 1.05 1.05 0 0 0 1.833-.57 1.035 1.035 0 0 0-.148-.66Zm-1.685 10.877a8.849 8.849 0 0 1 1.685 1.23 1.037 1.037 0 0 0-.242-1.362 1.051 1.051 0 0 0-1.443.132Zm2.657 1.4c-.227-.022-.45.03-.643.15.493.498.933 1.038 1.32 1.59a1.05 1.05 0 0 0 .032-1.363 1.05 1.05 0 0 0-.71-.378Zm.888 2.05c.403.608.743 1.224 1.033 1.806a1.04 1.04 0 0 0 .392-.56 1.036 1.036 0 0 0-.094-.798 1.04 1.04 0 0 0-1.33-.449Zm1.225 2.206.114.252c.265.593.484 1.162.666 1.684a1.046 1.046 0 0 0-.78-1.936Zm.999 4.157c-.013-.063-.03-.13-.048-.205l-.032.17.08.035Zm-.322.45c.07-.037.128-.075.182-.108l-.083-.034-.099.142Zm-.94.53c.117-.063.227-.121.331-.18l.413-.615-.162-.066-.582.861Zm-1 .498c.147-.068.29-.135.426-.204l.862-1.279-.23-.098-1.057 1.581Zm-1.14.495c.208-.084.407-.167.603-.25l1.301-1.947-.25-.104-1.654 2.3Zm-.932.344c.135-.048.27-.094.402-.144l1.888-2.624-.238-.098-2.052 2.866Zm-1.039.319c.183-.05.363-.102.54-.157l2.257-3.153-.328-.133-2.469 3.443Zm-.828.2c.12-.025.24-.052.359-.081l2.642-3.686-.396-.166-2.605 3.933Zm-.86.155c.147-.021.286-.046.43-.07l2.74-4.14-.5-.21-2.67 4.42Zm-.998.106c.2-.013.402-.03.605-.052l2.771-4.595-.448-.188-2.928 4.835Zm-2.044-.088c.217.034.436.06.655.078l3.172-5.302-.488-.203-3.34 5.427Zm-1.041-.237c.236.07.471.13.71.179l3.38-5.49-.58-.241-3.51 5.552ZM55.247 65.27l-4.833 2.93.188.448 4.593-2.772c.023-.202.04-.402.052-.606Zm-.259 1.86-3.933 2.605.167.398 3.685-2.644c.03-.12.054-.238.081-.36Zm-.202.828-3.443 2.47.137.327 3.15-2.257c.054-.177.108-.357.156-.54Zm-.32 1.04-2.863 2.05.098.239 2.624-1.886c.048-.131.096-.267.142-.402Zm-.343.933-2.299 1.652.105.248 1.944-1.3c.085-.193.168-.396.25-.6Zm-.492 1.139-1.58 1.055.097.232 1.276-.862c.069-.133.138-.28.206-.425Zm-.499 1-.861.58.066.163.618-.413c.056-.102.117-.212.177-.33Zm-.53.941-.141.096.033.082a6.02 6.02 0 0 0 .108-.178Zm-.655.271c.075.02.142.036.203.05l-.034-.083-.169.033Zm-1.04-.291c.127.04.248.075.36.108l.728-.144-.069-.163-1.02.199Zm-1.06-.355c.152.054.305.108.447.156l1.514-.294-.096-.231-1.865.369Zm-1.155-.457c.204.088.406.171.602.248l2.297-.454-.105-.25-2.794.456Zm-.901-.415c.129.063.256.125.386.184l3.188-.522-.098-.237-3.476.575Zm-.96-.509c.163.092.328.182.492.27l3.824-.633-.136-.327-4.18.69Zm-.728-.444c.105.067.207.133.311.196l4.476-.738-.165-.397-4.622.94Zm-.717-.498c.117.087.236.17.352.254l4.868-.989-.208-.502-5.012 1.237Zm-.782-.632c.152.131.306.264.465.39l5.208-1.287-.186-.45-5.487 1.347Zm-.278-.255 5.646-1.383-.233-.565-5.876 1.477c.15.16.303.319.463.471Zm-1.105-1.253c.13.18.265.352.409.519l5.99-1.506-.203-.488-6.196 1.475Zm-.57-.901c.115.215.24.423.376.625l6.272-1.49-.24-.58-6.407 1.445Zm-10.271 0-6.41-1.446-.237.58 6.271 1.491a7.72 7.72 0 0 0 .376-.625Zm-.57.9-6.198-1.474-.2.488 5.992 1.506c.142-.167.277-.34.406-.52Zm-1.382 1.509-5.49-1.348-.185.45 5.21 1.288c.158-.125.312-.259.465-.39Zm-.783.632-5.011-1.237-.207.502 4.866.989c.117-.083.236-.167.352-.254Zm-.715.498-4.624-.939-.163.397 4.474.738c.104-.063.209-.13.313-.196Zm-.73.444-4.18-.69-.133.327 3.823.632c.163-.087.325-.177.49-.269Zm-.96.51-3.476-.576-.098.237 3.189.522c.13-.059.256-.121.386-.184Zm-.902.414-2.793-.456h-.002l-.102.25 2.296.454c.196-.077.396-.16.6-.248Zm-1.154.457-1.864-.37-.096.232 1.514.294c.144-.047.294-.102.446-.156Zm-1.061.355-1.02-.199-.067.163.726.144c.117-.033.235-.069.36-.108Zm-1.241.342a8.69 8.69 0 0 1 .202-.05l-.169-.034-.033.084Zm-.455-.322c.042.067.077.126.108.178l.038-.082-.146-.096Zm-.53-.94.182.33.615.412.069-.162-.866-.58Zm-.498-1.003c.07.148.137.292.204.427l1.28.862.097-.232-1.581-1.057Zm-.492-1.14c.08.207.166.41.25.604l1.946 1.299.104-.248-2.3-1.654Zm-.345-.93c.046.134.094.27.142.401l2.626 1.888.098-.238-2.866-2.05Zm-.319-1.04c.05.181.103.363.157.54l3.151 2.257.138-.328-3.446-2.47Zm-.2-.828c.027.12.052.24.082.359l3.687 2.644.165-.398-3.934-2.605Zm-.26-1.86c.014.204.029.404.052.606l4.594 2.772.188-.448-4.835-2.93Zm-6.94-10.348-3.51-5.551-.58.242 3.381 5.489c.238-.046.476-.109.71-.18Zm-1.038.238-3.341-5.427-.49.203 3.174 5.304c.219-.02.438-.046.657-.08Zm-2.044.088-2.93-4.835-.451.188 2.774 4.595c.202.023.405.04.607.052Zm-1.003-.106L6.09 50.72l-.503.21 2.743 4.14c.142.026.286.049.428.07Zm-.858-.155-2.605-3.933-.398.166 2.645 3.686c.119.029.24.056.358.081Zm-.83-.2-2.467-3.443-.327.133 2.258 3.154c.176.054.355.106.536.156Zm-1.036-.32-2.055-2.865-.235.098 1.887 2.624c.132.05.265.096.403.144Zm-.932-.343-1.654-2.3-.25.103L4.5 53.873c.192.083.394.166.6.25Zm-1.14-.495-1.057-1.58-.233.097.861 1.279c.138.069.282.136.43.204ZM2.96 53.13l-.582-.861-.161.066.41.616.333.179Zm-1.118-.638c.052.033.11.07.177.108l-.096-.142-.081.034Zm-.144-.342.083-.036-.033-.169c-.019.075-.036.142-.05.205Zm.538-1.859.296 1.515.231-.096-.37-1.865c-.055.152-.107.303-.157.446Zm.367-.999.455 2.297.25-.105-.457-2.794c-.09.204-.17.406-.248.602Zm.48-1.12.521 3.191.238-.098-.576-3.479c-.065.13-.125.26-.183.386Zm.423-.853.632 3.825.325-.135-.688-4.18c-.094.16-.183.328-.269.49Zm.957-1.583.989 4.866.503-.206-1.24-5.012c-.085.117-.17.233-.252.352Zm.497-.67 1.287 5.21.448-.187-1.343-5.487a9.26 9.26 0 0 0-.392.465Zm.644-.742L6.99 49.97l.563-.231-1.476-5.876c-.163.146-.322.3-.472.461Zm.734-.696 1.504 5.99.49-.2-1.474-6.201a8.989 8.989 0 0 0-.52.41Zm.795-.603 1.491 6.272.582-.24L7.76 42.65c-.213.116-.426.24-.626.375Zm7.698 4.355c.117-.155.24-.303.365-.453l-.067.027-1.55.647.639.836a5.64 5.64 0 0 1 .613-1.057Zm-.75 1.39-.8-1.046-.544.227 1.13 1.492c.059-.23.132-.455.213-.672Zm-4.456.479 3.533 5.59c.02-.255.036-.508.055-.764l-3.114-5.023-.474.197Zm-.602-5.922 1.238 5.294.507-.207-.957-4.432c-.267-.215-.53-.434-.788-.655Zm1.276 1.043a1.222 1.222 0 0 1-.102-.081l.865 4.004.518-.215-.758-3.322c-.177-.127-.354-.252-.523-.386Zm1.668 1.189c-.254-.175-.508-.348-.76-.526l.664 2.927.443-.184-.296-2.188-.05-.029Zm.393.242.252 1.852.546-.223-.173-1.306a6.836 6.836 0 0 1-.625-.323Zm1.06 6.109c.028-.215.066-.428.1-.642l-1.815-2.885-.518.215 2.218 3.441c.006-.042.01-.087.014-.13Zm-3.031-2.98 2.867 4.621c.027-.342.06-.682.096-1.02l-2.457-3.812-.506.21Zm3.374.959c.002-.019.009-.036.013-.054l-1.337-1.759-.444.184 1.6 2.54c.053-.304.11-.609.168-.911Zm1.314-3.25a5.813 5.813 0 0 1-1.76-.375l.14 1.043 1.614-.666.006-.002Zm-7.035-4.152 1.456 6.449.471-.194-1.349-5.755-.578-.5ZM4.023 46.41l.739 4.478.398-.165-.94-4.622c-.067.102-.132.207-.197.309Zm-2.092 4.855.144.728.163-.067-.198-1.021c-.04.127-.075.248-.109.36Zm5.202-19.263c.2.136.413.259.626.376l1.447-6.407-.582-.24-1.491 6.271Zm-.795-.603c.167.144.342.28.52.411l1.474-6.2-.49-.2-1.504 5.99Zm-.262-.235 1.476-5.875-.563-.232-1.385 5.646c.15.16.309.313.472.46ZM4.96 29.96c.127.159.256.313.392.465l1.343-5.487-.448-.188-1.287 5.21Zm-.497-.67c.084.12.167.237.255.353l1.237-5.011-.503-.207-.989 4.866Zm-.957-1.584c.086.165.175.33.269.492l.688-4.18-.325-.135-.632 3.823Zm-.423-.853c.058.127.12.256.183.386l.576-3.477-.238-.098-.521 3.189Zm-.48-1.12c.077.198.16.398.248.603l.457-2.793-.25-.104-.455 2.294Zm-.365-1c.048.147.1.295.156.45l.37-1.865-.232-.096-.294 1.512Zm-.54-1.855c.014.062.031.129.05.204l.033-.169-.083-.035Zm.32-.451-.176.108.081.034.096-.142Zm.942-.53c-.117.063-.228.121-.332.18l-.411.615.16.067.583-.862Zm1.003-.498c-.148.069-.292.135-.428.204l-.863 1.279.233.098 1.058-1.581Zm1.139-.495c-.207.084-.41.167-.603.253L3.197 23.1l.25.104 1.655-2.3Zm.932-.344c-.138.048-.271.094-.403.144l-1.887 2.624.235.1 2.055-2.868Zm1.036-.319c-.181.05-.36.102-.538.157l-2.256 3.151.327.136L7.07 20.24Zm.83-.198c-.118.023-.24.052-.358.08L4.897 23.81l.398.165L7.9 20.043Zm.858-.156c-.144.02-.286.043-.428.069l-2.743 4.14.503.21 2.668-4.42Zm1-.105c-.2.01-.404.027-.604.053L6.38 24.427l.45.188 2.929-4.833Zm2.047.086a8.983 8.983 0 0 0-.657-.077l-3.172 5.3.488.204 3.34-5.427Zm1.039.236a8.407 8.407 0 0 0-.71-.178l-3.378 5.49.577.242 3.51-5.554Zm.473 8.66a5.814 5.814 0 0 1 1.76-.376l-1.62-.668-.14 1.043Zm-.957.462c.204-.119.413-.227.625-.323l.173-1.306-.546-.223-.252 1.852Zm-1.154.768c.253-.177.507-.35.761-.526l.05-.029.297-2.188-.443-.183-.665 2.926Zm-1.01.742.103-.081c.169-.131.346-.257.524-.384l.757-3.322-.518-.215-.865 4.002Zm-1.173.964c.258-.221.521-.44.788-.655l.957-4.432-.507-.206L9.023 31.7Zm.602-5.921.474.196 3.114-5.023c-.02-.256-.036-.508-.055-.763l-3.533 5.59Zm4.455.477a6.442 6.442 0 0 1-.213-.671l-1.13 1.491.544.227.8-1.047Zm1.116 1.844c-.125-.15-.248-.298-.365-.455a5.552 5.552 0 0 1-.613-1.055l-.638.836 1.616.674Zm-1.94-6.624-2.865 4.622.505.21 2.456-3.812a39.992 39.992 0 0 1-.096-1.02Zm.149 1.512-2.217 3.441.517.215 1.814-2.884c-.033-.215-.07-.428-.1-.643-.004-.041-.008-.085-.014-.129Zm.19 1.239-1.6 2.54.444.184 1.337-1.758c-.004-.02-.01-.036-.013-.055a63.47 63.47 0 0 1-.169-.911ZM2.04 24.121l.198-1.02-.163-.067-.144.726c.034.114.07.235.109.36Zm2.181 4.805.939-4.622-.398-.165-.739 4.478c.065.102.13.205.198.309ZM8.62 32.04l1.35-5.755-.472-.194-1.456 6.45.578-.501ZM19.785 9.759l4.832-2.93-.188-.451-4.592 2.774c-.025.202-.04.402-.052.607Zm.26-1.86 3.932-2.606-.165-.398-3.688 2.645c-.027.119-.054.237-.079.358Zm.2-.83 3.444-2.47-.138-.325-3.15 2.256c-.053.177-.105.357-.156.538Zm.317-1.04 2.866-2.05-.098-.237-2.624 1.885c-.05.131-.096.267-.143.403Zm.345-.932 2.3-1.652-.104-.25-1.944 1.302a28.65 28.65 0 0 0-.252.6Zm.494-1.136 1.579-1.058-.096-.233-1.279.863c-.069.134-.135.28-.204.428Zm.498-1.004.864-.58-.069-.162-.615.41-.18.332Zm.53-.94.144-.096-.035-.081a4.296 4.296 0 0 0-.109.177Zm.657-.271a8.225 8.225 0 0 0-.204-.05l.033.083.171-.033Zm1.039.292c-.128-.04-.246-.075-.361-.109l-.728.144.067.163 1.022-.198Zm1.061.354c-.154-.054-.304-.108-.448-.156l-1.514.294.096.231 1.866-.369Zm1.154.457a21.87 21.87 0 0 0-.603-.248l-2.296.454.102.253 2.797-.459Zm.9.415a32.189 32.189 0 0 0-.383-.186l-3.191.524.098.238 3.477-.576Zm.962.509c-.165-.092-.33-.184-.492-.27l-3.823.633.133.325 4.182-.688Zm.728.444a26.376 26.376 0 0 0-.31-.196l-4.477.738.163.397 4.624-.939Zm.715.499a13.69 13.69 0 0 0-.352-.255l-4.866.989.207.502 5.011-1.236Zm.783.632c-.153-.132-.307-.265-.463-.39l-5.212 1.286.185.451 5.49-1.347Zm.277.254-5.646 1.383.232.565 5.877-1.477a9.83 9.83 0 0 0-.463-.47Zm1.105 1.254a8.262 8.262 0 0 0-.406-.52l-5.992 1.506.2.488 6.198-1.474Zm.57.9a7.542 7.542 0 0 0-.376-.625l-6.271 1.491.238.58 6.409-1.445Zm10.272 0 6.407 1.446.24-.58-6.272-1.491c-.136.2-.26.41-.375.626Zm.569-.9 6.197 1.474.202-.488-5.99-1.506a7.58 7.58 0 0 0-.409.52Zm1.383-1.508 5.487 1.347.186-.45-5.208-1.287c-.159.125-.313.258-.465.39Zm.782-.632 5.012 1.236.208-.502-4.868-.989c-.116.084-.235.167-.352.255Zm.717-.499 4.622.939.165-.397-4.476-.738-.31.196Zm.728-.442 4.18.686.136-.325-3.823-.632c-.165.085-.33.177-.493.271Zm.96-.51 3.477.575.097-.238-3.189-.524c-.127.06-.256.123-.385.186Zm.903-.416 2.792.459.105-.253-2.294-.454c-.197.077-.399.16-.603.248Zm1.153-.457 1.865.37.096-.232-1.512-.294c-.144.048-.294.102-.449.156Zm1.06-.354 1.02.198.068-.163-.727-.144-.361.109Zm1.243-.34c-.06.012-.127.029-.203.048l.17.033.033-.081Zm.452.319a4.19 4.19 0 0 0-.108-.177l-.033.08.141.097Zm.53.943c-.06-.117-.12-.228-.177-.332l-.618-.413-.066.163.861.582Zm.498 1a10.142 10.142 0 0 0-.204-.427l-1.278-.863-.096.233 1.578 1.058Zm.495 1.14a21.04 21.04 0 0 0-.252-.603l-1.944-1.302-.105.25 2.3 1.654Zm.344.93a17.842 17.842 0 0 0-.142-.4l-2.626-1.888-.098.235L54.47 6.03Zm.32 1.04a13.7 13.7 0 0 0-.16-.54L51.48 4.274l-.137.325 3.445 2.471Zm.2.828a9.9 9.9 0 0 0-.082-.358l-3.685-2.645-.167.398 3.933 2.605Zm.258 1.86a9.794 9.794 0 0 0-.052-.606l-4.593-2.774-.188.45 4.833 2.93Zm6.941 10.346 3.51 5.554.58-.242-3.38-5.49a8.602 8.602 0 0 0-.71.178Zm1.04-.236 3.34 5.427.488-.205-3.17-5.3c-.221.018-.44.045-.657.078Zm2.045-.086 2.928 4.833.448-.188-2.772-4.592a8.445 8.445 0 0 0-.604-.053Zm1 .105 2.668 4.42.5-.211-2.74-4.138c-.141-.025-.283-.05-.427-.071Zm.858.156 2.605 3.932.396-.165-2.642-3.688c-.12-.027-.238-.056-.359-.079Zm.828.198 2.47 3.444.327-.136-2.257-3.15c-.177-.056-.356-.106-.54-.158Zm1.04.322 2.05 2.865.239-.1-1.888-2.624c-.131-.05-.267-.096-.4-.142Zm.93.341 1.655 2.301.25-.104-1.301-1.944a18.788 18.788 0 0 0-.603-.253Zm1.142.495 1.057 1.58.23-.097-.862-1.279a21.081 21.081 0 0 0-.425-.204Zm1 .498.58.862.163-.067-.413-.615a20.488 20.488 0 0 0-.33-.18Zm1.119.639a6.541 6.541 0 0 0-.177-.109l.096.142.08-.034Zm.142.341-.08.036.032.169c.018-.075.035-.142.048-.204Zm-.536 1.857-.297-1.512-.231.096.37 1.864c.055-.154.108-.302.158-.448Zm-.368.999-.454-2.294-.25.104.456 2.793c.088-.205.171-.405.248-.603Zm-.48 1.12-.52-3.19-.238.099.575 3.477c.063-.13.125-.259.184-.386Zm-.423.853-.63-3.823-.329.135.688 4.18c.096-.163.184-.327.271-.492Zm-.957 1.585-.989-4.866-.502.207 1.239 5.011c.085-.116.169-.233.252-.352Zm-.496.67-1.287-5.21-.45.187 1.345 5.488c.135-.153.267-.307.392-.466Zm-.645.742-1.385-5.646-.563.232 1.477 5.875c.163-.148.319-.3.471-.461Zm-.734.697-1.506-5.99-.488.2 1.475 6.2a8.96 8.96 0 0 0 .52-.41Zm-.792.602-1.494-6.271-.58.24 1.444 6.407c.217-.117.425-.24.63-.376Zm-7.7-4.357c-.117.157-.243.305-.366.455l1.617-.674-.639-.836a5.66 5.66 0 0 1-.613 1.055Zm.75-1.389.797 1.047.546-.227-1.132-1.491c-.059.23-.13.454-.21.671Zm4.453-.477-3.531-5.59-.054.764 3.116 5.022.469-.196Zm.607 5.92-1.243-5.293-.505.207.957 4.432c.265.215.53.434.791.655Zm-1.278-1.044.102.081-.866-4.002-.517.215.757 3.322c.175.127.352.253.523.384Zm-1.671-1.187c.256.175.51.349.763.526l-.665-2.926-.442.183.296 2.188c.017.01.033.019.048.03Zm-.39-.24-.255-1.854-.544.223.175 1.306c.21.096.42.204.624.325Zm-2.718-.84a5.732 5.732 0 0 1 1.758.375l-.14-1.043-1.618.668Zm1.558-4.628 1.815 2.884.517-.215-2.22-3.44a2.33 2.33 0 0 1-.014.128c-.027.215-.064.428-.098.643Zm3.129 2.338-2.864-4.624c-.03.342-.06.684-.096 1.022l2.455 3.812.505-.21Zm-3.37-.96c-.005.02-.011.036-.013.055l1.335 1.758.442-.184-1.598-2.54c-.054.305-.11.609-.167.911Zm5.718 7.402-1.454-6.448-.475.194 1.35 5.754.58.5Zm4.02-3.923-.737-4.478-.398.165.938 4.622c.067-.104.134-.206.196-.309Zm2.091-4.855-.144-.728-.163.067.2 1.022c.038-.128.076-.248.107-.361ZM46.266 13.315a5.813 5.813 0 0 1 .376 1.76l.002-.006.665-1.614-1.043-.14Zm-.465-.957c.12.204.231.41.325.623l1.306.177.223-.548-1.854-.252Zm-.768-1.154c.178.252.353.507.528.761.01.017.019.034.03.048l2.19.3.18-.444-2.928-.665Zm-.74-1.01.081.1c.132.174.257.351.384.526l3.323.758.212-.52-4-.863Zm-.961-1.176c.22.261.438.524.652.79l4.432.958.209-.507-5.293-1.24Zm11.934 1.116-4.972-3.016-.234.563 5.2 3.112c.008-.219.012-.44.006-.659Zm-.107 1.667c.034-.217.063-.436.08-.655l-5.3-3.173-.205.486 5.425 3.342Zm-.319 1.355-5.59-3.533-.197.474 5.026 3.114c.252-.017.507-.038.761-.055Zm-1.287.096-4.621-2.863-.211.504 3.81 2.455c.34-.035.68-.067 1.022-.096Zm-1.641.167a2.71 2.71 0 0 1 .13-.014l-3.442-2.22-.217.518 2.887 1.814c.214-.035.427-.07.642-.098Zm-1.108.173-2.542-1.597-.184.442 1.757 1.337c.02-.004.037-.01.056-.015.304-.056.607-.113.913-.167Zm-1.357.275-1.492-1.134-.227.546 1.045.8c.217-.084.442-.153.674-.212Zm5.656-1.735-5.49-3.379-.241.578 5.552 3.51c.07-.233.131-.469.179-.709Zm-8.174 3.062c.148-.123.299-.248.455-.363.336-.25.688-.448 1.055-.615l-.836-.64-.645 1.55-.029.068Zm8.143-6.866-4.14-2.743-.209.503 4.42 2.668a10.6 10.6 0 0 0-.071-.428Zm-12.583-.286c.167.19.334.382.498.576l5.757 1.35.196-.474-6.451-1.452Zm-15.897 6.174c.367.167.72.365 1.055.615.157.115.307.24.455.363l-.674-1.619-.836.64Zm-1.005-.348c.23.058.452.127.671.21l1.045-.799-.225-.546-1.491 1.134Zm-1.358-.276c.303.054.607.11.912.167l.054.015 1.758-1.337-.184-.442-2.54 1.597Zm-1.239-.188c.044.005.088.009.13.015.214.027.43.063.642.098l2.884-1.814-.215-.518-3.44 2.22Zm-1.512-.152c.34.03.682.06 1.02.096l3.81-2.455-.208-.504-4.622 2.863Zm-1.287-.096c.255.017.51.038.764.054l5.024-3.113-.198-.474-5.59 3.533Zm-.321-1.355 5.425-3.342-.203-.486-5.301 3.173c.018.219.046.438.079.655Zm11.832-2.783-5.296 1.241.211.507 4.43-.957c.215-.267.432-.53.655-.79Zm-1.045 1.277c.027-.034.056-.067.081-.1l-4.002.863.213.52 3.324-.758c.128-.175.253-.352.384-.525Zm-.661.91-2.926.665.183.444 2.188-.3c.01-.015.017-.032.03-.049.172-.254.348-.508.525-.76Zm-.766 1.152-1.856.253.228.548 1.303-.177c.096-.213.204-.42.325-.623Zm-.465.958-1.043.14.666 1.614.002.004c.019-.19.033-.384.063-.578a5.82 5.82 0 0 1 .312-1.18ZM25.66 9.33l-.242-.578-5.49 3.38c.046.24.109.475.178.708l5.554-3.51Zm.431.163.197.473 5.754-1.35.5-.575-6.45 1.452Zm-6.202-.738 4.42-2.668-.21-.503-4.14 2.743c-.024.142-.05.286-.07.428Zm-.115 2.037 5.197-3.112-.233-.563-4.972 3.016c-.004.22-.002.44.008.66Zm8.991 50.92a5.82 5.82 0 0 1-.313-1.181c-.029-.194-.043-.388-.062-.578l-.01.021-.657 1.598 1.042.14Zm.465.957a6.61 6.61 0 0 1-.325-.624l-1.303-.177-.228.548 1.856.253Zm.766 1.155a82.774 82.774 0 0 1-.526-.763c-.012-.017-.02-.033-.029-.048l-2.188-.3-.183.444 2.926.667Zm.742 1.008c-.025-.034-.054-.067-.081-.1-.131-.174-.256-.35-.384-.526l-3.324-.757-.213.52 4.002.863Zm.962 1.176c-.221-.26-.438-.524-.653-.79l-4.43-.958-.21.507 5.293 1.24Zm-11.934-1.116 4.972 3.016.233-.563-5.199-3.112c-.008.219-.01.44-.006.66Zm.104-1.666a9.84 9.84 0 0 0-.08.655l5.303 3.172.202-.488-5.425-3.34Zm.321-1.358 5.59 3.533.198-.471-5.024-3.114c-.255.016-.51.037-.764.052Zm1.287-.094 4.622 2.864.208-.505-3.81-2.455a55 55 0 0 1-1.02.096Zm1.641-.167a2.33 2.33 0 0 1-.129.015l3.442 2.219.214-.517-2.884-1.815c-.213.034-.428.071-.643.098Zm1.11-.173 2.54 1.598.184-.443-1.758-1.336c-.02.004-.036.01-.055.014-.304.056-.608.113-.911.167Zm1.358-.275 1.489 1.132.227-.544-1.045-.799a6.129 6.129 0 0 1-.671.21Zm2.515-1.327c-.148.123-.298.248-.455.363a5.68 5.68 0 0 1-1.055.615l.836.64.674-1.618Zm-8.174 3.062 5.49 3.379.242-.578-5.554-3.51c-.07.233-.132.47-.178.709Zm.032 3.804 4.14 2.74.208-.5-4.42-2.667c.022.141.045.285.072.427Zm12.582.286-.5-.576-5.754-1.35-.194.474 6.448 1.452Zm15.897-6.174a5.749 5.749 0 0 1-1.055-.615c-.156-.115-.307-.24-.455-.363l.021.05.653 1.569.836-.64Zm1.008.349a5.89 5.89 0 0 1-.674-.21l-1.045.798.227.546 1.492-1.134Zm1.357.275a86.73 86.73 0 0 1-.913-.167l-.054-.014-1.759 1.337.184.442 2.542-1.598Zm1.237.188-.13-.015c-.214-.027-.427-.064-.641-.098l-2.887 1.815.217.517 3.441-2.22Zm1.512.152c-.342-.03-.68-.06-1.022-.096l-3.81 2.455.21.505 4.622-2.864Zm1.287.094c-.254-.015-.509-.036-.761-.052l-5.026 3.114.198.47 5.59-3.532Zm-11.508 4.14 5.293-1.241-.209-.507-4.432.957c-.215.267-.431.53-.652.79Zm1.042-1.276-.081.1 4-.864-.212-.52-3.323.758c-.127.175-.252.352-.384.526Zm.66-.908 2.928-.667-.182-.444-2.19.3c-.01.014-.018.031-.029.048-.175.254-.35.509-.528.763Zm.767-1.155 1.854-.253-.223-.548-1.306.177c-.093.213-.204.42-.325.624Zm3.573 3.026.24.578 5.489-3.379a7.515 7.515 0 0 0-.18-.71l-5.55 3.511Zm.565 1.358 5.3-3.172a8.622 8.622 0 0 0-.08-.655l-5.425 3.339.205.488Zm-3.673-5.342 1.043-.14-.66-1.597-.008-.023a5.813 5.813 0 0 1-.375 1.76Zm2.674 3.821-.196-.473-5.755 1.35c-.166.191-.333.385-.5.575l6.45-1.452Zm6.203.739-4.42 2.667.209.503 4.14-2.743c.027-.142.048-.285.07-.427Zm.116-2.038-5.2 3.112.235.563 4.972-3.016c.004-.219.002-.44-.007-.659Zm3.392-17.966c-1.029-.997-2.203-1.848-3.358-2.69-.18-.13-.08-.455.16-.38 1.202.378 2.474.409 3.715.217 1.072-.169 2.119-.48 3.133-.864.965-.362 1.923-.815 2.623-1.593.353-.39.643-.832.966-1.243a6.028 6.028 0 0 1 1.064-1.062c.63-.49 1.343-.853 2.085-1.138-.742-.288-1.456-.653-2.085-1.141a6.042 6.042 0 0 1-1.064-1.062c-.323-.41-.613-.853-.966-1.243-.7-.78-1.658-1.23-2.623-1.595-1.014-.382-2.061-.695-3.133-.862-1.241-.192-2.513-.16-3.715.217-.24.075-.34-.25-.16-.38 1.155-.842 2.33-1.693 3.358-2.69-1.433.023-2.864.25-4.276.474-.219.033-.377-.265-.156-.382 1.118-.586 2.04-1.462 2.78-2.474.64-.878 1.16-1.84 1.606-2.826.425-.938.782-1.937.728-2.982-.027-.526-.134-1.041-.198-1.564a6.13 6.13 0 0 1 .002-1.502c.102-.793.346-1.554.67-2.282-.729.325-1.49.572-2.283.672a6.08 6.08 0 0 1-1.501 0c-.522-.063-1.037-.17-1.562-.196-1.047-.055-2.042.302-2.98.727-.99.449-1.95.966-2.827 1.607-1.014.742-1.89 1.662-2.473 2.78-.12.223-.42.062-.384-.157.22-1.412.45-2.843.473-4.275-.997 1.03-1.848 2.202-2.688 3.357-.132.18-.457.08-.382-.16.378-1.204.409-2.474.217-3.715-.167-1.074-.48-2.119-.863-3.134-.363-.964-.816-1.921-1.594-2.622-.39-.352-.83-.642-1.245-.968a6.067 6.067 0 0 1-1.06-1.06c-.49-.631-.852-1.345-1.138-2.09-.286.745-.653 1.459-1.141 2.09a6.064 6.064 0 0 1-1.06 1.06c-.415.326-.855.616-1.247.968-.778.7-1.228 1.658-1.593 2.622-.382 1.015-.695 2.06-.86 3.134-.194 1.241-.162 2.511.213 3.715.075.24-.248.34-.38.16-.838-1.155-1.69-2.327-2.688-3.357.023 1.432.25 2.863.474 4.275.033.22-.267.38-.382.157-.586-1.118-1.462-2.038-2.476-2.78-.876-.64-1.837-1.158-2.824-1.607-.94-.425-1.935-.782-2.982-.727-.526.027-1.043.133-1.564.196-.501.062-1 .062-1.5 0-.793-.1-1.556-.347-2.282-.672.322.728.57 1.49.67 2.282a5.938 5.938 0 0 1 0 1.502c-.063.523-.17 1.038-.196 1.564-.054 1.045.302 2.044.728 2.982.446.987.965 1.948 1.606 2.826.74 1.012 1.662 1.888 2.778 2.474.223.117.066.415-.155.382-1.41-.224-2.842-.451-4.275-.474 1.03.997 2.202 1.848 3.358 2.69.179.13.079.455-.161.38-1.203-.377-2.473-.409-3.714-.217-1.073.167-2.12.48-3.135.862-.964.365-1.921.815-2.622 1.595-.352.39-.642.832-.968 1.243-.31.399-.66.753-1.061 1.062-.632.488-1.343.853-2.088 1.14.745.286 1.456.65 2.088 1.14.4.308.75.663 1.061 1.061.326.41.616.853.968 1.243.7.778 1.658 1.23 2.622 1.593 1.016.384 2.063.695 3.135.864 1.24.192 2.51.16 3.714-.217.24-.075.34.25.16.38-1.155.842-2.327 1.693-3.357 2.69 1.433-.023 2.865-.25 4.275-.473.221-.034.378.265.155.381-1.116.587-2.038 1.462-2.778 2.474-.64.878-1.16 1.84-1.606 2.826-.426.939-.782 1.938-.728 2.983.027.525.133 1.04.196 1.564.062.5.064.999 0 1.5-.1.794-.348 1.555-.67 2.283.726-.325 1.49-.571 2.282-.671.5-.063.999-.063 1.5-.002.521.064 1.038.17 1.564.198 1.047.054 2.042-.303 2.982-.728.987-.447 1.948-.966 2.824-1.608 1.014-.74 1.89-1.66 2.476-2.778.115-.224.415-.063.382.156-.223 1.412-.45 2.843-.474 4.276.997-1.029 1.85-2.205 2.689-3.358.131-.18.454-.08.38.16-.376 1.202-.407 2.474-.214 3.715.165 1.074.478 2.119.86 3.135.365.963.815 1.92 1.593 2.621.392.353.832.643 1.247.966.397.313.751.663 1.06 1.061.488.633.855 1.346 1.14 2.09.287-.744.65-1.457 1.14-2.09a6.153 6.153 0 0 1 1.059-1.061c.415-.323.855-.613 1.245-.966.778-.7 1.23-1.658 1.594-2.621.383-1.016.696-2.061.863-3.135.192-1.241.16-2.513-.217-3.715-.075-.24.25-.34.382-.16.84 1.153 1.691 2.33 2.688 3.356-.023-1.431-.252-2.862-.473-4.274-.036-.219.265-.38.384-.156.584 1.117 1.46 2.037 2.473 2.778.876.642 1.838 1.161 2.826 1.608.939.425 1.934.782 2.98.728.526-.028 1.041-.134 1.563-.199a6.129 6.129 0 0 1 1.501.003c.793.1 1.554.346 2.282.671-.323-.728-.567-1.489-.67-2.284a6.12 6.12 0 0 1-.001-1.5c.064-.523.17-1.038.198-1.563.054-1.045-.303-2.044-.728-2.983-.447-.986-.966-1.948-1.606-2.826-.74-1.012-1.662-1.887-2.78-2.474-.221-.116-.063-.415.156-.381 1.412.223 2.843.45 4.276.473Zm9.25-3.243a7.954 7.954 0 0 0-.63-.375l-1.444 6.407.58.237 1.494-6.269Zm.792.603a8.926 8.926 0 0 0-.52-.41l-1.474 6.2.488.2 1.506-5.99Zm.263.235-1.477 5.876.563.231 1.385-5.646a8.184 8.184 0 0 0-.471-.46Zm1.116 1.204a10.261 10.261 0 0 0-.392-.465l-1.346 5.487.45.188 1.288-5.21Zm.496.67a21.38 21.38 0 0 0-.252-.353l-1.24 5.012.504.206.988-4.866Zm.957 1.584c-.087-.164-.175-.33-.27-.492l-.689 4.18.33.135.63-3.823Zm.424.853a22.097 22.097 0 0 0-.184-.385l-.575 3.476.237.098.522-3.189Zm.48 1.12a20.362 20.362 0 0 0-.249-.602l-.456 2.792.25.105.454-2.295Zm.367 1c-.05-.146-.103-.295-.159-.449l-.37 1.865.232.096.297-1.512Zm.16 1.7.144-.729c-.031-.112-.069-.233-.106-.36l-.2 1.021.162.067Zm-7.552-2.745-.47-.197-3.115 5.023c.019.256.035.509.054.763l3.531-5.59Zm-4.455-.478c.084.217.154.442.213.672l1.132-1.492-.544-.227-.8 1.047Zm-1.114-1.844c.123.15.248.298.365.453.248.338.449.69.613 1.057l.64-.836-1.568-.653-.05-.02Zm1.877-.663a5.732 5.732 0 0 1-1.758.375l.023.009 1.596.659.14-1.043Zm.96-.465c-.205.12-.411.23-.624.325l-.175 1.306.544.223.255-1.854Zm1.153-.768c-.252.18-.507.353-.763.528l-.048.03-.296 2.187.442.184.665-2.929Zm1.01-.742c-.034.03-.067.056-.102.081-.172.134-.349.259-.524.386l-.757 3.322.517.215.866-4.004Zm1.176-.962c-.26.221-.526.44-.79.655l-.958 4.432.505.207 1.243-5.294Zm-4.234 10.226 2.864-4.623-.505-.211-2.455 3.812c.036.338.067.678.096 1.022Zm-.34-2.753 1.598-2.54-.442-.184-1.335 1.759c.002.018.008.035.012.054.057.302.113.607.167.911Zm.188 1.24 2.219-3.442-.517-.215-1.815 2.884c.034.215.071.428.098.643.007.042.01.087.015.13Zm9.187-5.939-.938 4.622.398.165.736-4.476c-.062-.104-.13-.206-.196-.31Zm-4.403-3.114-1.35 5.755.476.194 1.454-6.45c-.192.168-.386.335-.58.501Zm3.588-7.412c-1.934-1.473-3.671-3.183-5.598-4.66a31.373 31.373 0 0 0-1.74-1.22c-.815-.531-1.7-.807-2.667-.892a11.18 11.18 0 0 0-.749-.042c-.876.905-1.883 1.685-2.901 2.432 1.842-.3 3.748.071 5.502.676.963.331 1.946.709 2.76 1.337.84.65 1.313 1.606 2.05 2.352.827.837 1.901 1.373 3.007 1.738.144-.032.236.091.231.212v.011c.005.12-.087.244-.231.213-1.106.365-2.18.9-3.008 1.737-.736.747-1.21 1.702-2.05 2.352-.813.626-1.796 1.006-2.76 1.337-1.753.605-3.66.977-5.501.676 1.018.747 2.025 1.527 2.901 2.43.25-.006.498-.017.749-.04.968-.085 1.852-.36 2.667-.892.59-.388 1.177-.793 1.74-1.22 1.927-1.477 3.664-3.187 5.598-4.66a.153.153 0 0 1 .006-.069c.01-.035.023-.068.033-.1-.006-.023-.012-.044-.012-.069.004-.652.3-1.278.792-1.7a2.28 2.28 0 0 1-.792-1.703c0-.023.006-.044.012-.067-.01-.033-.023-.065-.033-.1a.153.153 0 0 1-.006-.069Zm-5.76-15.803 3.11 5.198.562-.236-3.012-4.97a8.729 8.729 0 0 0-.66.008ZM51.86 13.84c-.699.094-1.402.222-2.092.367-.953.199-1.775.63-2.52 1.256-.191.16-.377.328-.556.498.018 1.264-.144 2.533-.334 3.782 1.087-1.52 2.699-2.607 4.37-3.423.915-.446 1.874-.874 2.894-1.005 1.056-.136 2.065.206 3.114.213 1.176.006 2.315-.376 3.356-.897.08-.123.231-.104.313-.015.002.002.004.002.006.002a.006.006 0 0 1 .002.005c.088.083.11.233-.014.315-.522 1.038-.904 2.179-.897 3.355.006 1.047.348 2.059.212 3.114-.131 1.018-.556 1.98-1.005 2.895-.813 1.673-1.902 3.28-3.423 4.37 1.252-.192 2.52-.353 3.782-.334.17-.18.34-.367.5-.557.624-.747 1.056-1.564 1.254-2.52.146-.688.273-1.393.367-2.091.319-2.407.34-4.845.663-7.252a.186.186 0 0 1-.044-.054l-.045-.097c-.02-.01-.038-.018-.057-.037a2.276 2.276 0 0 1-.642-1.764 2.272 2.272 0 0 1-1.765-.643.292.292 0 0 1-.037-.056l-.096-.046a.187.187 0 0 1-.052-.046c-2.407.327-4.847.344-7.254.665Zm-7.997-7.767L49.74 7.55l.233-.565-5.646-1.383c-.158.15-.312.31-.463.471Zm-12.945 4.56A27.928 27.928 0 0 0 29.7 12.37c-.536.818-.81 1.7-.895 2.668a11.1 11.1 0 0 0-.042.748c.905.876 1.685 1.886 2.434 2.9-.304-1.84.069-3.744.674-5.498.332-.966.709-1.946 1.337-2.762.65-.84 1.608-1.314 2.352-2.05.835-.826 1.373-1.902 1.738-3.008-.03-.143.091-.235.212-.231.003-.002.005-.002.007-.002l.004.002c.12-.004.242.088.21.231.368 1.106.904 2.182 1.74 3.008.747.736 1.702 1.21 2.353 2.05.627.816 1.005 1.796 1.337 2.762.604 1.754.978 3.658.675 5.497.745-1.013 1.53-2.023 2.432-2.899-.008-.25-.02-.5-.042-.748-.085-.968-.36-1.85-.892-2.668a28.869 28.869 0 0 0-1.222-1.737c-1.475-1.932-3.187-3.667-4.658-5.6a.162.162 0 0 1-.07-.007 2.984 2.984 0 0 1-.1-.035c-.02.006-.04.015-.067.015a2.27 2.27 0 0 1-1.7-.795 2.282 2.282 0 0 1-1.702.795c-.027 0-.046-.009-.067-.015-.035.012-.067.025-.102.035a.146.146 0 0 1-.067.007c-1.474 1.933-3.185 3.668-4.661 5.6Zm-17.74 5.285c.327 2.407.343 4.845.667 7.252.091.698.22 1.403.365 2.091.2.956.63 1.773 1.253 2.52.16.19.328.377.5.557 1.262-.019 2.533.142 3.782.334-1.518-1.09-2.61-2.697-3.423-4.37-.448-.916-.874-1.877-1.005-2.895-.136-1.055.207-2.067.213-3.114.006-1.176-.376-2.317-.9-3.355-.122-.082-.101-.232-.012-.316l.005-.004.002-.002c.083-.09.233-.108.313.015 1.042.521 2.181.903 3.355.897 1.05-.007 2.06-.349 3.114-.213 1.02.131 1.982.559 2.897 1.005 1.67.816 3.283 1.902 4.37 3.423-.192-1.25-.353-2.518-.332-3.781a14.077 14.077 0 0 0-.559-.499c-.747-.626-1.564-1.057-2.52-1.255a28.255 28.255 0 0 0-2.09-.368c-2.408-.32-4.846-.338-7.255-.665a.187.187 0 0 1-.052.046l-.096.046a.155.155 0 0 1-.04.056 2.26 2.26 0 0 1-1.762.643 2.276 2.276 0 0 1-.643 1.764c-.016.019-.037.027-.056.037-.017.034-.031.065-.048.097a.138.138 0 0 1-.044.054Zm-3.042 3.846-3.016 4.97.564.235 3.111-5.197a8.687 8.687 0 0 0-.659-.008ZM5.035 39.452c1.933 1.473 3.67 3.183 5.6 4.66a29.82 29.82 0 0 0 1.737 1.22c.816.532 1.7.807 2.67.892.248.023.498.034.746.04.876-.903 1.886-1.683 2.902-2.43-1.842.3-3.748-.07-5.502-.676-.964-.331-1.944-.71-2.758-1.337-.842-.65-1.316-1.605-2.054-2.352-.826-.836-1.9-1.372-3.005-1.737-.144.03-.236-.092-.232-.213v-.011c-.004-.12.088-.244.232-.212 1.105-.365 2.18-.901 3.005-1.738.738-.746 1.212-1.702 2.054-2.352.814-.628 1.794-1.006 2.758-1.337 1.754-.605 3.66-.976 5.502-.676-1.016-.747-2.026-1.527-2.902-2.432-.248.006-.498.019-.746.042-.97.085-1.854.36-2.67.892a29.82 29.82 0 0 0-1.737 1.22c-1.93 1.477-3.667 3.188-5.6 4.66a.152.152 0 0 1-.006.069c-.01.035-.023.067-.036.1.006.023.013.044.013.067a2.28 2.28 0 0 1-.793 1.704c.492.421.788 1.047.793 1.7 0 .024-.007.045-.013.068a1.3 1.3 0 0 1 .036.1.163.163 0 0 1 .006.07Zm5.76 15.803-3.111-5.197-.564.236 3.016 4.97c.22.006.44.002.66-.009Zm12.379 5.932a28.202 28.202 0 0 0 2.09-.367c.955-.198 1.772-.632 2.519-1.256.192-.16.375-.327.559-.498-.02-1.262.14-2.532.332-3.782-1.087 1.52-2.7 2.608-4.37 3.423-.915.446-1.877.874-2.897 1.005-1.053.136-2.065-.206-3.114-.213-1.174-.006-2.313.376-3.355.897-.08.123-.228.103-.313.015l-.002-.002a.275.275 0 0 1-.005-.004c-.09-.084-.11-.236.013-.315.523-1.041.905-2.18.899-3.356-.006-1.047-.348-2.059-.213-3.114.131-1.02.557-1.98 1.005-2.895.814-1.672 1.905-3.28 3.423-4.37-1.25.193-2.52.353-3.781.335-.174.179-.34.367-.501.556-.624.745-1.053 1.565-1.253 2.52a28.258 28.258 0 0 0-.365 2.092c-.324 2.407-.34 4.845-.668 7.252a.138.138 0 0 1 .044.054l.048.096c.019.01.04.019.056.037.46.465.693 1.118.643 1.765a2.266 2.266 0 0 1 1.762.642c.02.019.031.038.04.056.03.015.064.032.096.046.02.01.037.027.052.044 2.409-.325 4.847-.344 7.256-.663Zm7.994 7.767-5.877-1.477-.232.565 5.646 1.383c.16-.152.313-.31.463-.471Zm12.944-4.56c.43-.558.834-1.147 1.222-1.737.532-.817.807-1.7.892-2.667.021-.25.034-.499.042-.75-.903-.875-1.687-1.885-2.432-2.898.303 1.84-.07 3.744-.675 5.498-.332.965-.71 1.946-1.337 2.761-.651.84-1.606 1.314-2.353 2.05-.836.826-1.372 1.902-1.74 3.008.032.144-.09.235-.21.231l-.004.002-.007-.002c-.12.004-.241-.087-.212-.231-.365-1.106-.903-2.182-1.738-3.008-.744-.736-1.702-1.21-2.352-2.05-.628-.815-1.005-1.796-1.337-2.761-.605-1.754-.978-3.659-.674-5.498-.748 1.014-1.529 2.023-2.434 2.899.006.25.019.498.042.749.085.967.359 1.85.895 2.667.384.59.79 1.179 1.218 1.738 1.476 1.93 3.187 3.666 4.661 5.6a.146.146 0 0 1 .067.006c.035.01.067.025.102.035a.165.165 0 0 1 .067-.014c.653.004 1.278.3 1.702.794a2.263 2.263 0 0 1 1.7-.794c.027 0 .047.006.066.014.034-.01.07-.025.1-.035a.162.162 0 0 1 .071-.006c1.47-1.934 3.183-3.67 4.658-5.6Zm17.74-5.285c-.323-2.406-.344-4.844-.663-7.251a28.266 28.266 0 0 0-.367-2.092c-.198-.955-.63-1.775-1.254-2.52-.16-.19-.33-.377-.5-.556-1.262.018-2.53-.142-3.782-.334 1.521 1.088 2.61 2.697 3.423 4.37.448.915.874 1.874 1.005 2.894.136 1.055-.206 2.067-.212 3.114-.007 1.176.375 2.315.896 3.356.126.079.103.231.015.315l-.002.004c-.002 0-.004 0-.006.002-.082.088-.234.108-.313-.015-1.04-.521-2.18-.903-3.356-.897-1.049.007-2.058.349-3.114.213-1.02-.131-1.98-.559-2.895-1.005-1.67-.816-3.282-1.902-4.37-3.423.19 1.25.353 2.52.334 3.782.18.17.365.338.557.498.745.624 1.567 1.058 2.52 1.256.69.146 1.393.273 2.092.367 2.407.319 4.847.338 7.254.663a.177.177 0 0 1 .052-.044l.096-.046a.291.291 0 0 1 .037-.056 2.28 2.28 0 0 1 1.765-.642c-.05-.647.183-1.3.642-1.765.019-.018.038-.027.056-.037.017-.034.032-.063.046-.096a.198.198 0 0 1 .044-.055Zm3.045-3.845 3.012-4.97-.561-.236-3.112 5.197c.221.01.44.015.661.009Zm9.027-2.668a1.368 1.368 0 0 1-1.252 1.91c-.298 0-.59-.096-.83-.277a1.372 1.372 0 0 1-1.902 1.279 1.374 1.374 0 0 1-.486-.355 1.371 1.371 0 0 1-2.035 1.072 1.334 1.334 0 0 1-.415-.36 1.365 1.365 0 0 1-1.162.926c-.048.006-.092.006-.138.006-.315 0-.621-.109-.867-.311a1.342 1.342 0 0 1-.376-.497 1.372 1.372 0 0 1-1.4.793 1.367 1.367 0 0 1-1.11-.857c.101 1.374.216 2.753.46 4.113.19 1.055.438 2.183 1.03 3.099.015.01.032.019.046.031.098.067.107.178.071.265a.554.554 0 0 1-.027.048c-.006.008-.012.019-.02.025l-.03.023a.255.255 0 0 1-.048.027.21.21 0 0 1-.265-.07c-.01-.015-.017-.032-.029-.047-.916-.592-2.044-.84-3.101-1.028-1.356-.244-2.733-.359-4.107-.463.453.184.795.597.853 1.114a1.37 1.37 0 0 1-.797 1.397 1.358 1.358 0 0 1 .807 1.38 1.376 1.376 0 0 1-.93 1.163c.146.11.271.25.365.417.178.319.221.69.123 1.043a1.374 1.374 0 0 1-1.197.99 1.346 1.346 0 0 1 .359 1.537c-.217.532-.73.855-1.272.855l-.01-.002a1.373 1.373 0 0 1-1.098 2.199c-.18 0-.36-.048-.534-.123-.208.53-.72.871-1.274.871a1.367 1.367 0 0 1-1.356-1.183 1.354 1.354 0 0 1-.98.414c-.18 0-.359-.036-.53-.109a1.36 1.36 0 0 1-.834-1.339 1.338 1.338 0 0 1-.505.267 1.366 1.366 0 0 1-1.729-1.5 1.36 1.36 0 0 1-1.479-.167 1.356 1.356 0 0 1-.408-1.536 1.406 1.406 0 0 1-.63.077 1.366 1.366 0 0 1-1.1-1.904c-.898 1.047-1.793 2.102-2.581 3.237-.614.88-1.235 1.852-1.465 2.918.003.018.009.035.013.054.025.142-.083.236-.192.252a.18.18 0 0 1-.033.004c-.015 0-.023-.002-.036-.004-.11-.016-.217-.11-.192-.252l.013-.054c-.23-1.066-.851-2.038-1.464-2.918-.789-1.135-1.681-2.192-2.582-3.237.192.45.144.986-.18 1.393a1.373 1.373 0 0 1-1.55.432 1.356 1.356 0 0 1-.408 1.539 1.36 1.36 0 0 1-1.479.167 1.375 1.375 0 0 1-1.355 1.551 1.373 1.373 0 0 1-.878-.319 1.36 1.36 0 0 1-.834 1.339 1.348 1.348 0 0 1-1.052.007 1.396 1.396 0 0 1-.459-.311c-.023.167-.075.33-.163.482-.177.319-.47.55-.823.648a1.255 1.255 0 0 1-.372.053 1.374 1.374 0 0 1-1.272-.872 1.363 1.363 0 0 1-.534.123 1.373 1.373 0 0 1-1.097-2.199l-.012.002a1.37 1.37 0 0 1-1.27-.855 1.356 1.356 0 0 1 .358-1.537 1.374 1.374 0 0 1-1.197-.99 1.35 1.35 0 0 1 .125-1.043c.092-.167.215-.307.363-.417a1.372 1.372 0 0 1-.928-1.162 1.356 1.356 0 0 1 .803-1.38 1.366 1.366 0 0 1-.793-1.398c.04-.363.22-.693.507-.92.107-.083.224-.144.344-.194-1.372.104-2.75.22-4.108.463-1.056.188-2.184.436-3.1 1.028-.01.015-.018.032-.029.046a.21.21 0 0 1-.265.071.278.278 0 0 1-.05-.027l-.025-.023a.136.136 0 0 1-.023-.025.554.554 0 0 1-.027-.048c-.035-.087-.027-.198.071-.265.015-.012.031-.02.046-.031.59-.916.838-2.044 1.028-3.1.244-1.36.361-2.738.463-4.112a1.367 1.367 0 0 1-1.27.865c-.54 0-1.02-.323-1.24-.8-.22.48-.7.806-1.246.806-.044 0-.09 0-.134-.006a1.352 1.352 0 0 1-1.163-.926 1.382 1.382 0 0 1-1.087.538 1.37 1.37 0 0 1-1.364-1.247 1.373 1.373 0 0 1-1.54.357 1.378 1.378 0 0 1-.85-1.283 1.365 1.365 0 0 1-1.498.102 1.367 1.367 0 0 1-.58-1.737 1.368 1.368 0 0 1-.82-1.64c.153-.54.61-.91 1.133-.986a1.375 1.375 0 0 1 .442-2.25c.19-.075.39-.105.593-.094a1.372 1.372 0 0 1-.27-.505 1.368 1.368 0 0 1 .952-1.691c.181-.052.37-.063.548-.038a1.378 1.378 0 0 1 .167-1.479 1.365 1.365 0 0 1 1.546-.408 1.366 1.366 0 0 1-.084-.63 1.366 1.366 0 0 1 1.904-1.1c-1.046-.898-2.104-1.793-3.234-2.581-.883-.614-1.857-1.235-2.922-1.465-.017.003-.036.009-.052.013-.142.023-.236-.081-.253-.192-.002-.013-.002-.023-.002-.033 0-.013 0-.023.002-.036.002-.017.009-.035.015-.054a.212.212 0 0 1 .238-.138.44.44 0 0 0 .052.013c1.065-.23 2.04-.851 2.922-1.464 1.13-.789 2.185-1.681 3.23-2.58a1.367 1.367 0 0 1-.536.114c-.3 0-.602-.098-.853-.298a1.357 1.357 0 0 1-.51-.918 1.379 1.379 0 0 1 .08-.625 1.39 1.39 0 0 1-.479.09c-.044 0-.09-.005-.136-.009a1.365 1.365 0 0 1-.928-.494 1.381 1.381 0 0 1-.162-1.487c-.059.006-.12.023-.18.023-.48 0-.949-.255-1.199-.701a1.356 1.356 0 0 1 .144-1.548c-.025.002-.048.007-.075.007a1.368 1.368 0 0 1-1.266-.84 1.374 1.374 0 0 1 .317-1.52 1.377 1.377 0 0 1-.492-.152 1.365 1.365 0 0 1 .169-2.465 1.367 1.367 0 0 1 .58-1.737 1.372 1.372 0 0 1 1.499.104 1.37 1.37 0 0 1 1.9-1.28c.19.081.352.202.486.352a1.358 1.358 0 0 1 .995-1.195c.352-.1.721-.056 1.043.125.162.092.302.215.415.361a1.355 1.355 0 0 1 1.163-.926 1.348 1.348 0 0 1 1.379.803 1.348 1.348 0 0 1 1.397-.795c.52.059.933.405 1.114.86-.102-1.377-.219-2.756-.463-4.115-.19-1.056-.438-2.184-1.028-3.1-.015-.01-.031-.019-.046-.031-.098-.067-.106-.177-.07-.265a.554.554 0 0 1 .026-.048.13.13 0 0 1 .023-.025c.009-.008.017-.014.025-.023.09-.064.232-.073.315.044.01.015.019.031.03.046.915.592 2.043.84 3.099 1.028 1.355.244 2.728.359 4.1.461a1.368 1.368 0 0 1-.842-1.112 1.347 1.347 0 0 1 .792-1.397 1.359 1.359 0 0 1-.803-1.38 1.36 1.36 0 0 1 .928-1.162 1.319 1.319 0 0 1-.363-.418 1.35 1.35 0 0 1-.125-1.042 1.352 1.352 0 0 1 1.197-.991 1.373 1.373 0 0 1-.358-1.54 1.373 1.373 0 0 1 1.282-.85 1.372 1.372 0 0 1-.102-1.498 1.37 1.37 0 0 1 1.737-.582 1.367 1.367 0 0 1 2.626.315 1.37 1.37 0 0 1 2.248.44c.08.192.109.395.096.595.146-.123.315-.215.503-.27a1.368 1.368 0 0 1 1.043.126 1.365 1.365 0 0 1 .69 1.376A1.366 1.366 0 0 1 31.524 5.4a1.37 1.37 0 0 1 1.552.426c.324.407.372.943.18 1.393.9-1.047 1.793-2.104 2.582-3.236.613-.88 1.234-1.855 1.464-2.918l-.013-.055c-.025-.141.082-.235.192-.252.013-.002.021-.004.036-.004.01 0 .023.002.033.004.109.017.217.11.192.252-.004.02-.01.036-.012.055.229 1.063.85 2.037 1.464 2.918.788 1.132 1.68 2.19 2.582 3.234a1.328 1.328 0 0 1 .181-1.39 1.365 1.365 0 0 1 1.55-.426 1.382 1.382 0 0 1-.088-.62 1.365 1.365 0 0 1 1.973-1.093 1.37 1.37 0 0 1 1.73-1.501c.189.054.356.146.504.269a1.361 1.361 0 0 1 .834-1.341 1.37 1.37 0 0 1 1.51.306 1.367 1.367 0 0 1 2.626-.315 1.37 1.37 0 0 1 1.737.582c.276.49.215 1.076-.102 1.498a1.38 1.38 0 0 1 .544.106 1.368 1.368 0 0 1 .38 2.284c.19.015.376.07.547.167a1.372 1.372 0 0 1 .527 1.866 1.398 1.398 0 0 1-.363.418 1.358 1.358 0 0 1 .928 1.161 1.372 1.372 0 0 1-.807 1.381c.526.24.866.793.797 1.397a1.37 1.37 0 0 1-.845 1.112c1.37-.102 2.747-.217 4.099-.46 1.057-.189 2.185-.437 3.101-1.03.012-.014.019-.03.03-.045.083-.117.225-.108.312-.044.01.009.02.015.03.023.008.006.014.017.02.025l.027.048c.036.088.027.198-.07.265-.015.012-.032.02-.047.031-.592.916-.84 2.044-1.03 3.1-.244 1.357-.359 2.736-.46 4.112a1.37 1.37 0 0 1 .193-.348c.23-.286.555-.467.918-.509a1.373 1.373 0 0 1 1.4.795 1.358 1.358 0 0 1 1.38-.803 1.365 1.365 0 0 1 1.162.926c.11-.146.25-.27.415-.36.321-.182.69-.226 1.045-.126.352.098.646.33.823.649a1.4 1.4 0 0 1 .17.546 1.344 1.344 0 0 1 1.535-.357c.535.22.857.739.85 1.285a1.372 1.372 0 0 1 1.5-.104 1.37 1.37 0 0 1 .582 1.737c.29.115.536.32.692.597a1.369 1.369 0 0 1-.525 1.868c-.154.086-.32.13-.49.153.135.131.246.288.319.47.14.337.137.71-.007 1.048a1.371 1.371 0 0 1-1.264.84c-.026 0-.052-.006-.077-.006.353.424.432 1.037.146 1.548-.252.446-.72.7-1.199.7-.06 0-.12-.016-.181-.022a1.363 1.363 0 0 1-.163 1.487 1.352 1.352 0 0 1-.926.494c-.044.004-.09.009-.136.009-.164 0-.327-.034-.48-.09a1.352 1.352 0 0 1-.428 1.543c-.251.2-.554.298-.852.298a1.37 1.37 0 0 1-.538-.114c1.045.899 2.1 1.791 3.233 2.58.88.613 1.852 1.234 2.918 1.464.018-.002.035-.008.054-.013.119-.02.2.05.238.138.006.019.012.038.014.054.002.013.004.023.004.036 0 .01-.002.02-.004.033-.016.11-.11.215-.252.192-.019-.004-.036-.01-.054-.013-1.066.23-2.038.851-2.918 1.465-1.135.788-2.192 1.683-3.235 2.582a1.364 1.364 0 0 1 1.9 1.099 1.34 1.34 0 0 1-.081.63 1.351 1.351 0 0 1 1.543.409 1.37 1.37 0 0 1 .167 1.478 1.37 1.37 0 0 1 1.235 2.234c.198-.01.4.019.592.094.34.14.603.402.745.74a1.356 1.356 0 0 1-.305 1.51 1.369 1.369 0 0 1 1.007 2.03 1.377 1.377 0 0 1-.692.598Zm-15.027-7.631c0 .533.832.536.832 0s-.832-.536-.832 0Zm1.898-.484c0 .536.83.536.83 0s-.83-.536-.83 0Zm1.654-.55c0 .533.832.535.832 0 0-.537-.832-.537-.832 0Zm1.518-.898c0 .534.832.534.832 0 0-.536-.832-.536-.832 0Zm1.414-1.072c0 .536.83.536.83 0 0-.534-.83-.536-.83 0Zm1.38-1.412c0 .534.83.536.83 0s-.83-.536-.83 0Zm1.588-1.347c0 .536.83.536.83 0 0-.534-.83-.536-.83 0Zm-23.535.382c0 .267.418.267.418 0 0-.27-.417-.27-.417 0Zm2.07.78c0 .269.417.269.417 0 0-.267-.418-.267-.418 0Zm2.114.922c0 .264.417.267.417 0 0-.27-.417-.27-.417 0Zm1.748.78c0 .269.417.269.417 0 0-.267-.417-.267-.417 0Zm1.748.598c0 .267.417.267.417 0 0-.269-.417-.269-.417 0Zm1.518.597c0 .269.415.269.415 0 0-.267-.415-.267-.415 0Zm2.115 1.722-13.553-5.627a.208.208 0 0 0-.273.11c-.004.01-.002.02-.004.028-.006.008-.012.014-.014.023a.208.208 0 0 0 .112.271l13.563 5.602a.206.206 0 0 0 .271-.11l.004-.015a.029.029 0 0 1 .007-.008.21.21 0 0 0-.113-.274Zm18.902-22.885a.197.197 0 0 0-.033-.109.192.192 0 0 0-.052-.102c-.178-.177-.442.069-.32.256.047.217.405.205.405-.046Zm-.807 3.274c0 .269.417.269.417 0 0-.267-.417-.265-.417 0Zm-1.057 2.461c0 .27.417.27.417 0 0-.267-.417-.267-.417 0Zm-1.379 2.253c0 .269.415.269.415 0 0-.267-.415-.265-.415 0Zm-1.725 2.025c0 .267.415.267.415 0 0-.27-.415-.267-.415 0Zm-11.164-2.048c0 .536.832.536.832 0s-.832-.534-.832 0Zm1.898.484c0 .535.83.535.83 0 0-.537-.83-.534-.83 0Zm1.654.55c0 .536.832.536.832 0 0-.534-.832-.534-.832 0Zm1.518.897c0 .536.832.536.832 0s-.832-.534-.832 0Zm2.244 1.072c0-.536-.83-.536-.83 0s.83.534.83 0Zm1.38 1.412c0-.536-.83-.534-.83 0 0 .536.83.536.83 0Zm1.588 1.345c0-.536-.83-.534-.83 0 0 .536.83.536.83 0Zm-23.947-.38c0-.266-.417-.266-.417 0 0 .27.417.27.417 0Zm2.069-.78c0-.268-.418-.268-.418 0s.418.268.418 0Zm2.114-.921c0-.267-.417-.265-.417 0 0 .269.417.269.417 0Zm1.748-.78c0-.27-.417-.27-.417 0 0 .267.417.267.417 0Zm1.748-.599c0-.267-.417-.267-.417 0 0 .27.417.27.417 0Zm1.516-.596c0-.27-.415-.27-.415 0 0 .267.415.267.415 0Zm.142 2.972c-.832-.155-1.664-.4-2.517-.374-.734.023-1.352.332-1.957.728-.692.453-1.339.976-2.006 1.468-.352.261-.713.52-1.093.745h4.167l-.838-.636a.202.202 0 0 1-.084-.167.207.207 0 0 1 .334-.165l1.278.968h2.66l-1.62-1.335a.205.205 0 0 1-.03-.292.21.21 0 0 1 .294-.029l2.01 1.656h2.166L56.025 36.3a.208.208 0 1 1 .254-.33l1.736 1.337h2.204l-1.529-1.193a.205.205 0 0 1-.079-.163.208.208 0 0 1 .336-.165l1.942 1.515c.006 0 .01.004.016.006h2.246l-1.983-1.666a.203.203 0 0 1-.073-.159c0-.048.015-.096.048-.133a.204.204 0 0 1 .292-.027l2.361 1.983.006.002h1.767c-.78-.365-1.498-.918-2.065-1.466-1.153-1.116-2.409-2.603-4.207-2.084-.79.228-1.487.699-2.271.951-.805.257-1.64.186-2.457.032Zm11 2.982h-1.765l-.008.002-2.361 1.984a.208.208 0 0 1-.267-.32l1.983-1.666h-2.246l-.016.006-1.942 1.515a.209.209 0 0 1-.336-.165c0-.06.027-.123.08-.163l1.528-1.193h-2.204l-1.736 1.337a.207.207 0 0 1-.292-.04.203.203 0 0 1-.044-.125c0-.062.03-.125.082-.165l1.308-1.007h-2.165l-2.01 1.654a.21.21 0 0 1-.295-.027.218.218 0 0 1-.048-.133.2.2 0 0 1 .077-.159l1.62-1.335h-2.659l-1.278.968a.21.21 0 0 1-.292-.04.201.201 0 0 1-.042-.125c0-.062.027-.125.084-.167l.838-.636h-4.167c.38.225.74.484 1.093.745.667.492 1.314 1.013 2.006 1.468.605.396 1.223.705 1.957.728.853.027 1.685-.22 2.517-.373.818-.155 1.652-.226 2.457.03.784.251 1.48.725 2.271.954 1.798.517 3.054-.97 4.207-2.086.567-.55 1.285-1.1 2.065-1.466Zm-11.77-3.562c.828.169 1.68.39 2.53.281.847-.108 1.585-.59 2.361-.909.753-.309 1.548-.413 2.33-.136.765.272 1.412.8 1.992 1.358.66.634 1.26 1.285 2.046 1.775.61.382 1.314.71 2.042.772a3.51 3.51 0 0 1 .502.006c.105-.01.165.046.188.121.012.027.02.056.02.088a.212.212 0 0 1-.02.085.166.166 0 0 1-.188.121 3.377 3.377 0 0 1-.502.006c-.728.063-1.431.39-2.042.772-.787.49-1.385 1.139-2.046 1.775-.58.557-1.227 1.087-1.992 1.358-.782.277-1.577.173-2.33-.136-.776-.319-1.514-.8-2.36-.91-.852-.108-1.703.114-2.53.282-.801.165-1.636.31-2.447.121-.645-.148-1.222-.521-1.76-.892-.624-.436-1.218-.912-1.834-1.36-.521-.38-1.065-.782-1.674-1.01-.009 0-.015-.004-.021-.006h-2.532a.209.209 0 0 1-.209-.206.21.21 0 0 1 .209-.209h2.532c.006-.002.012-.006.02-.006.61-.227 1.154-.63 1.675-1.01.616-.45 1.21-.926 1.834-1.36.538-.373 1.115-.744 1.76-.892.811-.188 1.646-.044 2.447.12Zm18.55-14.312c-.187-.188-.484.106-.294.294.19.19.484-.104.294-.294Zm-2.488-.99c-.188-.19-.482.104-.294.294.19.187.484-.107.294-.295Zm-2.567-.62c-.19-.188-.484.106-.294.294.187.192.483-.102.294-.294Zm-2.651-.21c-.188-.188-.482.104-.294.293.19.19.484-.104.294-.294Zm-6.741 9.635c.38.378.968-.209.588-.588-.377-.378-.968.208-.588.588Zm.999-1.683c.38.377.968-.209.588-.588-.375-.378-.965.208-.588.588Zm.782-1.56c.378.377.966-.209.588-.588-.38-.38-.968.208-.588.588Zm.438-1.706c.38.377.968-.21.588-.588-.377-.38-.965.208-.588.588Zm.244-1.758c.378.38.968-.207.588-.589-.38-.377-.965.211-.588.589Zm.563-2.564c-.375-.377-.965.211-.588.589.38.379.968-.21.588-.589Zm-.417-1.483c.38.378.968-.21.588-.588-.377-.38-.965.209-.588.588ZM44.433 33.521c-.188-.188-.482.104-.294.294.192.19.484-.105.294-.294Zm2.019-.912c-.192-.188-.486.107-.294.294.187.192.483-.102.294-.294Zm2.144-.842c-.188-.192-.484.102-.294.294.19.187.483-.105.294-.294Zm1.79-.684c-.19-.19-.485.104-.295.294s.484-.105.294-.294Zm1.657-.814c-.19-.19-.483.104-.294.294.19.19.484-.104.294-.294Zm1.496-.65c-.188-.188-.484.106-.294.294.19.19.483-.105.294-.295ZM42.282 35.51c.003.007.009.01.015.017 0 .013 0 .023.004.033a.211.211 0 0 0 .273.11l13.553-5.626a.21.21 0 0 0 .113-.273.038.038 0 0 0-.009-.01c-.002-.005 0-.01-.002-.013a.21.21 0 0 0-.27-.113L42.394 35.24a.208.208 0 0 0-.113.271Zm-3.766 5.515a1.811 1.811 0 0 1-1-.876 1.82 1.82 0 0 1-.806.792c.502.474 1.27.499 1.806.084Zm2.797-3.51a1.4 1.4 0 0 0-.367-.81c-.173.349-.45.632-.795.81.344.175.621.459.795.807a1.4 1.4 0 0 0 .367-.807Zm-1.114 2.682c.186-.23.3-.513.313-.828a1.836 1.836 0 0 1-.582.102c-.19 0-.373-.037-.549-.092.055.175.092.359.092.549 0 .2-.04.396-.102.582.313-.01.598-.128.828-.313Zm-5.369 0c.242.194.543.317.874.317.084 0 .163-.013.242-.025a1.81 1.81 0 0 1-.096-.561c0-.244.048-.48.14-.699a1.8 1.8 0 0 1-.888.242c-.196 0-.392-.04-.58-.102.008.315.125.598.308.828Zm-1.11-2.684c.032.294.151.577.366.809.173-.349.45-.632.794-.807a1.818 1.818 0 0 1-.794-.81 1.396 1.396 0 0 0-.365.808Zm1.11-2.685c-.183.23-.3.515-.308.83a1.806 1.806 0 0 1 1.13-.008 1.754 1.754 0 0 1-.094-.55c0-.203.04-.397.102-.58a1.37 1.37 0 0 0-.83.308Zm2.687-1.11c-.305.03-.584.155-.807.368.346.169.627.448.807.792.177-.344.456-.623.805-.794a1.352 1.352 0 0 0-.805-.365Zm2.682 1.11a1.37 1.37 0 0 0-.828-.308c.063.183.102.377.102.58 0 .19-.037.373-.092.55a1.75 1.75 0 0 1 .549-.096c.2 0 .394.042.582.104a1.402 1.402 0 0 0-.313-.83Zm.156 3.86a1.392 1.392 0 0 0-1.236-.76c-.148 0-.29.03-.426.073.065.127.144.248.248.354.382.382.932.488 1.414.334Zm-5.679 0a1.39 1.39 0 0 0 1.412-.333 1.35 1.35 0 0 0 .248-.354 1.422 1.422 0 0 0-.425-.073c-.538 0-1.003.313-1.235.76Zm0-2.35c.232.449.697.762 1.235.762.15 0 .292-.032.425-.075a1.387 1.387 0 0 0-.248-.353 1.39 1.39 0 0 0-1.412-.334Zm1.662-1.666c-.043.138-.073.28-.073.428 0 .373.146.723.41.986.103.104.227.181.354.246a1.45 1.45 0 0 0 .07-.421 1.4 1.4 0 0 0-.76-1.24Zm2.355 0a1.4 1.4 0 0 0-.763 1.239c0 .146.029.285.073.421a1.36 1.36 0 0 0 .352-.246 1.4 1.4 0 0 0 .338-1.414Zm.425 2.428a1.39 1.39 0 0 0 1.237-.764 1.378 1.378 0 0 0-1.414.336 1.439 1.439 0 0 0-.248.353c.136.043.278.075.425.075Zm-2.78 3.255c.45-.233.762-.698.762-1.239 0-.15-.03-.287-.073-.423a1.338 1.338 0 0 0-.353.248 1.387 1.387 0 0 0-.409.987c0 .148.03.29.073.427Zm2.31-1.414a1.345 1.345 0 0 0-.612-.35c-.067.163-.106.34-.106.525 0 .64.436 1.177 1.024 1.342a1.387 1.387 0 0 0-.307-1.517Zm3.078-1.426a1.8 1.8 0 0 1-.516 1.426c-.025.025-.056.044-.083.07.002.037.01.07.01.105 0 .553-.252 1.043-.644 1.375a1.798 1.798 0 0 1-1.375.644c-.037 0-.07-.008-.106-.01-.025.027-.044.058-.07.083-.353.355-.816.53-1.28.53-.464 0-.927-.175-1.282-.53-.035-.033-.06-.075-.092-.112a1.794 1.794 0 0 1-1.75-.605 1.804 1.804 0 0 1-.646-1.375c0-.035.01-.07.012-.106-.027-.025-.058-.044-.085-.069a1.8 1.8 0 0 1-.515-1.426 1.808 1.808 0 0 1 .515-1.429c.027-.025.058-.044.085-.069-.002-.035-.012-.07-.012-.106 0-.553.256-1.043.646-1.375a1.794 1.794 0 0 1 1.373-.644c.037 0 .073.008.108.01.023-.027.044-.058.07-.083a1.805 1.805 0 0 1 1.282-.532c.048 0 .096.01.146.015.048-.005.096-.015.146-.015.484 0 .938.19 1.278.532.027.025.046.056.071.083.036-.002.069-.01.106-.01a1.8 1.8 0 0 1 1.375.644c.392.332.645.822.645 1.375 0 .035-.009.069-.011.106.027.025.058.044.083.069.39.392.557.916.516 1.429ZM55.18 2.678c-.188-.188-.482.106-.294.294.19.19.484-.104.294-.294Zm.993 2.488c-.19-.19-.484.107-.294.294.19.19.482-.104.294-.294Zm.617 2.57c-.187-.19-.481.104-.294.294.19.187.484-.107.294-.294Zm-.083 2.942c.19.19.484-.104.294-.294-.188-.187-.482.107-.294.294Zm-9.34 6.45c.38.377.966-.211.589-.589-.38-.38-.968.209-.589.588Zm1.683-1.002c.38.38.966-.208.587-.588-.378-.377-.966.21-.587.588Zm1.56-.78c.378.38.966-.208.589-.588-.38-.377-.968.21-.588.588Zm2.295-1.028c-.378-.377-.966.21-.588.59.381.378.967-.21.588-.59Zm1.756-.242c-.378-.38-.966.209-.588.586.38.382.967-.208.588-.586Zm1.977.023c-.38-.377-.968.21-.588.59.377.378.966-.21.588-.59Zm2.071-.171c-.377-.378-.966.21-.586.588.378.382.966-.208.586-.588Zm-17.2 16.666c-.19-.187-.484.107-.294.294.187.19.481-.104.294-.294Zm.909-2.014c-.188-.19-.482.104-.294.294.19.19.484-.107.294-.294Zm.847-2.148c-.19-.188-.484.106-.294.294.187.19.482-.105.294-.294Zm.682-1.788c-.19-.19-.484.104-.294.294s.484-.104.294-.294Zm.813-1.658c-.19-.19-.484.104-.294.294.188.19.482-.104.294-.294Zm.649-1.498c.19.192-.102.486-.294.295-.188-.188.104-.482.294-.295Z"/></svg>