<svg xmlns="http://www.w3.org/2000/svg" width="60" height="60" fill="none"><g clip-path="url(#a)"><path fill="#fff" d="M49.172 46.875h-1.5a13.045 13.045 0 0 0 4.473-4.462 12.449 12.449 0 0 0 1.644-8.14l-1.3-9.093a.938.938 0 0 0-.927-.805H29.47l6.335-4.477a.937.937 0 0 0 .225-1.307l-.541-.765 2.118-1.497a2.797 2.797 0 0 0 2.25-.443 2.8 2.8 0 0 0 1.118-1.67c.11.014.22.022.328.022.576 0 1.137-.177 1.617-.516a2.801 2.801 0 0 0 1.117-1.669 2.797 2.797 0 0 0 1.946-.496 2.794 2.794 0 0 0 1.17-1.974l.916-.648a.533.533 0 0 1 .743.128c.207.293.515.487.869.548.353.061.709-.02 1.002-.227l1.955-1.381a1.89 1.89 0 0 0 .452-2.632L49.86.799a1.876 1.876 0 0 0-1.223-.771 1.875 1.875 0 0 0-1.41.318l-1.955 1.382a1.333 1.333 0 0 0-.548.87c-.06.352.02.708.227 1.001.17.24.112.573-.128.743l-.919.649c-.05-.011-.099-.025-.15-.033a2.794 2.794 0 0 0-2.1.475 2.79 2.79 0 0 0-1.114 1.669 2.8 2.8 0 0 0-3.063 2.162 2.79 2.79 0 0 0-1.947.497 2.794 2.794 0 0 0-1.171 1.975l-2.116 1.496-.542-.766a.938.938 0 0 0-1.306-.224l-17.17 12.133H8.437a.938.938 0 0 0-.928.805l-1.3 9.092a12.45 12.45 0 0 0 1.645 8.141 13.045 13.045 0 0 0 4.473 4.462h-1.501a4.269 4.269 0 0 0-4.264 4.264v4.597A4.269 4.269 0 0 0 10.826 60h38.347a4.269 4.269 0 0 0 4.264-4.264v-4.597a4.269 4.269 0 0 0-4.264-4.264ZM45.905 5.873a2.412 2.412 0 0 0 .836-2.887l1.569-1.108c.005-.004.015-.003.018.003l3.231 4.572a.014.014 0 0 1-.003.018L49.988 7.58a2.393 2.393 0 0 0-1.203-.583 2.392 2.392 0 0 0-1.798.407l-.33.234-1.082-1.532.33-.233ZM42.354 7.57a.931.931 0 0 1 .383-.607.93.93 0 0 1 .7-.158.931.931 0 0 1 .607.382l1.082 1.532c.144.204.2.453.158.7a.931.931 0 0 1-.383.606.93.93 0 0 1-.7.159.93.93 0 0 1-.607-.383L42.512 8.27a.93.93 0 0 1-.158-.7ZM39.29 9.735a.931.931 0 0 1 .923-.779c.294 0 .584.138.767.397l1.082 1.53a.938.938 0 0 1-1.531 1.083l-1.082-1.531a.93.93 0 0 1-.159-.7Zm-3.062 2.164a.93.93 0 0 1 .383-.607.93.93 0 0 1 .7-.158.932.932 0 0 1 .607.383L39 13.048c.144.204.2.453.158.7a.931.931 0 0 1-.383.607.93.93 0 0 1-.7.158.931.931 0 0 1-.607-.383l-1.081-1.53a.93.93 0 0 1-.158-.7Zm-1.373 1.782 1.082 1.531-1.531 1.082-1.082-1.53 1.531-1.083Zm-4.145.633 3.247 4.594-7.657 5.41-3.246-4.594 7.656-5.41Zm-9.187 6.493 2.522 3.568h-1.148l-2.14-3.027.766-.541Zm-2.297 1.623 1.375 1.945h-4.128l2.753-1.945ZM9.25 26.25h41.499l.401 2.813H8.848l.402-2.813Zm-.67 4.688h42.838l.134.937H8.446l.134-.937Zm-.514 3.6.118-.823a.94.94 0 0 0 .253.035h43.125a.936.936 0 0 0 .253-.035l.117.822c.008.05.012.1.019.15H8.048c.006-.05.01-.1.018-.15Zm1.396 6.91a10.565 10.565 0 0 1-1.485-4.885h44.044a10.564 10.564 0 0 1-1.484 4.885 11.234 11.234 0 0 1-9.585 5.427h-5.547c2.194-1.9 2.617-4.92 2.634-5.049a.938.938 0 0 0-.91-1.06c-.111-.003-2.388-.03-4.429 1.165-.424-2.326-1.927-4.035-2.002-4.118a.938.938 0 0 0-1.398 0c-.074.083-1.578 1.792-2.002 4.118-2.04-1.194-4.315-1.169-4.428-1.165a.937.937 0 0 0-.91 1.06c.016.128.44 3.15 2.633 5.05h-5.547c-3.903 0-7.576-2.08-9.584-5.428Zm24.704 4.02c-.69.593-1.52.936-2.255 1.135a8.362 8.362 0 0 0 .8-2.34 4.5 4.5 0 0 1 .233-.216c.913-.785 2.073-1.132 2.934-1.286-.281.829-.799 1.923-1.712 2.708Zm-3.23-2.343c0 1.205-.492 2.31-.937 3.063-.445-.753-.937-1.858-.937-3.063 0-1.204.492-2.31.937-3.063.445.753.938 1.859.938 3.063Zm-3.648 1.138c.155.888.468 1.688.802 2.344-.733-.197-1.562-.541-2.257-1.138-.915-.786-1.433-1.883-1.714-2.712.858.152 2.015.498 2.936 1.29.08.07.158.142.233.216Zm24.274 11.473a2.392 2.392 0 0 1-2.39 2.39H10.827a2.392 2.392 0 0 1-2.39-2.39v-4.597a2.392 2.392 0 0 1 2.39-2.389h38.347a2.392 2.392 0 0 1 2.389 2.39v4.596Z"/></g><defs><clipPath id="a"><path fill="#fff" d="M0 0h60v60H0z"/></clipPath></defs></svg>