<svg xmlns="http://www.w3.org/2000/svg" width="190" height="190" fill="none"><mask id="a" width="190" height="190" x="0" y="0" maskUnits="userSpaceOnUse" style="mask-type:luminance"><path fill="#fff" d="M0 .159h189.618v189.618H0V.159Z"/></mask><g mask="url(#a)"><path fill="#C6C6C6" d="M133.917 1.199c.475.3 1.093-.365.644-.814a.456.456 0 0 0-.254-.132.444.444 0 0 0-.274-.084c-.634 0-.666.908-.116 1.03Zm-8.181 1.009c.676 0 .676-1.051 0-1.051s-.676 1.05 0 1.05Zm-6.227 2.682c.676 0 .676-1.05 0-1.05s-.676 1.05 0 1.05ZM113.8 8.381c.682 0 .682-1.05 0-1.05-.676 0-.676 1.05 0 1.05Zm-5.122 4.368c.676 0 .676-1.051 0-1.051s-.682 1.05 0 1.05Zm5.18 28.265c1.358 0 1.358-2.102 0-2.102-1.352 0-1.357 2.102 0 2.102Zm-1.219-4.8c1.357 0 1.357-2.108 0-2.108-1.352 0-1.358 2.108 0 2.108Zm-1.4-4.194c1.357 0 1.357-2.102 0-2.102-1.352 0-1.357 2.102 0 2.102Zm-2.271-3.84c1.357 0 1.357-2.107 0-2.107-1.352 0-1.357 2.108 0 2.108Zm-2.704-3.58c1.352 0 1.357-2.107 0-2.107s-1.357 2.107 0 2.107Zm-3.586-3.49c1.357 0 1.357-2.108 0-2.108-1.352 0-1.357 2.107 0 2.107Zm-3.401-4.02c1.357 0 1.357-2.107 0-2.107s-1.357 2.107 0 2.107Zm.961 58.537c-.681 0-.681 1.051 0 1.051.676 0 .676-1.05 0-1.05Zm1.975-5.244c-.676 0-.676 1.056 0 1.056.682 0 .682-1.056 0-1.056Zm2.335-5.355c-.682 0-.682 1.05 0 1.05.676 0 .676-1.05 0-1.05Zm1.98-3.375c.671 0 .676-1.05 0-1.05-.681 0-.681 1.05 0 1.05Zm1.511-4.425c.676 0 .681-1.051 0-1.051-.676 0-.676 1.05 0 1.05Zm1.515-3.84c.676 0 .676-1.05 0-1.05-.681 0-.681 1.05 0 1.05Zm-9.606 29.654c.016.01.042.006.063.016.021.005.037.027.058.037a.644.644 0 0 0 .201.037.525.525 0 0 0 .486-.327l14.19-34.344a.527.527 0 0 0-.29-.687c-.005-.005-.021-.005-.026-.01-.016 0-.016-.011-.032-.016a.527.527 0 0 0-.687.285L99.657 82.356a.524.524 0 0 0 .29.686ZM64.257 2.208c.676 0 .676-1.051 0-1.051-.681 0-.681 1.05 0 1.05Zm6.227 2.682c.68 0 .676-1.05 0-1.05s-.676 1.05 0 1.05Zm5.709 3.491c.676 0 .676-1.05 0-1.05-.682 0-.682 1.05 0 1.05Zm5.122 4.368c.676 0 .676-1.051 0-1.051-.68 0-.68 1.05 0 1.05Zm-5.18 26.163c-1.358 0-1.358 2.102 0 2.102 1.357 0 1.352-2.102 0-2.102Zm1.22-4.806c-1.358 0-1.353 2.108 0 2.108 1.357 0 1.357-2.108 0-2.108Zm1.399-2.086c1.357 0 1.352-2.102 0-2.102-1.357 0-1.357 2.102 0 2.102Zm2.27-3.84c1.358 0 1.353-2.107 0-2.107-1.356 0-1.356 2.108 0 2.108Zm2.705-3.58c1.357 0 1.357-2.107 0-2.107s-1.352 2.107 0 2.107Zm3.58-3.49c1.358 0 1.353-2.108 0-2.108-1.357 0-1.351 2.107 0 2.107Zm3.407-4.02c1.357 0 1.357-2.107 0-2.107s-1.352 2.107 0 2.107Zm-.956 59.588c.676 0 .67-1.05 0-1.05-.681 0-.681 1.05 0 1.05Zm-1.986-5.239c.682 0 .682-1.056 0-1.056-.676 0-.67 1.056 0 1.056Zm-2.329-5.36c.682 0 .682-1.051 0-1.051-.676 0-.676 1.05 0 1.05Zm-1.975-4.426c.676 0 .676-1.05 0-1.05-.681 0-.681 1.05 0 1.05Zm-1.516-4.425c.682 0 .676-1.051 0-1.051s-.676 1.05 0 1.05Zm-1.51-3.84c.67 0 .67-1.05 0-1.05-.681 0-.681 1.05 0 1.05ZM85.482 40c.576 2.007 1.77 3.77 2.403 5.757.65 2.044.476 4.15.09 6.226-.396 2.102-1.02 4.21-.95 6.37.057 1.864.84 3.422 1.843 4.953 1.15 1.759 2.471 3.396 3.718 5.08.66.893 1.315 1.807 1.885 2.768V60.602l-1.61 2.123a.535.535 0 0 1-.423.212.525.525 0 0 1-.417-.845l2.45-3.233v-6.738l-3.375 4.098a.52.52 0 0 1-.74.074.523.523 0 0 1-.078-.74l4.193-5.09v-5.488l-2.55 3.317a.527.527 0 0 1-.74.095.523.523 0 0 1-.095-.734l3.385-4.405v-5.577l-3.02 3.871a.52.52 0 0 1-.413.2.528.528 0 0 1-.417-.85l3.834-4.916a.345.345 0 0 1 .016-.042v-5.688l-4.22 5.022a.52.52 0 0 1-.744.063.532.532 0 0 1-.064-.744l5.023-5.973c0-.006 0-.01.005-.016v-4.479c-.93 1.98-2.324 3.798-3.713 5.234-2.825 2.92-6.59 6.105-5.276 10.647Zm10.04-15.88v4.478c0 .005 0 .01.005.016l5.023 5.973a.532.532 0 0 1-.402.871.523.523 0 0 1-.406-.19l-4.22-5.022v5.688c.005.01.01.026.016.042l3.834 4.917c.18.232.137.56-.095.739a.53.53 0 0 1-.74-.09l-3.015-3.87v5.576l3.385 4.405a.523.523 0 0 1-.417.845.52.52 0 0 1-.417-.206l-2.551-3.317v5.482l4.188 5.096a.522.522 0 0 1-.074.74.49.49 0 0 1-.333.121.512.512 0 0 1-.406-.195l-3.375-4.104v6.744l2.45 3.233a.53.53 0 0 1-.1.739.56.56 0 0 1-.322.106.533.533 0 0 1-.417-.212l-1.611-2.123v10.552c.57-.961 1.225-1.875 1.885-2.767 1.247-1.685 2.567-3.322 3.718-5.08 1.004-1.532 1.785-3.09 1.844-4.955.068-2.16-.55-4.267-.946-6.369-.391-2.075-.57-4.182.079-6.226.634-1.986 1.833-3.75 2.414-5.757 1.31-4.542-2.451-7.726-5.281-10.647-1.39-1.436-2.784-3.253-3.713-5.234Zm-10.61 17.417c-.782-1.907-1.046-3.919-.343-5.894C85.255 33.7 86.59 32.068 88 30.6c1.611-1.674 3.259-3.19 4.5-5.18.967-1.553 1.796-3.328 1.96-5.17a7.27 7.27 0 0 1 .01-1.268v-.011a.419.419 0 0 1 .306-.47.485.485 0 0 1 .438 0c.19.058.333.211.307.476a8.5 8.5 0 0 1 .01 1.277c.164 1.838.993 3.613 1.96 5.166 1.246 1.99 2.883 3.506 4.5 5.18 1.41 1.469 2.746 3.1 3.432 5.044.703 1.975.439 3.987-.343 5.894-.803 1.97-2.028 3.84-2.303 5.984-.279 2.154.28 4.31.713 6.4.418 2.034.782 4.146.307 6.2-.375 1.638-1.321 3.096-2.261 4.458-1.103 1.584-2.308 3.09-3.443 4.642-.966 1.315-1.975 2.699-2.556 4.236-.005.026-.01.037-.016.058v6.406a.525.525 0 1 1-1.051 0v-6.406c-.005-.021-.01-.037-.01-.058-.587-1.537-1.596-2.92-2.562-4.236-1.135-1.552-2.345-3.058-3.438-4.642-.95-1.362-1.89-2.82-2.271-4.457-.47-2.055-.11-4.167.312-6.2.433-2.092.993-4.247.713-6.401-.275-2.145-1.495-4.014-2.303-5.984ZM56.076 1.199c.55-.122.518-1.03-.116-1.03-.116 0-.2.032-.275.084a.47.47 0 0 0-.258.132c-.444.45.174 1.115.65.814Zm-5.07 6.496c.48-.476-.264-1.22-.744-.745-.476.48.264 1.225.744.745Zm-2.508 6.3c.48-.475-.264-1.225-.745-.744-.48.48.264 1.225.745.744Zm-1.563 6.507c.48-.48-.265-1.226-.745-.745-.48.475.259 1.22.745.745Zm-.54 6.707c.481-.475-.258-1.22-.744-.745-.475.48.264 1.226.745.745Zm23.655 16.33c.956-.962-.528-2.45-1.489-1.49-.956.956.528 2.446 1.49 1.49Zm-4.261-2.535c.96-.956-.529-2.446-1.49-1.49-.956.961.534 2.45 1.49 1.49Zm-3.95-1.976c.955-.956-.534-2.445-1.49-1.489-.961.961.528 2.45 1.49 1.49Zm-4.326-1.109c.961-.96-.523-2.45-1.49-1.494-.955.96.534 2.45 1.49 1.494Zm-4.447-.623c.961-.956-.528-2.445-1.484-1.484-.961.956.528 2.45 1.484 1.484Zm-4.996.069c.956-.961-.534-2.45-1.49-1.495-.96.961.523 2.45 1.49 1.495Zm-5.255-.439c.961-.956-.528-2.445-1.49-1.489-.95.961.534 2.456 1.49 1.49ZM84.891 77.64c-.486.48.259 1.225.744.744.476-.475-.269-1.22-.744-.744Zm-2.308-5.102c-.48.475.264 1.225.745.745.48-.481-.264-1.226-.745-.745Zm-2.139-5.44c-.48.48.264 1.225.745.745.475-.475-.27-1.22-.745-.745Zm-1.732-4.526c-.476.48.27 1.225.744.745.481-.48-.264-1.225-.744-.745Zm-2.055-4.198c-.486.48.26 1.225.74.744.48-.48-.264-1.225-.74-.744Zm-.908-3.048c.48-.475-.264-1.22-.745-.744-.475.486.27 1.23.745.744Zm13.488 27.479c.085.206.28.327.486.327a.641.641 0 0 0 .2-.037c.022-.01.038-.032.059-.037.021-.01.042-.005.069-.016a.526.526 0 0 0 .285-.686L76.082 48.033a.532.532 0 0 0-.692-.285c-.01.005-.016.016-.027.016-.01.005-.02.005-.026.01a.523.523 0 0 0-.29.687l14.19 34.344Zm-34.201-17.55c1.901.982 3.269 2.598 4.463 4.341 1.209 1.77 2.255 3.692 3.828 5.176 1.363 1.273 3.021 1.827 4.812 2.197 2.054.428 4.15.65 6.221.961 1.088.17 2.202.343 3.28.618l-7.452-7.457.364 2.646a.513.513 0 0 1-.148.443.47.47 0 0 1-.3.148.514.514 0 0 1-.592-.449l-.56-4.019-4.764-4.763.518 5.286a.521.521 0 0 1-.47.576.52.52 0 0 1-.576-.47l-.644-6.565-3.877-3.876.544 4.145a.525.525 0 0 1-.46.591.523.523 0 0 1-.585-.453l-.718-5.503-3.946-3.945.602 4.869a.525.525 0 1 1-1.046.127l-.765-6.19c-.01-.01-.01-.021-.021-.037l-4.025-4.024.57 6.538a.516.516 0 0 1-.152.417.544.544 0 0 1-.328.153.53.53 0 0 1-.57-.48l-.67-7.774c-.006-.005-.011-.016-.011-.016l-3.206-3.206c.76 2.065 1.083 4.352 1.114 6.37.064 4.055-.343 8.972 3.797 11.26 1.828 1.008 3.92 1.404 5.773 2.365Zm-9.94-20.74 3.206 3.206c.006.006.006.006.016.006l7.774.676a.53.53 0 0 1 .328.903.53.53 0 0 1-.418.148l-6.538-.57 4.025 4.023c.01.006.026.011.042.022l6.19.765a.524.524 0 0 1 .3.893.51.51 0 0 1-.433.153l-4.869-.602 3.945 3.945 5.503.718c.29.037.491.301.454.592a.503.503 0 0 1-.153.3.523.523 0 0 1-.438.149l-4.146-.539 3.877 3.877 6.564.644a.525.525 0 1 1-.1 1.046l-5.292-.518 4.769 4.769 4.019.555a.518.518 0 0 1 .444.591.526.526 0 0 1-.148.301.534.534 0 0 1-.444.148l-2.64-.37 7.451 7.457c-.274-1.077-.449-2.186-.612-3.28-.317-2.075-.539-4.166-.967-6.22-.375-1.791-.924-3.45-2.202-4.812-1.479-1.574-3.406-2.625-5.17-3.834-1.738-1.188-3.36-2.55-4.342-4.457-.96-1.854-1.357-3.946-2.366-5.773-2.292-4.14-7.203-3.734-11.264-3.797-2.018-.032-4.3-.354-6.364-1.114Zm10.716 22.467c-1.716-1.326-3.897-1.785-5.862-2.604-1.901-.797-3.512-2.033-4.41-3.929-.892-1.859-1.098-3.96-1.14-5.994-.048-2.324.047-4.558-.481-6.84-.423-1.81-1.104-3.68-2.33-5.112-.29-.264-.585-.533-.834-.84-.195-.163-.206-.358-.121-.527a.407.407 0 0 1 .121-.217.533.533 0 0 1 .217-.127.414.414 0 0 1 .528.127c.306.248.576.544.84.84 1.431 1.22 3.3 1.901 5.107 2.324 2.286.528 4.52.438 6.844.48 2.034.037 4.13.254 5.995 1.136 1.89.908 3.131 2.514 3.923 4.415.824 1.96 1.278 4.146 2.604 5.862 1.331 1.711 3.243 2.846 5.028 4.019 1.737 1.14 3.486 2.377 4.605 4.162.887 1.425 1.252 3.12 1.547 4.758.344 1.896.555 3.808.85 5.714.249 1.611.513 3.306 1.19 4.806.01.01.015.027.025.037l4.537 4.542a.526.526 0 1 1-.745.745l-4.536-4.542c-.016-.005-.032-.01-.042-.021-1.5-.676-3.19-.935-4.812-1.189-1.9-.295-3.818-.507-5.714-.85-1.627-.29-3.327-.66-4.748-1.547-1.785-1.12-3.031-2.868-4.167-4.6-1.177-1.785-2.302-3.708-4.019-5.028Zm18.79 59.842c1.279-1.357 1.828-3.021 2.203-4.806.428-2.054.65-4.146.967-6.221.163-1.094.338-2.203.612-3.28l-7.451 7.457 2.64-.37a.534.534 0 0 1 .444.148c.079.08.132.185.148.301a.518.518 0 0 1-.444.592l-4.02.554-4.768 4.769 5.292-.517a.535.535 0 0 1 .575.47.527.527 0 0 1-.475.575l-6.565.645-3.876 3.876 4.146-.538a.52.52 0 0 1 .438.147c.085.08.138.185.153.301a.526.526 0 0 1-.454.592l-5.503.718-3.945 3.945 4.87-.602a.51.51 0 0 1 .432.153.524.524 0 0 1-.301.893l-6.19.766c-.015.005-.03.016-.041.016l-4.025 4.024 6.538-.565a.511.511 0 0 1 .418.148.54.54 0 0 1 .153.332.521.521 0 0 1-.48.565l-7.78.682c-.005 0-.005 0-.01.005l-3.206 3.206c2.065-.766 4.346-1.083 6.364-1.115 4.06-.063 8.972.344 11.264-3.797 1.01-1.827 1.405-3.919 2.366-5.772.983-1.902 2.604-3.269 4.342-4.458 1.763-1.209 3.691-2.26 5.17-3.839Zm-30.25 18.236 3.206-3.206s.005-.01.01-.016l.67-7.774a.53.53 0 0 1 .571-.48c.132.01.243.069.328.153a.517.517 0 0 1 .153.417l-.57 6.533 4.024-4.019c.01-.016.01-.026.021-.037l.766-6.189a.527.527 0 0 1 .892-.312.55.55 0 0 1 .153.438l-.602 4.87 3.946-3.945.718-5.504a.523.523 0 0 1 .586-.454.56.56 0 0 1 .306.148.535.535 0 0 1 .153.444l-.544 4.146 3.877-3.877.644-6.564a.518.518 0 0 1 .576-.471.522.522 0 0 1 .47.576l-.518 5.287 4.764-4.764.56-4.019a.521.521 0 0 1 .892-.301.513.513 0 0 1 .148.444l-.364 2.645 7.452-7.457c-1.078.275-2.192.449-3.28.618-2.07.307-4.167.534-6.221.961-1.79.37-3.449.925-4.811 2.197-1.574 1.484-2.62 3.407-3.83 5.176-1.193 1.743-2.56 3.359-4.462 4.341-1.854.961-3.945 1.358-5.773 2.366-4.14 2.287-3.733 7.199-3.797 11.26-.031 2.017-.354 4.304-1.114 6.369Zm27.489-14.729c-1.785 1.167-3.697 2.297-5.028 4.013-1.326 1.717-1.78 3.903-2.604 5.863-.792 1.901-2.033 3.506-3.924 4.415-1.864.882-3.96 1.098-5.994 1.135-2.323.042-4.557-.047-6.844.481-1.806.422-3.676 1.104-5.107 2.324a8.113 8.113 0 0 1-.792.792l-.048.047h-.005a.418.418 0 0 1-.523.127.523.523 0 0 1-.217-.127.406.406 0 0 1-.121-.216c-.085-.169-.074-.365.121-.528a8.38 8.38 0 0 1 .835-.84c1.225-1.431 1.906-3.301 2.329-5.107.528-2.287.433-4.521.48-6.845.043-2.033.249-4.135 1.141-5.994.898-1.896 2.509-3.132 4.41-3.929 1.965-.819 4.146-1.278 5.862-2.604 1.717-1.32 2.842-3.242 4.02-5.027 1.135-1.733 2.381-3.486 4.166-4.6 1.42-.893 3.121-1.257 4.748-1.548 1.896-.343 3.813-.554 5.714-.85 1.622-.254 3.312-.512 4.812-1.188.01-.011.026-.016.042-.022l4.536-4.541a.526.526 0 1 1 .745.744l-4.537 4.542c-.01.011-.015.021-.026.037-.676 1.5-.94 3.195-1.188 4.806-.296 1.907-.507 3.818-.85 5.714-.296 1.638-.66 3.333-1.548 4.759-1.12 1.785-2.868 3.021-4.605 4.167Zm63.116-5.266c-1.906-.982-3.269-2.598-4.457-4.341-1.21-1.769-2.266-3.692-3.84-5.176-1.362-1.272-3.015-1.827-4.806-2.197-2.054-.427-4.145-.654-6.221-.961-1.093-.169-2.202-.343-3.28-.618l7.452 7.457-.364-2.645a.517.517 0 0 1 .153-.444.472.472 0 0 1 .296-.153.529.529 0 0 1 .596.454l.555 4.019 4.758 4.764-.512-5.287a.54.54 0 0 1 .153-.428.517.517 0 0 1 .322-.148.527.527 0 0 1 .576.471l.634 6.564 3.882 3.877-.539-4.146a.535.535 0 0 1 .148-.444.561.561 0 0 1 .301-.148.534.534 0 0 1 .597.454l.713 5.504 3.945 3.945-.602-4.87a.545.545 0 0 1 .147-.438.532.532 0 0 1 .898.312l.766 6.189c.005.011.016.021.021.037l4.019 4.019-.565-6.533a.5.5 0 0 1 .153-.417.518.518 0 0 1 .322-.153c.291-.021.55.19.571.48l.681 7.774a.05.05 0 0 0 .005.016l3.201 3.206c-.761-2.065-1.078-4.352-1.109-6.369-.064-4.061.343-8.973-3.798-11.26-1.827-1.008-3.923-1.405-5.772-2.366Zm9.934 20.74-3.195-3.206c-.011-.005-.016-.005-.021-.005l-7.774-.682a.522.522 0 0 1-.481-.565.568.568 0 0 1 .148-.332.536.536 0 0 1 .423-.148l6.533.565-4.02-4.024c-.015 0-.026-.011-.036-.016l-6.19-.766a.524.524 0 0 1-.312-.893.528.528 0 0 1 .439-.153l4.869.602-3.945-3.945-5.503-.718a.53.53 0 0 1-.454-.592.532.532 0 0 1 .591-.448l4.146.538-3.882-3.876-6.559-.645a.519.519 0 0 1-.47-.575.457.457 0 0 1 .148-.317.521.521 0 0 1 .422-.153l5.292.517-4.764-4.769-4.024-.554a.522.522 0 0 1-.449-.592.531.531 0 0 1 .148-.301.54.54 0 0 1 .444-.148l2.646.37-7.452-7.457c.274 1.077.454 2.186.612 3.28.312 2.075.534 4.167.967 6.221.369 1.785.924 3.449 2.202 4.806 1.479 1.579 3.401 2.63 5.17 3.839 1.743 1.189 3.359 2.556 4.342 4.458.955 1.853 1.362 3.945 2.366 5.772 2.286 4.141 7.198 3.734 11.264 3.797 2.013.032 4.299.349 6.359 1.115Zm-10.705-22.467c1.706 1.326 3.898 1.785 5.857 2.604 1.901.797 3.507 2.033 4.41 3.929.887 1.859 1.104 3.961 1.141 5.994.042 2.324-.048 4.558.485 6.845.418 1.806 1.099 3.676 2.324 5.107.296.264.581.539.835.84.19.158.206.359.126.522a.513.513 0 0 1-.126.222.516.516 0 0 1-.222.127c-.164.074-.365.069-.518-.127a7.524 7.524 0 0 1-.845-.839c-1.426-1.22-3.301-1.902-5.107-2.324-2.287-.528-4.515-.439-6.839-.481-2.039-.037-4.14-.253-6.005-1.135-1.89-.909-3.126-2.514-3.918-4.415-.824-1.96-1.284-4.146-2.604-5.863-1.326-1.716-3.248-2.846-5.033-4.013-1.732-1.146-3.48-2.382-4.6-4.167-.887-1.426-1.257-3.121-1.548-4.759-.343-1.896-.554-3.807-.85-5.714-.253-1.611-.512-3.306-1.188-4.806-.016-.01-.016-.026-.021-.037l-4.542-4.542a.526.526 0 1 1 .745-.744l4.541 4.541c.011.006.022.006.037.022 1.5.676 3.196.934 4.806 1.188 1.907.296 3.824.507 5.72.85 1.632.291 3.327.655 4.748 1.548 1.79 1.114 3.026 2.867 4.167 4.6 1.177 1.785 2.302 3.707 4.024 5.027ZM115.39 63.491c-1.278 1.363-1.833 3.021-2.202 4.811-.433 2.055-.655 4.146-.967 6.222-.158 1.093-.338 2.202-.612 3.28l7.452-7.458-2.646.37a.54.54 0 0 1-.444-.148.528.528 0 0 1 .301-.892l4.024-.555 4.764-4.769-5.292.517a.522.522 0 0 1-.422-.153.457.457 0 0 1-.148-.316.517.517 0 0 1 .47-.576l6.559-.645 3.882-3.876-4.146.539a.529.529 0 0 1-.591-.449.53.53 0 0 1 .454-.592l5.503-.718 3.95-3.945-4.874.602a.528.528 0 0 1-.127-1.046l6.19-.765a.084.084 0 0 1 .036-.022l4.02-4.024-6.533.57a.557.557 0 0 1-.423-.147.587.587 0 0 1-.148-.333.53.53 0 0 1 .481-.57l7.774-.676c.005 0 .01 0 .021-.006l3.195-3.205c-2.06.765-4.346 1.082-6.359 1.114-4.066.063-8.978-.343-11.264 3.797-1.004 1.828-1.411 3.919-2.366 5.773-.983 1.906-2.599 3.269-4.342 4.457-1.769 1.21-3.691 2.26-5.17 3.834Zm30.246-18.225-3.201 3.2c0 .005-.005.01-.005.016l-.681 7.774a.528.528 0 0 1-.571.48.547.547 0 0 1-.322-.153.499.499 0 0 1-.153-.417l.565-6.538-4.019 4.024c-.005.016-.016.027-.021.037l-.766 6.19a.527.527 0 0 1-.586.46.56.56 0 0 1-.312-.149.539.539 0 0 1-.147-.438l.602-4.87-3.945 3.946-.713 5.503a.534.534 0 0 1-.597.454.526.526 0 0 1-.301-.148.535.535 0 0 1-.148-.444l.539-4.145-3.882 3.876-.634 6.565a.53.53 0 0 1-.898.322.54.54 0 0 1-.153-.428l.512-5.286-4.758 4.763-.555 4.02a.521.521 0 0 1-.596.448.444.444 0 0 1-.296-.148.517.517 0 0 1-.153-.443l.364-2.646-7.452 7.457c1.078-.275 2.187-.449 3.28-.618 2.076-.312 4.167-.533 6.221-.961 1.791-.37 3.444-.924 4.806-2.197 1.574-1.484 2.63-3.407 3.84-5.176 1.188-1.743 2.551-3.359 4.457-4.34 1.849-.962 3.945-1.358 5.772-2.367 4.141-2.287 3.734-7.204 3.798-11.26.031-2.017.348-4.304 1.109-6.363Zm-27.489 14.729c1.785-1.172 3.707-2.308 5.033-4.02 1.32-1.715 1.78-3.902 2.604-5.861.792-1.901 2.028-3.507 3.918-4.415 1.865-.882 3.966-1.099 6.005-1.136 2.324-.042 4.552.048 6.839-.48 1.806-.423 3.681-1.104 5.107-2.324.264-.296.534-.592.845-.84a.406.406 0 0 1 .523-.127.488.488 0 0 1 .343.349c.08.164.064.359-.126.517v.006l-.053.047a7.913 7.913 0 0 1-.782.792c-1.225 1.432-1.906 3.301-2.324 5.113-.533 2.281-.443 4.515-.485 6.839-.037 2.033-.254 4.135-1.141 5.994-.903 1.896-2.509 3.132-4.41 3.93-1.959.818-4.151 1.277-5.857 2.603-1.722 1.32-2.847 3.243-4.024 5.028-1.141 1.732-2.377 3.48-4.167 4.6-1.421.887-3.116 1.257-4.748 1.547-1.896.343-3.813.555-5.72.85-1.61.254-3.306.513-4.806 1.189a.23.23 0 0 1-.037.02l-4.541 4.543a.512.512 0 0 1-.375.153.526.526 0 0 1-.37-.898l4.542-4.542c.005-.01.005-.026.021-.037.676-1.5.935-3.195 1.188-4.806.296-1.906.507-3.818.85-5.714.291-1.637.661-3.333 1.548-4.758 1.12-1.785 2.868-3.021 4.6-4.162ZM7.531 51.17c.48-.475-.264-1.22-.745-.745-.475.48.27 1.226.745.745Zm6.3-2.509c.481-.48-.263-1.225-.744-.744-.48.475.264 1.22.745.744Zm6.507-1.568c.48-.476-.264-1.22-.745-.745-.48.486.265 1.23.745.745Zm6.707-.534c.486-.48-.259-1.22-.744-.744-.476.48.269 1.225.744.744Zm16.33 23.655c.956-.961-.528-2.445-1.49-1.49-.96.962.534 2.446 1.49 1.49Zm-2.535-4.262c.961-.961-.528-2.445-1.49-1.49-.955.962.534 2.446 1.49 1.49Zm-1.975-3.95c.96-.961-.534-2.45-1.484-1.49-.967.962.528 2.446 1.484 1.49Zm-2.599-5.81c-.96.956.529 2.446 1.484 1.49.967-.961-.528-2.45-1.484-1.49Zm.872-2.962c.956-.956-.534-2.446-1.49-1.49-.96.967.529 2.45 1.49 1.49Zm-1.431-6.491c-.956.961.533 2.45 1.489 1.49.961-.957-.528-2.446-1.49-1.49Zm1.061-3.755c.956-.961-.533-2.45-1.49-1.49-.96.957.529 2.446 1.49 1.49Zm40.708 42.065c-.48.48.264 1.225.745.745.48-.48-.264-1.22-.745-.745Zm-5.102-2.308c-.48.486.264 1.23.745.745.475-.475-.27-1.22-.745-.745Zm-5.44-2.133c-.475.48.27 1.22.745.744.48-.486-.264-1.23-.744-.744Zm-4.526-1.733c-.475.481.27 1.226.745.745.48-.48-.264-1.225-.745-.745Zm-4.198-2.06c-.48.481.27 1.226.745.745.48-.48-.27-1.225-.745-.744Zm-3.787-1.647c-.48.48.264 1.225.745.745.48-.476-.264-1.22-.745-.745ZM1.035 56.24c.306-.475-.364-1.099-.813-.65a.528.528 0 0 0-.132.26.462.462 0 0 0-.09.274c0 .633.914.665 1.035.116Zm1.009 8.175c0-.67-1.051-.676-1.051 0 0 .682 1.05.682 1.05 0Zm2.677 6.232c0-.676-1.05-.676-1.05 0 0 .681 1.05.681 1.05 0Zm3.497 5.704c0-.67-1.051-.676-1.051 0 0 .681 1.05.681 1.05 0Zm4.367 5.128c0-.676-1.05-.681-1.05 0 0 .676 1.05.676 1.05 0Zm28.27-5.186c0-1.352-2.106-1.357-2.106 0s2.107 1.357 2.107 0Zm-4.805 1.225c0-1.352-2.107-1.357-2.107 0s2.107 1.357 2.107 0Zm-4.188 1.394c0-1.352-2.107-1.352-2.107 0 0 1.358 2.107 1.358 2.107 0Zm-3.845 2.271c0-1.352-2.107-1.357-2.107 0 0 1.358 2.107 1.358 2.107 0Zm-3.58 2.715c0-1.357-2.108-1.357-2.108 0 0 1.352 2.107 1.357 2.107 0Zm-3.492 3.575c0-1.352-2.107-1.357-2.107 0 0 1.358 2.107 1.358 2.107 0Zm-4.019 3.407c0-1.352-2.107-1.358-2.107 0 0 1.357 2.107 1.357 2.107 0Zm58.532-.962c0 .682 1.052.682 1.052 0 0-.675-1.052-.675-1.052 0Zm-5.239-1.975c0 .676 1.052.676 1.052 0 0-.681-1.052-.681-1.052 0Zm-5.355-2.334c0 .681 1.051.681 1.051 0 0-.67-1.05-.676-1.05 0Zm-4.425-1.975c0 .676 1.05.676 1.05 0 0-.681-1.05-.681-1.05 0Zm-4.426-1.516c0 .681 1.05.681 1.05 0 0-.676-1.05-.676-1.05 0Zm-3.84-1.51c0 .676 1.051.676 1.051 0 0-.682-1.05-.682-1.05 0Zm30.22 9.928a.527.527 0 0 0 .486-.322c.01-.026.005-.053.015-.084.006-.016.027-.027.032-.042a.526.526 0 0 0-.285-.687l-34.35-14.19a.538.538 0 0 0-.686.284v.037c-.005.006-.016.016-.02.022a.53.53 0 0 0 .284.691l34.323 14.25a.443.443 0 0 0 .2.041ZM0 134.197c0 .11.037.2.09.274a.53.53 0 0 0 .132.259c.449.444 1.12-.174.813-.65-.121-.554-1.035-.517-1.035.117Zm2.044-8.292c0-.681-1.051-.681-1.051 0 0 .676 1.05.671 1.05 0Zm2.677-6.232c0-.681-1.05-.681-1.05 0 0 .676 1.05.676 1.05 0Zm3.497-5.704c0-.686-1.051-.681-1.051 0 0 .671 1.05.671 1.05 0Zm4.367-5.128c0-.676-1.05-.676-1.05 0 0 .682 1.05.676 1.05 0Zm28.27 5.186c0-1.357-2.106-1.357-2.106 0 0 1.358 2.107 1.352 2.107 0Zm-4.805-1.225c0-1.357-2.107-1.357-2.107 0s2.107 1.357 2.107 0Zm-4.188-1.394c0-1.357-2.107-1.357-2.107 0s2.107 1.352 2.107 0Zm-3.845-2.271c0-1.357-2.107-1.357-2.107 0 0 1.352 2.107 1.352 2.107 0Zm-5.688-2.715c0 1.358 2.107 1.358 2.107 0 0-1.357-2.107-1.352-2.107 0Zm-3.49-3.575c0 1.357 2.106 1.352 2.106 0 0-1.357-2.107-1.357-2.107 0Zm-4.02-3.412c0 1.358 2.107 1.358 2.107 0 0-1.357-2.107-1.352-2.107 0Zm60.64.967c0 .676 1.05.676 1.05 0 0-.681-1.05-.681-1.05 0Zm-5.24 1.975c0 .681 1.052.681 1.052 0 0-.676-1.052-.676-1.052 0Zm-5.355 2.334c0 .676 1.051.671 1.051 0 0-.681-1.05-.681-1.05 0Zm-4.425 1.975c0 .682 1.05.682 1.05 0 0-.676-1.05-.676-1.05 0Zm-4.426 1.516c0 .676 1.05.676 1.05 0 0-.681-1.05-.681-1.05 0Zm-3.84 1.511c0 .681 1.051.681 1.051 0 0-.676-1.05-.676-1.05 0Zm-.353-7.526c2.102.391 4.203 1.014 6.364.945 1.87-.058 3.432-.84 4.959-1.843 1.758-1.151 3.395-2.472 5.08-3.718.887-.66 1.806-1.315 2.768-1.885H60.439l2.128 1.61a.546.546 0 0 1 .206.423c0 .11-.037.222-.106.317a.534.534 0 0 1-.74.1l-3.231-2.45h-6.744l4.108 3.38c.127.1.19.248.19.401a.547.547 0 0 1-.116.338.532.532 0 0 1-.744.069l-5.091-4.188h-5.482l3.311 2.55a.522.522 0 0 1 .096.735.519.519 0 0 1-.735.1l-4.405-3.385h-5.577l3.872 3.02a.52.52 0 0 1 .09.735.524.524 0 0 1-.74.095L35.812 95.7a.363.363 0 0 1-.042-.015h-5.688l5.023 4.22c.12.105.19.253.19.401a.532.532 0 0 1-.871.406L28.45 95.69c-.005 0-.01-.005-.016-.005h-4.473c1.975.924 3.792 2.318 5.229 3.712 2.915 2.826 6.105 6.591 10.646 5.282 2.007-.581 3.771-1.78 5.762-2.414 2.034-.65 4.146-.47 6.222-.079Zm-27.86-7.552h4.473c.005 0 .01-.006.016-.006l5.973-5.022a.523.523 0 0 1 .745.069.508.508 0 0 1 .127.338.538.538 0 0 1-.19.4l-5.023 4.22h5.688c.01-.005.026-.015.042-.015l4.917-3.834a.528.528 0 0 1 .74.09c.073.1.11.216.11.327a.52.52 0 0 1-.2.412l-3.872 3.02h5.577l4.405-3.385a.518.518 0 0 1 .734.095c.074.1.111.212.111.323a.513.513 0 0 1-.206.417l-3.311 2.55h5.482l5.09-4.193a.533.533 0 0 1 .745.074c.08.1.117.222.117.333a.516.516 0 0 1-.19.407l-4.11 3.38h6.745l3.232-2.45a.524.524 0 0 1 .845.416.538.538 0 0 1-.206.423l-2.128 1.61H70.99c-.962-.57-1.88-1.225-2.768-1.885-1.684-1.246-3.322-2.572-5.08-3.718-1.527-1.003-3.09-1.785-4.96-1.843-2.16-.069-4.261.555-6.363.945-2.076.391-4.188.57-6.222-.079-1.99-.639-3.755-1.832-5.761-2.408-4.542-1.315-7.732 2.45-10.648 5.276-1.436 1.389-3.253 2.788-5.228 3.713Zm29.797 9.02c-2.092-.428-4.246-.988-6.396-.713-2.15.275-4.019 1.495-5.983 2.303-1.912.781-3.924 1.045-5.9.343-1.943-.687-3.58-2.028-5.043-3.438-1.68-1.611-3.185-3.253-5.181-4.495-1.553-.966-3.322-1.795-5.17-1.954a8.54 8.54 0 0 1-1.273-.015.422.422 0 0 1-.476-.307.516.516 0 0 1 0-.438.42.42 0 0 1 .476-.306 8.54 8.54 0 0 1 1.273-.016c1.848-.159 3.617-.988 5.17-1.954 1.996-1.241 3.501-2.89 5.18-4.495 1.464-1.415 3.1-2.751 5.044-3.438 1.976-.702 3.988-.438 5.9.344 1.964.808 3.834 2.028 5.983 2.302 2.15.275 4.304-.285 6.396-.713 2.033-.417 4.146-.781 6.205-.306 1.632.375 3.09 1.315 4.447 2.26 1.585 1.099 3.09 2.303 4.648 3.444 1.315.96 2.698 1.98 4.235 2.556.021 0 .037.01.053.016h6.411c.296 0 .529.232.529.528 0 .29-.233.523-.529.523h-6.411c-.016.005-.032.015-.053.015-1.537.576-2.92 1.595-4.235 2.557-1.558 1.135-3.064 2.339-4.648 3.443-1.357.94-2.815 1.885-4.447 2.26-2.06.476-4.172.111-6.205-.306Zm-46.972 36.24c.481.475 1.226-.269.745-.745-.475-.48-1.22.264-.745.745Zm6.3 2.509c.482.48 1.226-.264.746-.745-.481-.475-1.226.264-.745.745Zm6.507 1.568c.481.475 1.226-.269.745-.745-.48-.48-1.225.259-.745.745Zm6.708.534c.486.475 1.23-.27.744-.745-.475-.481-1.22.264-.744.745Zm17.074-24.4c-.956-.961-2.45.528-1.49 1.489.962.956 2.446-.528 1.49-1.489Zm-2.535 4.257c-.956-.956-2.445.533-1.49 1.494.962.956 2.451-.528 1.49-1.494Zm-1.975 3.955c-.956-.961-2.45.529-1.484 1.49.95.961 2.445-.528 1.484-1.49Zm-1.115 4.321c-.956-.956-2.445.533-1.484 1.489.956.961 2.45-.528 1.484-1.489Zm-.612 4.452c-.961-.962-2.45.522-1.49 1.489.956.956 2.446-.533 1.49-1.489Zm-1.431 6.49c.96.956 2.45-.533 1.489-1.489-.956-.961-2.445.523-1.49 1.489Zm1.061 3.755c-.961-.956-2.45.534-1.49 1.49.957.961 2.446-.529 1.49-1.49Zm40.708-42.065c.48.475 1.225-.269.745-.745-.481-.48-1.226.265-.745.745Zm-5.102 2.303c.476.48 1.22-.264.745-.745-.48-.481-1.225.264-.745.745Zm-5.44 2.139c.481.486 1.226-.259.745-.74-.475-.486-1.22.259-.744.74Zm-4.526 1.732c.481.48 1.226-.264.745-.745-.475-.48-1.22.264-.745.745Zm-4.198 2.06c.475.475 1.225-.264.745-.745-.476-.481-1.226.264-.745.745Zm-3.787 1.647c.48.476 1.225-.269.745-.744-.48-.481-1.225.264-.745.744Zm28.503-14.919c-.005-.021-.026-.037-.037-.058-.005-.021-.005-.048-.01-.069a.524.524 0 0 0-.687-.28L47.87 114.075a.53.53 0 0 0-.285.692c0 .005.016.01.021.021v.037c.09.201.28.322.491.322a.445.445 0 0 0 .196-.042l34.349-14.186a.526.526 0 0 0 .285-.686ZM50.262 183.37c.48.476 1.225-.269.744-.744-.48-.481-1.22.264-.744.744Zm-2.509-6.3c.48.475 1.225-.27.745-.745-.48-.481-1.225.264-.745.745Zm-1.563-6.507c.48.481 1.225-.264.745-.744-.486-.481-1.226.269-.745.744Zm.206-7.457c-.48-.475-1.22.269-.745.745.486.48 1.225-.264.745-.745Zm23.654-16.324c-.96-.956-2.445.533-1.489 1.489.961.961 2.445-.528 1.49-1.489Zm-4.261 2.535c-.956-.961-2.446.528-1.49 1.489.961.956 2.45-.533 1.49-1.489Zm-3.95 1.975c-.962-.961-2.451.528-1.49 1.489.956.956 2.445-.533 1.49-1.489Zm-5.816 2.598c.967.961 2.451-.528 1.49-1.489-.956-.956-2.445.528-1.49 1.489Zm-4.441.618c.956.961 2.445-.533 1.484-1.489-.956-.961-2.445.533-1.484 1.489Zm-5.001-.058c.955.956 2.445-.533 1.489-1.489-.967-.961-2.45.528-1.49 1.489Zm-5.255.433c.961.956 2.45-.533 1.49-1.489-.957-.967-2.44.528-1.49 1.489Zm43.565-42.202c.475.475 1.22-.27.744-.745-.485-.481-1.23.264-.744.745Zm-2.308 5.101c.48.481 1.225-.258.745-.744-.481-.481-1.226.264-.745.744Zm-2.139 5.44c.475.475 1.22-.269.745-.745-.48-.48-1.226.264-.745.745Zm-1.732 4.521c.48.486 1.225-.259.744-.74-.475-.48-1.22.265-.744.74Zm-2.055 4.204c.476.48 1.22-.264.74-.745s-1.226.264-.74.745Zm-.908 3.042c-.475-.481-1.22.264-.745.744.48.481 1.226-.264.745-.744Zm-19.673 54.133c-.475-.302-1.093.364-.65.813.08.079.17.116.26.132a.446.446 0 0 0 .274.084c.634 0 .666-.908.116-1.029Zm8.181-1.014c-.681 0-.681 1.05 0 1.05.676 0 .676-1.05 0-1.05Zm6.227-2.678c-.676 0-.676 1.051 0 1.051s.68-1.051 0-1.051Zm5.709-3.491c-.682 0-.682 1.051 0 1.051.676 0 .676-1.051 0-1.051Zm5.122-4.368c-.68 0-.68 1.051 0 1.051.676 0 .676-1.051 0-1.051Zm-5.18-28.27c-1.358 0-1.358 2.107 0 2.107 1.352 0 1.357-2.107 0-2.107Zm1.22 4.806c-1.353 0-1.358 2.107 0 2.107 1.357 0 1.357-2.107 0-2.107Zm1.399 4.193c-1.357 0-1.357 2.102 0 2.102 1.352 0 1.357-2.102 0-2.102Zm2.27 3.84c-1.356 0-1.356 2.107 0 2.107 1.353 0 1.358-2.107 0-2.107Zm2.705 3.58c-1.352 0-1.357 2.108 0 2.108s1.357-2.108 0-2.108Zm3.58 3.491c-1.351 0-1.357 2.107 0 2.107 1.353 0 1.358-2.107 0-2.107Zm3.407 4.019c-1.352 0-1.357 2.107 0 2.107s1.357-2.107 0-2.107Zm-.956-58.532c.67 0 .676-1.056 0-1.056-.681 0-.681 1.056 0 1.056Zm-1.986 5.239c.682 0 .682-1.056 0-1.056-.67 0-.676 1.056 0 1.056Zm-2.329 5.355c.682 0 .682-1.051 0-1.051-.676 0-.676 1.051 0 1.051Zm-1.975 3.375c-.681 0-.681 1.051 0 1.051.676 0 .676-1.051 0-1.051Zm-1.516 4.426c-.676 0-.676 1.051 0 1.051s.682-1.051 0-1.051Zm-1.51 3.839c-.681 0-.681 1.056 0 1.056.67 0 .67-1.056 0-1.056Zm9.607-29.654c-.027-.011-.048-.005-.07-.016-.02-.005-.036-.026-.057-.037a.524.524 0 0 0-.687.291l-14.19 34.344a.522.522 0 0 0 .29.686c.005.005.016.005.026.011.011 0 .016.01.027.016a.56.56 0 0 0 .206.042.532.532 0 0 0 .486-.328l14.254-34.317a.53.53 0 0 0-.285-.692Zm35.685 80.83c-.676 0-.676 1.05 0 1.05s.676-1.05 0-1.05Zm-6.227-2.678c-.676 0-.676 1.051 0 1.051s.676-1.051 0-1.051Zm-5.709-3.491c-.676 0-.676 1.051 0 1.051.682 0 .682-1.051 0-1.051Zm-5.122-4.368c-.682 0-.676 1.051 0 1.051s.676-1.051 0-1.051Zm5.18-26.163c1.358 0 1.358-2.107 0-2.107-1.357 0-1.352 2.107 0 2.107Zm-1.219 4.806c1.357 0 1.357-2.107 0-2.107-1.358 0-1.352 2.107 0 2.107Zm-1.4 2.086c-1.357 0-1.352 2.102 0 2.102 1.357 0 1.357-2.102 0-2.102Zm-2.271 3.84c-1.357 0-1.352 2.107 0 2.107 1.357 0 1.357-2.107 0-2.107Zm-2.704 3.58c-1.357 0-1.357 2.108 0 2.108s1.352-2.108 0-2.108Zm-3.586 3.491c-1.357 0-1.352 2.107 0 2.107 1.357 0 1.357-2.107 0-2.107Zm-3.401 4.019c-1.357 0-1.357 2.107 0 2.107s1.357-2.107 0-2.107Zm.961-59.588c-.681 0-.681 1.056 0 1.056.676 0 .676-1.056 0-1.056Zm1.975 5.239c-.676 0-.676 1.056 0 1.056.682 0 .682-1.056 0-1.056Zm2.335 5.36c-.682 0-.682 1.051 0 1.051.676 0 .676-1.051 0-1.051Zm1.98 4.426c-.681 0-.681 1.051 0 1.051.676 0 .671-1.051 0-1.051Zm1.511 4.426c-.676 0-.676 1.051 0 1.051.681 0 .676-1.051 0-1.051Zm1.515 3.839c-.681 0-.681 1.056 0 1.056.676 0 .676-1.056 0-1.056Zm-5.038 13.388c-.581-2.007-1.78-3.771-2.414-5.756-.649-2.044-.47-4.151-.079-6.227.396-2.102 1.014-4.209.946-6.369-.059-1.864-.84-3.422-1.844-4.954-1.15-1.759-2.471-3.396-3.718-5.081-.66-.892-1.315-1.811-1.885-2.767v10.552l1.61-2.123a.533.533 0 0 1 .418-.211c.11 0 .227.037.322.105a.53.53 0 0 1 .1.74l-2.45 3.232v6.739l3.375-4.099a.512.512 0 0 1 .406-.195c.122 0 .238.037.333.122a.522.522 0 0 1 .074.739l-4.188 5.091v5.487l2.55-3.316a.518.518 0 0 1 .418-.206c.11 0 .227.037.322.105a.53.53 0 0 1 .095.74l-3.385 4.404v5.577l3.016-3.871a.53.53 0 0 1 .739-.09c.232.18.275.507.095.74l-3.834 4.916c-.005.016-.01.032-.016.043v5.688l4.22-5.023a.522.522 0 0 1 .744-.063.531.531 0 0 1 .064.744l-5.023 5.974c-.005.005-.005.01-.005.015v4.479c.93-1.981 2.324-3.797 3.713-5.234 2.83-2.92 6.591-6.105 5.281-10.647Zm-10.045 15.881v-4.479c-.005-.005-.005-.01-.005-.015l-5.023-5.974a.531.531 0 0 1 .407-.871.52.52 0 0 1 .401.19l4.22 5.023v-5.688l-.016-.043-3.834-4.916a.529.529 0 0 1 .417-.851.52.52 0 0 1 .412.201l3.021 3.871v-5.577l-3.385-4.404a.53.53 0 0 1 .095-.74.563.563 0 0 1 .322-.105c.153 0 .311.068.417.206l2.551 3.316v-5.487l-4.193-5.091a.522.522 0 0 1 .079-.739.52.52 0 0 1 .74.073l3.374 4.099v-6.739l-2.45-3.232a.525.525 0 1 1 .84-.634l1.61 2.123v-10.552c-.57.961-1.225 1.875-1.885 2.767-1.247 1.685-2.567 3.322-3.718 5.081-1.004 1.532-1.785 3.09-1.844 4.954-.068 2.16.555 4.267.951 6.369.386 2.076.56 4.183-.09 6.227-.634 1.985-1.827 3.749-2.403 5.756-1.315 4.542 2.45 7.727 5.276 10.647 1.39 1.437 2.784 3.253 3.713 5.234Zm10.61-17.418c.782 1.907 1.046 3.919.343 5.894-.686 1.938-2.022 3.576-3.432 5.044-1.617 1.674-3.254 3.19-4.5 5.181-.967 1.547-1.796 3.327-1.96 5.165.027.428.027.855-.01 1.278.026.264-.116.417-.306.475a.5.5 0 0 1-.217.053.523.523 0 0 1-.222-.053.42.42 0 0 1-.306-.475v-.005a7.33 7.33 0 0 1-.01-1.273c-.164-1.838-.993-3.618-1.96-5.165-1.241-1.991-2.889-3.507-4.5-5.181-1.41-1.468-2.746-3.106-3.432-5.044-.703-1.975-.439-3.987.343-5.894.808-1.97 2.028-3.839 2.303-5.983.28-2.155-.28-4.31-.713-6.401-.423-2.033-.782-4.146-.312-6.2.38-1.638 1.32-3.095 2.27-4.458 1.094-1.584 2.304-3.089 3.439-4.642.966-1.315 1.975-2.699 2.561-4.236 0-.021.006-.037.011-.058v-6.411a.526.526 0 1 1 1.051 0v6.411c.005.016.01.032.016.058.58 1.537 1.59 2.921 2.556 4.236 1.135 1.553 2.34 3.058 3.443 4.642.94 1.363 1.886 2.82 2.261 4.458.475 2.054.111 4.167-.307 6.2-.433 2.091-.992 4.246-.713 6.401.275 2.144 1.5 4.013 2.303 5.983Zm28.836 40.339c-.55.121-.518 1.029.116 1.029a.443.443 0 0 0 .274-.084.458.458 0 0 0 .254-.132c.449-.449-.169-1.115-.644-.813Zm5.064-6.496c-.475.475.27 1.22.745.744.481-.48-.264-1.225-.745-.744Zm2.514-6.301c-.48.475.264 1.22.745.745.475-.481-.264-1.226-.745-.745Zm1.564-6.506c-.476.48.269 1.225.744.744.481-.475-.264-1.225-.744-.744Zm.533-6.713c-.475.481.269 1.225.745.745.48-.476-.264-1.22-.745-.745Zm-23.65-16.324c-.961.961.529 2.45 1.49 1.489.956-.956-.528-2.445-1.49-1.489Zm4.262 2.535c-.961.956.529 2.445 1.484 1.489.962-.961-.522-2.45-1.484-1.489Zm3.951 1.975c-.961.956.528 2.445 1.489 1.489.956-.961-.533-2.45-1.489-1.489Zm4.32 1.109c-.956.961.533 2.45 1.489 1.489.961-.961-.523-2.445-1.489-1.489Zm4.447.618c-.956.956.533 2.45 1.489 1.489.961-.956-.528-2.45-1.489-1.489Zm5.006-.058c-.961.956.528 2.445 1.49 1.489.956-.961-.534-2.45-1.49-1.489Zm5.25.433c-.961.956.528 2.445 1.484 1.489.961-.961-.528-2.456-1.484-1.489Zm-42.071-40.713c.476-.481-.269-1.226-.744-.745-.481.475.264 1.22.744.745Zm2.303 5.101c.481-.48-.264-1.225-.745-.744-.475.486.27 1.225.745.744Zm2.144 5.44c.476-.481-.269-1.225-.744-.745-.481.476.264 1.22.744.745Zm1.727 4.521c.481-.475-.264-1.22-.744-.74-.481.481.264 1.226.744.74Zm2.06 4.204c.475-.481-.269-1.226-.745-.745-.48.481.264 1.225.745.745Zm.898 3.042c-.476.48.264 1.225.744.744.481-.48-.258-1.225-.744-.744Zm-13.483-27.473a.523.523 0 0 0-.687-.291c-.021.011-.037.032-.058.037-.021.011-.047.005-.063.016a.528.528 0 0 0-.29.692l14.253 34.317c.085.201.28.328.486.328a.536.536 0 0 0 .201-.042c.016-.006.021-.016.032-.016.01-.006.021-.006.026-.011a.526.526 0 0 0 .29-.686l-14.19-34.344Zm81.701 31.634c-.481.476.269 1.22.744.745.481-.481-.264-1.225-.744-.745Zm-6.301 2.509c-.475.481.269 1.225.745.745.48-.481-.264-1.22-.745-.745Zm-6.501 1.568c-.481.476.264 1.22.745.745.48-.486-.27-1.225-.745-.745Zm-6.713.534c-.475.475.27 1.22.745.745.481-.481-.264-1.226-.745-.745Zm-16.324-23.655c-.961.961.533 2.445 1.489 1.489.962-.961-.528-2.45-1.489-1.489Zm2.53 4.257c-.956.966.538 2.45 1.489 1.494.961-.961-.528-2.45-1.489-1.494Zm1.98 3.955c-.961.962.528 2.451 1.49 1.49.955-.961-.534-2.451-1.49-1.49Zm2.599 5.81c.961-.956-.528-2.445-1.49-1.489-.956.961.534 2.45 1.49 1.489Zm-.872 2.963c-.956.956.528 2.445 1.49 1.489.961-.967-.534-2.451-1.49-1.489Zm1.426 6.49c.961-.966-.528-2.45-1.489-1.489-.956.956.539 2.445 1.489 1.489Zm-1.056 3.755c-.956.961.533 2.451 1.489 1.49.961-.956-.528-2.446-1.489-1.49Zm-40.713-42.065c.48-.48-.259-1.225-.745-.745-.475.476.269 1.22.745.745Zm5.112 2.303c.481-.481-.269-1.226-.745-.745-.486.481.259 1.225.745.745Zm5.429 2.139c.481-.481-.264-1.226-.745-.74-.48.481.27 1.226.745.74Zm4.531 1.732c.481-.481-.264-1.225-.744-.745-.481.481.264 1.225.744.745Zm4.199 2.06c.481-.481-.264-1.226-.745-.745-.48.481.264 1.22.745.745Zm3.787 1.647c.48-.48-.264-1.225-.745-.744-.481.475.269 1.22.745.744Zm53.393 18.928c-.311.476.359 1.094.808.65a.491.491 0 0 0 .132-.259.495.495 0 0 0 .085-.274c0-.634-.909-.671-1.025-.117Zm-1.019-8.175c0 .671 1.056.676 1.056 0 0-.681-1.056-.681-1.056 0Zm-2.678-6.232c0 .676 1.057.676 1.057 0 0-.681-1.057-.681-1.057 0Zm-3.491-5.704c0 .671 1.051.671 1.051 0 0-.681-1.051-.686-1.051 0Zm-4.367-5.128c0 .676 1.051.682 1.051 0 0-.676-1.051-.676-1.051 0Zm10.826 22.599a2.655 2.655 0 0 0 .243-2.023c-.369-1.326-1.695-2.123-3.026-1.896.835 2.54 1.278 4.457 1.41 5.091a2.683 2.683 0 0 0 1.373-1.172Zm-1.801 2.197c-.538.354-2.207 1.394-4.589 2.598a2.654 2.654 0 0 0 3.475.803c1.204-.676 1.664-2.155 1.114-3.401Zm-5.466 3.031a53.05 53.05 0 0 1-4.209 1.822c-.211.085-.443.164-.66.238.28.56.739 1.003 1.32 1.246.66.28 1.384.28 2.044.011 1.305-.528 1.949-1.997 1.505-3.317Zm-5.925 2.435a41.473 41.473 0 0 1-5.086 1.383 2.63 2.63 0 0 0 1.162 1.347 2.649 2.649 0 0 0 2.023.243 2.67 2.67 0 0 0 1.901-2.973Zm-6.01 1.568c-1.69.301-3.444.481-5.223.491.137.55.438 1.041.882 1.411a2.62 2.62 0 0 0 1.948.591 2.642 2.642 0 0 0 2.393-2.493Zm-6.375.46c-1.748-.069-3.501-.317-5.223-.814-.095 1.411.93 2.668 2.345 2.826a2.662 2.662 0 0 0 2.878-2.012Zm-22.493 16.467c.486 1.721.745 3.475.808 5.223 1.278-.322 2.16-1.537 2.007-2.878a2.655 2.655 0 0 0-2.815-2.345Zm.83 6.374a30.417 30.417 0 0 1-.492 5.223 2.662 2.662 0 0 0 2.498-2.392 2.614 2.614 0 0 0-.591-1.944 2.643 2.643 0 0 0-1.415-.887Zm.681 7.304a2.67 2.67 0 0 0-1.342-1.151 41.995 41.995 0 0 1-1.389 5.075 2.655 2.655 0 0 0 2.731-3.924Zm-3.106 4.986c-.079.221-.158.443-.242.66a57.018 57.018 0 0 1-1.817 4.204 2.652 2.652 0 0 0 3.301-3.544 2.606 2.606 0 0 0-1.242-1.32Zm-2.498 5.746c-1.198 2.382-2.244 4.05-2.593 4.589a2.663 2.663 0 0 0 3.401-1.12c.671-1.193.296-2.693-.808-3.469Zm-3.628 5.017a52.13 52.13 0 0 1-5.08-1.41 2.625 2.625 0 0 0 1.89 3.021c1.326.375 2.699-.344 3.19-1.611Zm-6.01-1.727a49.856 49.856 0 0 1-4.262-1.685c-.211-.09-.422-.195-.644-.29a2.658 2.658 0 0 0 .063 1.806c.27.66.777 1.178 1.437 1.447.655.28 1.378.28 2.033.016a2.626 2.626 0 0 0 1.373-1.294Zm-5.91-2.461a41.577 41.577 0 0 1-4.573-2.614 2.631 2.631 0 0 0 1.13 3.369 2.625 2.625 0 0 0 2.023.238 2.642 2.642 0 0 0 1.42-.993Zm-5.355-3.148a31.085 31.085 0 0 1-4.04-3.343 2.638 2.638 0 0 0 .586 3.422 2.663 2.663 0 0 0 3.454-.079Zm-4.843-4.177c-1.183-1.284-2.249-2.699-3.116-4.262a2.658 2.658 0 0 0-.332 3.649 2.633 2.633 0 0 0 3.448.613Zm-27.541-4.262a22.003 22.003 0 0 1-3.116 4.262c1.13.676 2.609.443 3.448-.613a2.653 2.653 0 0 0-.332-3.649Zm-3.92 5.096a30.717 30.717 0 0 1-4.04 3.343c.962.856 2.43.919 3.455.079a2.654 2.654 0 0 0 .96-1.8 2.634 2.634 0 0 0-.374-1.622Zm-4.816 3.877a42.489 42.489 0 0 1-4.573 2.614c.348.475.84.834 1.42.993.687.195 1.4.111 2.023-.238 1.194-.671 1.653-2.134 1.13-3.369Zm-5.587 3.1c-.211.095-.428.2-.64.29a50.487 50.487 0 0 1-4.261 1.685c.29.586.766 1.046 1.368 1.294.66.264 1.383.264 2.044-.016a2.635 2.635 0 0 0 1.489-3.253Zm-5.83 2.292a52.572 52.572 0 0 1-5.081 1.41 2.655 2.655 0 0 0 4.795.354 2.662 2.662 0 0 0 .285-1.764Zm-6.111.982c-.354-.544-1.4-2.207-2.598-4.589-1.11.776-1.48 2.276-.803 3.469.676 1.21 2.16 1.669 3.4 1.12Zm-3.032-5.471a54.472 54.472 0 0 1-1.822-4.204c-.084-.217-.163-.439-.248-.66a2.666 2.666 0 0 0-1.236 1.32 2.655 2.655 0 0 0 3.306 3.544Zm-2.44-5.926a42.272 42.272 0 0 1-1.388-5.075 2.618 2.618 0 0 0-1.337 1.151 2.642 2.642 0 0 0-.242 2.028c.364 1.31 1.652 2.097 2.968 1.896Zm-1.557-6.005a30.348 30.348 0 0 1-.492-5.223 2.645 2.645 0 0 0-1.415.887 2.592 2.592 0 0 0-.591 1.944 2.645 2.645 0 0 0 2.498 2.392Zm-.476-6.374c.074-1.748.322-3.502.814-5.223a2.622 2.622 0 0 0-1.828.565 2.63 2.63 0 0 0-.987 1.78 2.666 2.666 0 0 0 2.001 2.878ZM32.56 140.317c-1.722.497-3.47.745-5.218.814a2.657 2.657 0 0 0 2.873 2.012c1.415-.158 2.44-1.415 2.345-2.826Zm-6.375.845c-1.78-.01-3.538-.19-5.223-.491.032.56.227 1.094.592 1.532a2.63 2.63 0 0 0 1.795.961c1.331.148 2.52-.739 2.836-2.002Zm-6.147-.676a40.86 40.86 0 0 1-5.08-1.383 2.652 2.652 0 0 0 3.918 2.73 2.63 2.63 0 0 0 1.162-1.347Zm-6.142-1.758c-.217-.074-.449-.153-.66-.238a51.372 51.372 0 0 1-4.204-1.822c-.444 1.32.195 2.789 1.505 3.317 1.283.528 2.736-.042 3.359-1.257Zm-5.746-2.493c-2.382-1.204-4.05-2.244-4.59-2.598-.549 1.246-.09 2.725 1.115 3.401 1.199.676 2.699.306 3.475-.803Zm-5.017-3.628a52.56 52.56 0 0 1 1.41-5.086 2.673 2.673 0 0 0-3.026 1.896 2.662 2.662 0 0 0 1.616 3.19Zm.438-7.383a2.63 2.63 0 0 0 1.283 1.373 55.774 55.774 0 0 1 1.69-4.262c.096-.206.196-.428.296-.639a2.654 2.654 0 0 0-1.817.058 2.642 2.642 0 0 0-1.447 1.436 2.614 2.614 0 0 0-.005 2.034Zm2.752-5.958a2.621 2.621 0 0 0 1.003 1.416 41.417 41.417 0 0 1 2.609-4.574 2.613 2.613 0 0 0-1.77-.127 2.643 2.643 0 0 0-1.6 1.263 2.648 2.648 0 0 0-.242 2.022Zm4.145-3.934a31.51 31.51 0 0 1 3.343-4.04 2.636 2.636 0 0 0-3.417.581 2.664 2.664 0 0 0 .074 3.459Zm4.178-4.843a22.356 22.356 0 0 1 4.262-3.116 2.655 2.655 0 0 0-4.637 1.447 2.627 2.627 0 0 0 .375 1.669Zm4.262-27.542a22.373 22.373 0 0 1-4.262-3.116 2.628 2.628 0 0 0-.375 1.67 2.654 2.654 0 0 0 4.637 1.446ZM13.81 79.03a31.56 31.56 0 0 1-3.343-4.04 2.664 2.664 0 0 0-.074 3.459 2.639 2.639 0 0 0 1.796.956c.581.058 1.14-.08 1.621-.375Zm-3.876-4.817a41.477 41.477 0 0 1-2.609-4.574 2.62 2.62 0 0 0-.76 3.439 2.66 2.66 0 0 0 3.369 1.135Zm-3.095-5.588c-.1-.21-.2-.433-.296-.638a55.872 55.872 0 0 1-1.69-4.263 2.663 2.663 0 0 0-1.278 3.407 2.66 2.66 0 0 0 1.447 1.436 2.625 2.625 0 0 0 1.817.058ZM2.778 62.51a2.634 2.634 0 0 0 1.764.29 51.29 51.29 0 0 1-1.41-5.086 2.659 2.659 0 0 0-1.616 3.19 2.652 2.652 0 0 0 1.262 1.606Zm.782-5.825c.538-.354 2.207-1.4 4.589-2.599a2.654 2.654 0 0 0-3.475-.803c-1.204.677-1.664 2.155-1.114 3.402Zm5.47-3.032a51.58 51.58 0 0 1 4.205-1.822c.216-.084.438-.164.66-.243a2.636 2.636 0 0 0-3.359-1.252c-1.31.534-1.949 1.997-1.505 3.317Zm5.921-2.44a42.903 42.903 0 0 1 5.086-1.389 2.635 2.635 0 0 0-1.162-1.336 2.603 2.603 0 0 0-2.023-.243 2.623 2.623 0 0 0-1.6 1.262 2.633 2.633 0 0 0-.3 1.706Zm6.01-1.558c1.69-.3 3.444-.48 5.223-.496a2.676 2.676 0 0 0-.887-1.416 2.645 2.645 0 0 0-1.949-.586 2.626 2.626 0 0 0-1.795.961c-.365.444-.56.977-.592 1.537Zm6.38-.47c1.743.064 3.496.317 5.218.808a2.66 2.66 0 0 0-2.345-2.815 2.646 2.646 0 0 0-1.96.565 2.601 2.601 0 0 0-.913 1.442Zm22.488-16.461c-.492-1.722-.74-3.476-.814-5.224a2.657 2.657 0 0 0-1.441.92 2.666 2.666 0 0 0-.56 1.959c.163 1.415 1.41 2.424 2.815 2.345Zm-.83-6.375c.006-1.78.19-3.533.492-5.223a2.605 2.605 0 0 0-1.537.591 2.615 2.615 0 0 0-.961 1.796 2.604 2.604 0 0 0 .591 1.949c.37.449.86.75 1.415.887Zm-.676-7.31c.301.54.771.936 1.337 1.157.37-1.806.86-3.517 1.389-5.08a2.655 2.655 0 0 0-1.712.3 2.634 2.634 0 0 0-1.257 1.601 2.627 2.627 0 0 0 .243 2.023Zm3.1-4.98c.08-.221.159-.443.243-.66a54.351 54.351 0 0 1 1.823-4.203 2.666 2.666 0 0 0-1.886.052 2.655 2.655 0 0 0-.18 4.811Zm2.499-5.745c1.198-2.382 2.244-4.046 2.598-4.59a2.655 2.655 0 0 0-3.401 1.12c-.676 1.199-.306 2.693.803 3.47Zm3.628-5.018c.628.138 2.545.576 5.08 1.41a2.663 2.663 0 0 0-.285-1.763 2.654 2.654 0 0 0-4.795.354Zm6.01 1.722a52.554 52.554 0 0 1 4.262 1.69c.211.09.428.196.639.29.19-.59.18-1.225-.058-1.806a2.645 2.645 0 0 0-1.431-1.452 2.686 2.686 0 0 0-2.044-.01 2.668 2.668 0 0 0-1.368 1.288Zm5.915 2.466a42.41 42.41 0 0 1 4.573 2.615c.238-.56.29-1.173.127-1.764a2.655 2.655 0 0 0-3.28-1.848 2.632 2.632 0 0 0-1.42.997Zm5.35 3.148a30.772 30.772 0 0 1 4.04 3.343 2.632 2.632 0 0 0 .375-1.621 2.659 2.659 0 0 0-.961-1.801 2.657 2.657 0 0 0-3.454.08Zm4.843 4.178a21.929 21.929 0 0 1 3.116 4.261 2.654 2.654 0 0 0 .332-3.649 2.658 2.658 0 0 0-3.448-.612Zm26.649 2.572c.074.66.396 1.256.892 1.695a21.852 21.852 0 0 1 3.116-4.267c-1.125-.676-2.609-.444-3.448.612a2.617 2.617 0 0 0-.56 1.96Zm4.436-5.028a2.637 2.637 0 0 0 .375 1.621 31.142 31.142 0 0 1 4.04-3.343 2.664 2.664 0 0 0-3.454-.08 2.66 2.66 0 0 0-.961 1.802Zm5.197-2.255a41.503 41.503 0 0 1 4.573-2.615 2.674 2.674 0 0 0-1.42-.998 2.65 2.65 0 0 0-2.023.243 2.634 2.634 0 0 0-1.13 3.37Zm5.582-3.1c.217-.095.428-.201.639-.29a51.35 51.35 0 0 1 4.262-1.69 2.637 2.637 0 0 0-1.373-1.29 2.683 2.683 0 0 0-2.033.011 2.624 2.624 0 0 0-1.437 1.452 2.629 2.629 0 0 0-.058 1.807Zm5.831-2.292a52.59 52.59 0 0 1 5.08-1.41c-.491-1.268-1.864-1.986-3.19-1.611a2.625 2.625 0 0 0-1.89 3.02Zm6.115-.983c.349.539 1.395 2.208 2.593 4.59 1.104-.777 1.479-2.271.808-3.475a2.663 2.663 0 0 0-3.401-1.115Zm3.032 5.472a56.885 56.885 0 0 1 1.817 4.204c.084.216.163.438.242.66 1.21-.629 1.775-2.076 1.252-3.36a2.636 2.636 0 0 0-3.311-1.504Zm4.14 6.22a2.593 2.593 0 0 0-1.706-.295 41.988 41.988 0 0 1 1.389 5.075 2.654 2.654 0 0 0 1.342-1.156 2.67 2.67 0 0 0-1.025-3.623Zm1.395 6.301a2.65 2.65 0 0 0-1.543-.591c.301 1.69.486 3.443.492 5.223A2.663 2.663 0 0 0 143 23.512a2.65 2.65 0 0 0-.955-1.796Zm-1.073 5.789a22.14 22.14 0 0 1-.808 5.218c1.4.084 2.652-.93 2.815-2.345a2.656 2.656 0 0 0-2.007-2.873Zm16.462 22.487a21.85 21.85 0 0 1 5.218-.808 2.662 2.662 0 0 0-2.873-2.007 2.664 2.664 0 0 0-1.785.988 2.681 2.681 0 0 0-.56 1.827Zm6.375-.829c1.779.01 3.533.19 5.223.491a2.63 2.63 0 0 0-.592-1.537 2.627 2.627 0 0 0-1.801-.96 2.694 2.694 0 0 0-1.948.585c-.449.375-.75.867-.882 1.421Zm6.147.66a43.48 43.48 0 0 1 5.086 1.39 2.6 2.6 0 0 0-.301-1.707 2.626 2.626 0 0 0-1.6-1.262 2.626 2.626 0 0 0-2.023.243 2.634 2.634 0 0 0-1.162 1.336Zm6.142 1.764c.222.08.449.159.66.243a53.27 53.27 0 0 1 4.209 1.822c.444-1.32-.2-2.783-1.505-3.316a2.639 2.639 0 0 0-2.044.01 2.65 2.65 0 0 0-1.32 1.241Zm5.746 2.498c2.382 1.204 4.051 2.245 4.589 2.599.55-1.247.09-2.725-1.114-3.401-1.204-.677-2.699-.302-3.475.802Zm5.017 3.628c-.132.629-.575 2.546-1.41 5.086a2.63 2.63 0 0 0 1.764-.29 2.669 2.669 0 0 0 1.262-1.606c.19-.681.106-1.4-.243-2.022a2.674 2.674 0 0 0-1.373-1.168Zm-.433 7.384a2.63 2.63 0 0 0-1.294-1.373 53.687 53.687 0 0 1-1.684 4.262c-.096.205-.196.427-.291.638.592.19 1.225.18 1.806-.058a2.662 2.662 0 0 0 1.463-3.47Zm-3.755 4.541a43.362 43.362 0 0 1-2.614 4.574c1.236.528 2.699.063 3.369-1.135.666-1.183.312-2.657-.755-3.439Zm-2.477 6.856a2.637 2.637 0 0 0-.67-1.506 31.2 31.2 0 0 1-3.349 4.04 2.63 2.63 0 0 0 1.632.375 2.661 2.661 0 0 0 1.796-.955c.449-.555.66-1.241.591-1.954Zm-4.848 3.337a22.405 22.405 0 0 1-4.267 3.116 2.66 2.66 0 0 0 4.642-1.447 2.625 2.625 0 0 0-.375-1.669Zm-4.267 27.542a22.388 22.388 0 0 1 4.267 3.116 2.631 2.631 0 0 0-.613-3.449c-1.109-.887-2.719-.728-3.654.333Zm6.728 3.544a2.612 2.612 0 0 0-1.626.38 31.508 31.508 0 0 1 3.343 4.03 2.665 2.665 0 0 0 .079-3.454 2.659 2.659 0 0 0-1.796-.956Zm2.25 5.191a43.296 43.296 0 0 1 2.614 4.574 2.63 2.63 0 0 0 .993-1.416 2.623 2.623 0 0 0-.238-2.022 2.638 2.638 0 0 0-1.605-1.263 2.598 2.598 0 0 0-1.764.127Zm3.1 5.588c.095.211.195.433.291.639.67 1.5 1.225 2.941 1.684 4.262a2.651 2.651 0 0 0 1.294-1.373 2.664 2.664 0 0 0-1.463-3.47 2.622 2.622 0 0 0-1.806-.058Zm2.53 10.525a11.412 11.412 0 0 0-.122-.517l-.079.428.201.089Zm-.814 1.141c.175-.095.323-.19.46-.275l-.211-.084-.249.359Zm-2.381 1.342c.295-.159.575-.307.839-.455l1.046-1.558-.412-.169-1.473 2.182Zm-2.53 1.262c.37-.175.734-.344 1.077-.518l2.181-3.237-.581-.248-2.677 4.003Zm-2.889 1.251c.528-.211 1.03-.422 1.526-.633l3.296-4.928-.634-.264-4.188 5.825Zm-2.361.872c.344-.122.687-.238 1.02-.365l4.779-6.643-.602-.249-5.197 7.257Zm-2.63.808c.465-.127.919-.259 1.368-.396l5.714-7.986-.829-.338-6.253 8.72Zm-2.096.507c.306-.064.607-.132.908-.206l6.691-9.332-1.003-.423-6.596 9.961Zm-2.176.391c.369-.053.723-.117 1.088-.175l6.939-10.483-1.267-.533-6.76 11.191Zm-2.53.269a31.047 31.047 0 0 0 1.532-.132l7.018-11.635-1.135-.475-7.415 12.242Zm-5.176-.222c.55.085 1.104.153 1.659.196l8.032-13.425-1.235-.513-8.456 13.742Zm-2.635-.602c.597.18 1.194.333 1.796.454l8.561-13.9-1.469-.613-8.888 14.059Zm-17.576 26.2-12.237 7.421.476 1.135 11.629-7.019c.058-.512.1-1.019.132-1.537Zm-.655 4.711-9.96 6.597.422 1.008 9.332-6.696c.074-.301.138-.602.206-.909Zm-.512 2.097-8.719 6.253.348.829 7.975-5.714c.137-.449.274-.903.396-1.368Zm-.808 2.635-7.251 5.192.248.602 6.644-4.774c.121-.333.243-.676.359-1.02Zm-.872 2.361-5.819 4.183.264.628 4.922-3.29c.216-.491.427-1.003.633-1.521Zm-1.246 2.884-3.998 2.672.243.586 3.232-2.181c.175-.338.349-.708.523-1.077Zm-1.262 2.535-2.181 1.468.169.412 1.563-1.046c.143-.259.296-.539.449-.834Zm-1.342 2.381-.359.243.085.206c.084-.132.174-.28.274-.449Zm-1.658.687.512.127-.084-.212-.428.085Zm-2.635-.739c.322.1.628.19.913.274l1.844-.364-.175-.412-2.582.502Zm-2.683-.898c.385.137.771.274 1.13.396l3.834-.745-.243-.586-4.721.935Zm-2.926-1.157c.518.222 1.03.433 1.526.629l5.815-1.152-.264-.633-7.077 1.156Zm-2.281-1.051c.327.159.649.317.977.465l8.075-1.32-.249-.602-8.803 1.457Zm-2.43-1.288c.412.232.829.459 1.247.681l9.68-1.6-.343-.83-10.584 1.749Zm-1.843-1.125c.264.169.523.338.787.496l11.334-1.869-.418-1.004-11.703 2.377Zm-1.817-1.263c.296.222.597.434.893.645l12.326-2.504-.528-1.272-12.691 3.131Zm-1.98-1.6c.385.333.776.671 1.178.988l13.187-3.259-.47-1.14-13.895 3.411Zm-.703-.644 14.297-3.502-.592-1.431-14.877 3.739c.38.407.766.808 1.172 1.194Zm-2.799-3.174c.328.454.671.892 1.035 1.315l15.168-3.813-.512-1.236-15.691 3.734Zm-1.441-2.282c.29.544.607 1.072.95 1.585l15.881-3.776-.607-1.469-16.224 3.66Zm-26.01 0-16.23-3.66-.602 1.469 15.88 3.776c.344-.513.656-1.041.951-1.585Zm-1.442 2.282-15.696-3.734-.507 1.236 15.173 3.813c.359-.423.702-.861 1.03-1.315Zm-3.502 3.818-13.9-3.411-.47 1.14 13.192 3.259c.402-.317.793-.655 1.178-.988Zm-1.98 1.6-12.691-3.131-.523 1.272 12.321 2.504c.296-.211.597-.423.893-.645Zm-1.812 1.263-11.708-2.377-.412 1.004 11.328 1.869c.264-.158.528-.327.792-.496Zm-1.848 1.125-10.584-1.749-.338.83 9.68 1.6c.413-.222.825-.449 1.242-.681Zm-2.43 1.288-8.803-1.457-.249.602 8.075 1.32c.328-.148.65-.306.977-.465Zm-2.286 1.051-7.072-1.156h-.005l-.259.633 5.815 1.152a56.428 56.428 0 0 0 1.52-.629Zm-2.92 1.157-4.722-.935-.243.586 3.834.745c.364-.122.745-.259 1.13-.396Zm-2.69.898-2.582-.502-.169.412 1.838.364c.296-.084.597-.174.914-.274Zm-3.141.866c.148-.037.316-.08.512-.127l-.428-.085-.084.212Zm-1.152-.814c.106.169.196.317.275.449l.095-.206-.37-.243Zm-1.341-2.381c.164.295.311.57.46.834l1.557 1.046.175-.412-2.192-1.468Zm-1.262-2.541c.18.375.348.74.517 1.083l3.243 2.181.243-.586-4.003-2.678Zm-1.247-2.883c.206.523.423 1.035.634 1.526l4.927 3.29.264-.628-5.825-4.188Zm-.871-2.356c.116.338.238.682.359 1.014l6.65 4.78.247-.602-7.256-5.192Zm-.808-2.635c.127.459.259.919.396 1.368l7.98 5.714.348-.829-8.724-6.253Zm-.507-2.097c.069.307.132.608.206.909l9.337 6.696.417-1.008-9.96-6.597Zm-.66-4.711c.037.518.074 1.025.132 1.537l11.634 7.019.476-1.135-12.242-7.421Zm-17.571-26.2-8.888-14.059-1.469.613 8.561 13.9a17.7 17.7 0 0 0 1.796-.454Zm-2.63.602-8.46-13.742-1.242.513 8.038 13.43a25.496 25.496 0 0 0 1.664-.201Zm-5.176.222-7.42-12.242-1.14.475 7.023 11.635c.513.058 1.025.1 1.537.132Zm-2.54-.269-6.755-11.191-1.272.533 6.944 10.483c.36.064.724.122 1.083.175Zm-2.17-.391-6.597-9.961-1.009.423 6.697 9.332c.301.074.607.142.908.206Zm-2.103-.507-6.247-8.72-.83.338 5.72 7.986c.444.137.898.269 1.357.396Zm-2.624-.808-5.202-7.257-.597.249 4.78 6.643c.332.127.67.243 1.019.365Zm-2.361-.872-4.188-5.825-.634.264 3.3 4.928c.487.211 1 .422 1.522.633Zm-2.884-1.251-2.677-4.003-.592.248 2.181 3.237c.349.174.713.343 1.088.518Zm-2.54-1.262-1.473-2.182-.407.169 1.04 1.558c.27.148.544.296.84.455Zm-2.83-1.617c.131.085.28.18.448.275l-.243-.359-.206.084Zm-.365-.866.211-.089-.084-.428c-.048.19-.09.359-.127.517Zm1.362-4.705.75 3.834.587-.243-.94-4.721c-.138.385-.27.765-.396 1.13Zm.93-2.53 1.151 5.815.634-.264-1.157-7.077c-.227.517-.433 1.03-.628 1.526Zm1.215-2.836 1.32 8.08.602-.248-1.458-8.809c-.163.327-.316.655-.464.977Zm1.072-2.16 1.6 9.686.824-.344-1.743-10.583c-.238.407-.465.829-.681 1.241Zm2.424-4.009 2.503 12.322 1.273-.523-3.137-12.691c-.217.296-.433.591-.64.892Zm1.257-1.695 3.258 13.193 1.136-.476-3.401-13.895c-.344.381-.676.777-.993 1.178Zm1.632-1.88 3.507 14.296 1.425-.586-3.739-14.877c-.412.37-.813.76-1.193 1.167Zm1.859-1.764 3.808 15.168 1.24-.507-3.733-15.701c-.45.332-.893.676-1.315 1.04Zm2.012-1.526 3.776 15.881 1.473-.608-3.665-16.224c-.538.296-1.077.608-1.584.951Zm19.493 11.027c.296-.391.607-.766.924-1.146l-.169.069-3.924 1.637 1.616 2.118c.417-.93.92-1.822 1.553-2.678Zm-1.901 3.523-2.023-2.651-1.378.575 2.862 3.776c.148-.581.333-1.151.539-1.7Zm-11.281 1.209 8.946 14.154c.048-.644.09-1.283.138-1.933l-7.885-12.717-1.199.496Zm-1.526-14.993 3.137 13.403 1.283-.522-2.424-11.223a89.72 89.72 0 0 1-1.996-1.658Zm3.232 2.64a3.065 3.065 0 0 1-.259-.206l2.192 10.14 1.31-.544-1.918-8.413c-.448-.322-.897-.639-1.325-.977Zm4.225 3.011c-.644-.444-1.289-.882-1.928-1.331l1.685 7.409 1.12-.464-.75-5.54c-.043-.027-.085-.048-.127-.074Zm.993.612.639 4.69 1.383-.565-.438-3.306a17.334 17.334 0 0 1-1.584-.819Zm2.683 15.469c.074-.544.169-1.083.253-1.627l-4.595-7.304-1.31.544 5.615 8.714c.015-.105.026-.221.037-.327Zm-7.674-7.547 7.262 11.703a97.76 97.76 0 0 1 .243-2.582l-6.222-9.654-1.283.533Zm8.545 2.429c.005-.047.021-.089.032-.137l-3.386-4.452-1.125.465 4.051 6.432c.137-.771.28-1.542.428-2.308Zm3.327-8.228c-.491-.042-.982-.09-1.468-.158a14.774 14.774 0 0 1-2.99-.792l.355 2.64 4.087-1.684.016-.006Zm-17.813-10.515 3.686 16.33 1.193-.491-3.417-14.571c-.486-.423-.977-.845-1.463-1.268Zm-10.177 9.934 1.87 11.339 1.008-.417-2.382-11.703c-.169.258-.333.523-.496.781ZM4.89 129.982l.365 1.843.412-.169-.502-2.588c-.1.323-.19.629-.275.914Zm13.172-48.778c.507.344 1.046.655 1.584.951l3.665-16.224-1.473-.607-3.776 15.88Zm-2.012-1.526c.422.365.866.708 1.315 1.04l3.734-15.7-1.241-.508-3.808 15.168Zm-.666-.597 3.74-14.877-1.426-.586-3.507 14.296c.38.407.781.792 1.193 1.167Zm-2.825-3.047c.322.401.65.792.993 1.178l3.4-13.895-1.135-.475-3.258 13.192Zm-1.257-1.695c.211.3.422.597.644.892l3.132-12.69-1.273-.523-2.503 12.32Zm-2.424-4.014c.216.417.443.834.681 1.246l1.743-10.583-.824-.343-1.6 9.68Zm-1.072-2.16c.148.322.306.65.464.977l1.458-8.804-.602-.248-1.32 8.075ZM6.59 65.329c.195.502.407 1.009.628 1.526l1.157-7.071-.634-.264-1.151 5.809Zm-.924-2.53c.121.37.253.745.396 1.136l.935-4.722-.587-.243-.744 3.83Zm-1.368-4.7c.037.158.08.327.127.518l.084-.428-.211-.09Zm.813-1.14c-.169.1-.317.19-.449.274l.206.084.243-.359Zm2.382-1.342c-.296.158-.576.306-.84.454l-1.04 1.558.407.169 1.473-2.181Zm2.54-1.262c-.375.174-.739.343-1.082.517L6.765 58.11l.592.249 2.677-4.003Zm2.884-1.252a53.55 53.55 0 0 0-1.526.639l-3.296 4.922.634.264 4.188-5.825Zm2.36-.872c-.348.122-.686.238-1.019.365L9.48 59.24l.598.253 5.202-7.262Zm2.625-.808c-.459.127-.913.26-1.362.397l-5.714 7.98.829.343 6.247-8.72Zm2.102-.501c-.3.058-.607.132-.908.2L12.4 60.46l1.01.417 6.595-9.955Zm2.171-.396c-.364.052-.724.11-1.083.174L14.15 61.183l1.272.534 6.755-11.191Zm2.535-.264c-.507.026-1.025.068-1.532.132l-7.024 11.629 1.141.475 7.415-12.236Zm5.18.216a22.664 22.664 0 0 0-1.663-.195l-8.033 13.42 1.236.517 8.46-13.742Zm2.63.597a21.237 21.237 0 0 0-1.795-.449l-8.555 13.9 1.463.613 8.888-14.064Zm1.2 21.928c.956-.36 1.943-.634 2.989-.793a23.18 23.18 0 0 1 1.468-.158l-4.103-1.69-.354 2.64Zm-2.424 1.172a17.305 17.305 0 0 1 1.584-.819l.438-3.306-1.383-.565-.64 4.69Zm-2.92 1.944c.638-.45 1.283-.888 1.927-1.331.042-.027.084-.048.127-.074l.75-5.54-1.12-.465-1.685 7.41Zm-2.557 1.88c.084-.069.169-.138.259-.206.428-.333.877-.65 1.325-.972l1.918-8.413-1.31-.544-2.192 10.135Zm-2.973 2.44a87.28 87.28 0 0 1 1.996-1.659l2.424-11.222-1.283-.523-3.137 13.404Zm1.526-14.994 1.199.497 7.885-12.718c-.048-.65-.09-1.288-.138-1.933l-8.946 14.154Zm11.28 1.21c-.205-.55-.39-1.12-.538-1.701l-2.862 3.776 1.378.576 2.023-2.651Zm2.826 4.668a27.52 27.52 0 0 1-.924-1.151 14.063 14.063 0 0 1-1.553-2.672l-1.616 2.117 4.093 1.706Zm-4.91-16.773L26.31 66.253l1.278.534 6.222-9.655a101.99 101.99 0 0 1-.243-2.582Zm.375 3.829-5.614 8.714 1.31.544 4.594-7.304c-.084-.544-.18-1.083-.253-1.627-.011-.105-.022-.216-.037-.327Zm.48 3.137-4.05 6.432 1.124.465 3.386-4.452c-.01-.047-.027-.09-.032-.137a170.95 170.95 0 0 1-.428-2.308Zm-29.258-.27.502-2.582-.412-.169-.365 1.838c.085.29.175.597.275.914Zm5.524 12.169 2.377-11.704-1.009-.417-1.87 11.339c.164.259.328.517.502.782Zm11.138 7.884 3.417-14.57-1.193-.492-3.686 16.33c.49-.422.977-.845 1.462-1.267Zm28.27-56.42 12.238-7.42-.476-1.14-11.629 7.024c-.063.512-.1 1.02-.132 1.537Zm.661-4.71 9.955-6.596-.417-1.009-9.337 6.697c-.069.3-.138.602-.2.908Zm.507-2.102 8.72-6.253-.35-.824-7.974 5.714c-.137.45-.27.904-.396 1.363Zm.803-2.63 7.256-5.191-.248-.602-6.644 4.774c-.127.333-.243.676-.364 1.019Zm.871-2.36 5.825-4.183-.264-.634-4.922 3.295a73.56 73.56 0 0 0-.639 1.521Zm1.252-2.879 3.998-2.678-.243-.591-3.237 2.186c-.175.338-.344.708-.518 1.083Zm1.262-2.54L57.64 6.19l-.175-.412-1.558 1.04-.454.84Zm1.342-2.382.364-.243-.09-.206a10.73 10.73 0 0 0-.274.449Zm1.663-.687c-.195-.047-.364-.09-.517-.126l.084.21.433-.084Zm2.63.74c-.322-.1-.623-.19-.913-.275l-1.844.365.17.411 2.587-.501Zm2.688.898c-.39-.138-.77-.275-1.135-.397l-3.834.745.243.586 4.726-.934Zm2.92 1.156a55.446 55.446 0 0 0-1.525-.628l-5.815 1.151.259.639 7.082-1.162Zm2.282 1.051a81.71 81.71 0 0 0-.971-.47l-8.08 1.326.248.602 8.803-1.458Zm2.435 1.289a57.806 57.806 0 0 0-1.246-.682l-9.68 1.6.337.825 10.59-1.743Zm1.843 1.125a63.613 63.613 0 0 0-.787-.497l-11.333 1.87.412 1.003 11.708-2.376Zm1.812 1.262a34.71 34.71 0 0 0-.893-.644l-12.321 2.503.523 1.273 12.69-3.132Zm1.98 1.6c-.385-.333-.776-.67-1.172-.988l-13.198 3.259.47 1.14 13.9-3.41Zm.703.644-14.297 3.502.586 1.431 14.883-3.74c-.38-.406-.766-.812-1.172-1.193Zm2.799 3.174a21.378 21.378 0 0 0-1.03-1.315l-15.173 3.813.507 1.236 15.696-3.734Zm1.441 2.282a19.024 19.024 0 0 0-.95-1.584l-15.88 3.776.601 1.468 16.23-3.66Zm26.011 0 16.224 3.66.607-1.468-15.881-3.776c-.343.507-.66 1.04-.95 1.584Zm1.441-2.282 15.691 3.734.512-1.236-15.168-3.813a19.5 19.5 0 0 0-1.035 1.315Zm3.502-3.818 13.895 3.412.47-1.141-13.187-3.258c-.402.316-.793.654-1.178.987Zm1.98-1.6 12.691 3.132.528-1.273-12.326-2.503c-.296.21-.597.422-.893.644Zm1.817-1.262 11.703 2.376.418-1.003-11.334-1.87c-.264.164-.523.328-.787.497Zm1.843-1.12 10.584 1.738.343-.824-9.68-1.6c-.418.216-.835.448-1.247.686Zm2.43-1.294 8.803 1.458.249-.602-8.075-1.326c-.323.153-.65.312-.977.47Zm2.286-1.05 7.072 1.161.264-.639-5.809-1.151a53.5 53.5 0 0 0-1.527.628Zm2.921-1.157 4.721.934.243-.586-3.829-.745c-.364.122-.744.26-1.135.397Zm2.683-.898 2.582.501.175-.411-1.844-.365c-.285.085-.591.174-.913.275Zm3.147-.861c-.153.032-.322.074-.512.121l.428.085.084-.206Zm1.146.808c-.1-.174-.19-.317-.274-.449l-.085.206.359.243Zm1.342 2.387c-.153-.296-.306-.576-.449-.84l-1.563-1.045-.169.412 2.181 1.473Zm1.262 2.535a26.43 26.43 0 0 0-.517-1.083l-3.238-2.186-.243.591 3.998 2.678Zm1.252 2.884a57.418 57.418 0 0 0-.639-1.527l-4.922-3.295-.264.634 5.825 4.188Zm.871 2.355a47.126 47.126 0 0 0-.359-1.014l-6.649-4.78-.248.597 7.256 5.197Zm.808 2.635a35.902 35.902 0 0 0-.401-1.367l-7.975-5.715-.348.824 8.724 6.258Zm.507 2.097a24.3 24.3 0 0 0-.206-.908l-9.332-6.697-.422 1.009 9.96 6.596Zm.655 4.71a24.538 24.538 0 0 0-.132-1.536l-11.629-7.024-.476 1.14 12.237 7.42Zm17.576 26.196 8.888 14.064 1.469-.613-8.561-13.9c-.602.122-1.199.275-1.796.449Zm2.635-.597 8.456 13.742 1.235-.518-8.027-13.42c-.56.043-1.114.112-1.664.196Zm5.176-.216 7.415 12.236 1.135-.475-7.018-11.63a21.495 21.495 0 0 0-1.532-.131Zm2.535.264 6.755 11.19 1.267-.533-6.939-10.478a35.944 35.944 0 0 0-1.083-.18Zm2.171.396 6.596 9.955 1.003-.417-6.691-9.338c-.301-.068-.602-.142-.908-.2Zm2.096.502 6.253 8.719.829-.343-5.714-7.975c-.449-.143-.903-.27-1.368-.402Zm2.636.813 5.191 7.256.602-.253-4.779-6.644c-.333-.127-.676-.243-1.014-.36Zm2.355.866 4.188 5.825.634-.264-3.296-4.922a47.79 47.79 0 0 0-1.526-.64Zm2.889 1.252 2.677 4.003.581-.248-2.181-3.238a52.383 52.383 0 0 0-1.077-.517Zm2.535 1.262 1.468 2.18.412-.168-1.046-1.558a49.381 49.381 0 0 0-.834-.454Zm2.831 1.616a16.02 16.02 0 0 0-.449-.275l.243.36.206-.085Zm.359.866-.201.09.079.428c.048-.19.09-.36.122-.518Zm-1.358 4.7-.749-3.829-.587.243.935 4.722a53.5 53.5 0 0 0 .401-1.136Zm-.929 2.53-1.151-5.81-.634.265 1.157 7.071c.221-.517.433-1.024.628-1.526Zm-1.215 2.836-1.32-8.075-.602.248 1.458 8.804c.158-.327.316-.655.464-.977Zm-1.072 2.16-1.595-9.68-.834.343 1.743 10.583c.243-.412.464-.829.686-1.246Zm-2.424 4.014-2.503-12.321-1.273.523 3.137 12.69c.217-.295.428-.591.639-.892Zm-1.257 1.695-3.258-13.193-1.141.476 3.406 13.895c.344-.386.676-.776.993-1.178Zm-1.632 1.88-3.506-14.296-1.426.586 3.739 14.877c.412-.375.808-.76 1.193-1.167Zm-1.859 1.764L170.13 64.51l-1.236.507 3.734 15.702a22.53 22.53 0 0 0 1.315-1.04Zm-2.007 1.526-3.781-15.88-1.468.607 3.654 16.224a19.93 19.93 0 0 0 1.595-.95Zm-19.498-11.032c-.296.396-.613.771-.924 1.151l4.093-1.706-1.616-2.117c-.418.93-.925 1.822-1.553 2.672Zm1.901-3.517 2.018 2.65 1.383-.575-2.867-3.776a16.34 16.34 0 0 1-.534 1.7Zm11.276-1.21-8.941-14.154c-.048.645-.09 1.284-.138 1.933l7.89 12.718 1.189-.497Zm1.537 14.994-3.148-13.404-1.278.523 2.424 11.222c.671.544 1.341 1.099 2.002 1.659Zm-3.238-2.646c.09.068.174.137.259.206l-2.192-10.135-1.31.544 1.918 8.413c.443.322.892.639 1.325.972Zm-4.23-3.005c.649.443 1.294.882 1.933 1.33l-1.685-7.409-1.12.465.75 5.54c.043.026.085.047.122.074Zm-.988-.608-.644-4.695-1.378.565.443 3.306c.534.243 1.062.518 1.579.824Zm-6.881-2.128c.491.042.977.084 1.468.158 1.051.159 2.033.434 2.984.793l-.354-2.641-4.098 1.69Zm3.945-11.72 4.595 7.305 1.309-.544-5.619-8.714a5.52 5.52 0 0 1-.037.327c-.069.544-.164 1.083-.248 1.627Zm7.922 5.921-7.251-11.708a141.49 141.49 0 0 1-.243 2.587l6.216 9.655 1.278-.534Zm-8.535-2.43c-.01.048-.026.09-.031.138l3.38 4.452 1.119-.465-4.045-6.432c-.138.771-.28 1.542-.423 2.308Zm14.481 18.744-3.681-16.33-1.204.492 3.417 14.57c.491.423.983.845 1.468 1.268Zm10.177-9.934-1.864-11.339-1.009.417 2.377 11.704c.169-.265.338-.523.496-.782Zm5.298-12.295-.365-1.843-.412.17.507 2.587c.095-.322.19-.629.27-.914Zm-67.949-26.454c.359.956.634 1.944.792 2.99.069.49.116.982.159 1.468l.005-.016 1.685-4.088-2.641-.354Zm-1.178-2.424c.307.518.586 1.04.824 1.58l3.306.448.565-1.389-4.695-.639Zm-1.943-2.92c.449.639.892 1.283 1.336 1.928.026.042.047.084.074.12l5.545.761.46-1.125-7.415-1.684Zm-1.875-2.556.206.253c.333.439.649.887.972 1.331l8.413 1.917.538-1.315-10.129-2.186Zm-2.435-2.979c.56.66 1.109 1.326 1.653 2.002l11.223 2.424.528-1.284-13.404-3.142Zm30.22 2.826-12.591-7.637-.591 1.426 13.166 7.88c.021-.555.031-1.115.016-1.67Zm-.27 4.22c.085-.55.159-1.104.201-1.66l-13.42-8.032-.517 1.23 13.736 8.461Zm-.808 3.432-14.154-8.946-.501 1.198 12.728 7.885c.639-.042 1.283-.095 1.927-.137Zm-3.258.243-11.704-7.251-.533 1.278 9.649 6.216c.861-.09 1.722-.17 2.588-.243Zm-4.157.422a7.03 7.03 0 0 1 .328-.037l-8.714-5.619-.55 1.31 7.31 4.595c.544-.09 1.082-.18 1.626-.248Zm-2.804.439-6.438-4.046-.465 1.12 4.447 3.385c.053-.01.095-.026.143-.037.771-.142 1.537-.285 2.313-.422Zm-3.438.697-3.776-2.873-.576 1.384 2.646 2.022c.549-.21 1.12-.385 1.706-.533Zm14.323-4.394-13.901-8.556-.612 1.463 14.058 8.889c.18-.592.333-1.189.455-1.796Zm-20.698 7.753c.375-.312.756-.629 1.152-.92a14.39 14.39 0 0 1 2.672-1.557l-2.118-1.621-1.632 3.924-.074.174Zm20.618-17.386-10.483-6.945-.528 1.273 11.191 6.755a25.44 25.44 0 0 0-.18-1.083Zm-31.861-.724c.422.481.845.967 1.262 1.458l14.576 3.417.497-1.199-16.335-3.676ZM67.336 36.166c.93.422 1.822.924 2.672 1.558.396.29.777.607 1.152.919l-1.706-4.098-2.118 1.62Zm-2.546-.882c.581.148 1.146.322 1.7.533l2.647-2.022-.57-1.384-3.777 2.873Zm-3.438-.697c.766.137 1.537.28 2.308.422.048.01.09.027.138.037l4.452-3.385-.465-1.12-6.433 4.046Zm-3.137-.476c.111.011.222.022.328.038.544.068 1.088.158 1.626.248l7.304-4.595-.544-1.31-8.714 5.62Zm-3.829-.385c.861.074 1.727.153 2.583.243l9.649-6.216-.528-1.278-11.704 7.251Zm-3.258-.243c.644.042 1.288.095 1.933.137l12.722-7.884-.502-1.2-14.153 8.947Zm-.813-3.433 13.736-8.46-.512-1.23-13.425 8.032a24.9 24.9 0 0 0 .2 1.658Zm29.96-7.045-13.41 3.142.534 1.284 11.218-2.424a85.338 85.338 0 0 1 1.658-2.002Zm-2.646 3.232c.069-.084.143-.169.206-.253L67.7 28.17l.539 1.315 8.418-1.917c.323-.444.64-.893.972-1.33Zm-1.674 2.303-7.41 1.684.465 1.125 5.54-.76c.026-.037.042-.08.074-.121.438-.645.882-1.29 1.33-1.928Zm-1.938 2.92-4.7.64.575 1.388 3.3-.449c.244-.538.518-1.061.825-1.579Zm-1.178 2.424-2.64.354 1.684 4.088.005.01c.048-.48.085-.971.159-1.462.158-1.046.433-2.034.792-2.99Zm-7.864-10.087-.612-1.463-13.9 8.556c.115.607.274 1.204.448 1.796l14.064-8.889Zm1.093.412.497 1.199 14.57-3.417c.423-.491.846-.977 1.268-1.458L66.068 24.21Zm-15.706-1.87 11.191-6.754-.528-1.273-10.483 6.945c-.064.36-.127.723-.18 1.083Zm-.29 5.16 13.16-7.88-.591-1.425-12.59 7.637c-.011.554-.006 1.114.02 1.668Zm22.767 128.937a14.747 14.747 0 0 1-.792-2.989c-.074-.491-.111-.983-.159-1.463l-.026.053-1.664 4.045 2.641.354Zm1.178 2.424a16.05 16.05 0 0 1-.824-1.579l-3.3-.449-.577 1.389 4.7.639Zm1.938 2.926c-.449-.645-.893-1.289-1.33-1.933-.033-.042-.054-.085-.075-.122l-5.54-.76-.465 1.125 7.41 1.69Zm1.88 2.551c-.063-.085-.137-.169-.206-.254-.333-.438-.65-.887-.972-1.331l-8.418-1.917-.539 1.315 10.135 2.187Zm2.435 2.978c-.56-.66-1.11-1.325-1.653-2.001l-11.218-2.424-.533 1.283 13.404 3.142Zm-30.22-2.825 12.59 7.636.592-1.425-13.166-7.88a29.2 29.2 0 0 0-.016 1.669Zm.265-4.22a24.911 24.911 0 0 0-.201 1.658l13.425 8.033.512-1.236-13.736-8.455Zm.813-3.438 14.153 8.946.502-1.193-12.722-7.885c-.645.042-1.289.095-1.933.132Zm3.258-.238 11.704 7.251.528-1.278-9.65-6.216c-.855.09-1.72.169-2.582.243Zm4.157-.422c-.106.016-.217.026-.328.037l8.714 5.619.544-1.31-7.304-4.594c-.538.084-1.082.179-1.626.248Zm2.81-.439 6.432 4.046.465-1.12-4.453-3.385c-.047.011-.09.026-.137.037-.77.143-1.542.285-2.308.422Zm3.437-.697 3.771 2.868.576-1.378-2.646-2.023c-.555.211-1.12.385-1.7.533Zm6.37-3.359c-.375.312-.756.629-1.152.919a14.342 14.342 0 0 1-2.672 1.558l2.118 1.622 1.706-4.099Zm-20.698 7.753 13.9 8.556.613-1.463-14.064-8.888a18.954 18.954 0 0 0-.449 1.795Zm.08 9.633 10.483 6.94.528-1.268-11.191-6.754c.053.359.11.723.18 1.082Zm31.861.724c-.422-.481-.845-.972-1.267-1.458l-14.571-3.417-.491 1.199 16.33 3.676Zm40.254-15.633a14.508 14.508 0 0 1-2.672-1.558c-.396-.29-.777-.607-1.152-.919l.053.127 1.653 3.972 2.118-1.622Zm2.551.882a14.975 14.975 0 0 1-1.706-.533l-2.646 2.023.576 1.383 3.776-2.873Zm3.438.697c-.776-.137-1.542-.279-2.313-.422-.048-.011-.09-.026-.138-.037l-4.452 3.385.465 1.12 6.438-4.046Zm3.132.476c-.106-.011-.217-.021-.328-.037-.544-.069-1.082-.164-1.626-.248l-7.31 4.594.55 1.31 8.714-5.619Zm3.829.385c-.866-.074-1.722-.153-2.588-.243l-9.649 6.216.533 1.278 11.704-7.251Zm3.258.238c-.644-.037-1.288-.09-1.927-.132l-12.728 7.885.501 1.193 14.154-8.946Zm-29.142 10.483 13.404-3.142-.528-1.283-11.223 2.424a99.69 99.69 0 0 1-1.653 2.001Zm2.641-3.232-.206.254 10.129-2.187-.538-1.315-8.413 1.917c-.323.444-.639.893-.972 1.331Zm1.669-2.297 7.415-1.69-.46-1.125-5.545.76c-.027.037-.048.08-.074.122-.444.644-.887 1.288-1.336 1.933Zm1.943-2.926 4.695-.639-.565-1.389-3.306.449a14.93 14.93 0 0 1-.824 1.579Zm9.047 7.663.607 1.463 13.901-8.556a19.013 19.013 0 0 0-.455-1.795l-14.053 8.888Zm1.431 3.438 13.42-8.033a21.487 21.487 0 0 0-.201-1.658l-13.736 8.455.517 1.236Zm-9.3-13.525 2.641-.354-1.669-4.045-.021-.059c-.043.486-.09.978-.159 1.469a14.72 14.72 0 0 1-.792 2.989Zm6.771 9.675-.497-1.199-14.571 3.417c-.422.486-.845.977-1.267 1.458l16.335-3.676Zm15.706 1.87-11.191 6.754.528 1.273 10.483-6.945c.069-.359.122-.723.18-1.082Zm.296-5.16-13.166 7.88.591 1.425 12.591-7.636c.01-.555.005-1.115-.016-1.669Zm8.587-45.493c-2.604-2.524-5.577-4.679-8.503-6.813-.454-.327-.2-1.151.407-.961 3.042.956 6.263 1.035 9.406.549 2.714-.427 5.366-1.214 7.932-2.186 2.445-.919 4.87-2.065 6.644-4.035.893-.987 1.627-2.107 2.445-3.147a15.248 15.248 0 0 1 2.694-2.689c1.595-1.24 3.401-2.16 5.281-2.883-1.88-.729-3.686-1.653-5.281-2.89a15.262 15.262 0 0 1-2.694-2.687c-.818-1.04-1.552-2.16-2.445-3.148-1.774-1.975-4.199-3.116-6.644-4.04-2.566-.966-5.218-1.759-7.932-2.181-3.143-.486-6.364-.407-9.406.55-.607.19-.861-.635-.407-.962 2.926-2.134 5.899-4.289 8.503-6.813-3.628.058-7.251.634-10.827 1.199-.554.084-.955-.67-.396-.966 2.831-1.485 5.165-3.703 7.04-6.264 1.622-2.224 2.937-4.658 4.067-7.156 1.077-2.377 1.98-4.907 1.843-7.552-.069-1.331-.338-2.636-.502-3.961a15.507 15.507 0 0 1 .006-3.803c.258-2.007.876-3.934 1.695-5.777-1.843.823-3.771 1.447-5.778 1.7-1.267.159-2.53.159-3.802 0-1.321-.158-2.625-.428-3.956-.496-2.651-.138-5.17.765-7.547 1.843-2.503 1.135-4.938 2.445-7.156 4.066-2.567 1.88-4.785 4.21-6.264 7.04-.301.565-1.061.159-.971-.396.56-3.575 1.14-7.198 1.199-10.826-2.525 2.608-4.68 5.577-6.808 8.502-.333.455-1.157.201-.966-.406.955-3.047 1.035-6.264.549-9.406-.423-2.72-1.215-5.366-2.187-7.938-.919-2.44-2.065-4.864-4.035-6.638-.987-.893-2.101-1.627-3.152-2.45a15.342 15.342 0 0 1-2.683-2.684c-1.241-1.6-2.16-3.406-2.884-5.292-.723 1.886-1.653 3.692-2.889 5.292a15.354 15.354 0 0 1-2.683 2.683c-1.05.824-2.165 1.558-3.158 2.45-1.97 1.775-3.11 4.2-4.035 6.64-.966 2.571-1.758 5.217-2.175 7.937-.492 3.142-.412 6.358.538 9.406.19.607-.628.86-.961.406-2.123-2.925-4.283-5.894-6.808-8.502.058 3.628.634 7.25 1.2 10.826.084.555-.677.961-.967.396-1.484-2.83-3.702-5.16-6.269-7.04-2.218-1.621-4.653-2.93-7.15-4.066-2.383-1.078-4.902-1.98-7.553-1.843-1.33.068-2.64.338-3.961.496a15.23 15.23 0 0 1-3.797 0c-2.007-.253-3.94-.877-5.778-1.7.813 1.843 1.442 3.77 1.695 5.777a15.024 15.024 0 0 1 0 3.803c-.158 1.325-.427 2.63-.496 3.96-.137 2.646.766 5.176 1.843 7.553 1.13 2.498 2.445 4.932 4.067 7.156 1.874 2.561 4.209 4.78 7.034 6.264.565.295.17 1.05-.39.966-3.57-.565-7.199-1.14-10.827-1.199 2.609 2.524 5.577 4.68 8.503 6.813.454.327.2 1.151-.407.961-3.047-.956-6.264-1.035-9.406-.55-2.714.423-5.366 1.216-7.938 2.182-2.44.924-4.864 2.065-6.638 4.04-.893.988-1.627 2.107-2.45 3.148a15.06 15.06 0 0 1-2.689 2.688c-1.6 1.236-3.4 2.16-5.286 2.889 1.885.723 3.686 1.642 5.286 2.883a15.046 15.046 0 0 1 2.688 2.689c.824 1.04 1.558 2.16 2.45 3.147 1.775 1.97 4.2 3.116 6.64 4.035 2.571.972 5.223 1.759 7.937 2.186 3.143.486 6.359.407 9.406-.549.607-.19.86.634.407.961-2.926 2.134-5.894 4.289-8.503 6.813 3.628-.058 7.256-.634 10.827-1.199.56-.084.955.671.39.967-2.825 1.484-5.16 3.702-7.034 6.263-1.622 2.224-2.937 4.658-4.067 7.156-1.077 2.377-1.98 4.907-1.843 7.553.069 1.331.338 2.635.496 3.961a14.98 14.98 0 0 1 0 3.797c-.253 2.012-.882 3.94-1.695 5.783 1.838-.824 3.77-1.447 5.778-1.701a15.513 15.513 0 0 1 3.797-.005c1.32.164 2.63.433 3.961.502 2.651.137 5.17-.766 7.552-1.843 2.498-1.131 4.933-2.446 7.151-4.072 2.567-1.875 4.785-4.204 6.269-7.035.29-.565 1.05-.158.966.396-.565 3.576-1.14 7.198-1.199 10.827 2.525-2.604 4.685-5.583 6.808-8.503.333-.454 1.151-.201.961.407-.95 3.042-1.03 6.263-.538 9.405.417 2.72 1.209 5.366 2.175 7.938.925 2.44 2.065 4.864 4.035 6.639.993.892 2.107 1.626 3.158 2.445a15.55 15.55 0 0 1 2.683 2.688c1.236 1.6 2.166 3.406 2.89 5.292.723-1.886 1.642-3.692 2.883-5.292a15.538 15.538 0 0 1 2.683-2.688c1.051-.819 2.165-1.553 3.152-2.445 1.97-1.775 3.116-4.199 4.035-6.639.972-2.572 1.764-5.218 2.187-7.938.486-3.142.406-6.363-.549-9.405-.191-.608.633-.861.966-.407 2.128 2.92 4.283 5.899 6.808 8.497-.059-3.623-.639-7.245-1.199-10.821-.09-.554.67-.961.971-.396 1.479 2.831 3.697 5.16 6.264 7.035 2.218 1.626 4.653 2.941 7.156 4.072 2.377 1.077 4.896 1.98 7.547 1.843 1.331-.069 2.635-.338 3.956-.502a15.551 15.551 0 0 1 3.802.005c2.007.254 3.935.877 5.778 1.701-.819-1.843-1.437-3.771-1.695-5.783a15.462 15.462 0 0 1-.006-3.797c.164-1.326.433-2.63.502-3.961.137-2.646-.766-5.176-1.843-7.553-1.13-2.498-2.445-4.932-4.067-7.156-1.875-2.561-4.209-4.779-7.04-6.263-.559-.296-.158-1.051.396-.967 3.576.565 7.199 1.141 10.827 1.199Zm23.422-8.212a20.082 20.082 0 0 0-1.595-.951l-3.654 16.224 1.468.602 3.781-15.875Zm2.007 1.526a22.743 22.743 0 0 0-1.315-1.035l-3.734 15.696 1.236.507 3.813-15.168Zm.666.597-3.739 14.877 1.426.586 3.506-14.296a20.489 20.489 0 0 0-1.193-1.167Zm2.825 3.047a26.11 26.11 0 0 0-.993-1.178l-3.406 13.895 1.141.476 3.258-13.193Zm1.257 1.695a51.524 51.524 0 0 0-.639-.892l-3.137 12.691 1.273.523 2.503-12.322Zm2.424 4.014c-.222-.417-.443-.834-.686-1.246l-1.743 10.583.834.344 1.595-9.681Zm1.072 2.16c-.148-.322-.306-.649-.464-.977l-1.458 8.804.602.248 1.32-8.075Zm1.215 2.836a51.646 51.646 0 0 0-.628-1.526l-1.157 7.072.634.264 1.151-5.81Zm.929 2.53c-.126-.37-.258-.745-.401-1.135l-.935 4.721.587.243.749-3.829Zm.407 4.304.365-1.843c-.08-.285-.175-.591-.27-.914l-.507 2.588.412.169Zm-19.123-6.95-1.189-.496-7.89 12.717c.048.65.09 1.289.138 1.933l8.941-14.154Zm-11.281-1.209c.211.549.391 1.119.539 1.7l2.867-3.776-1.378-.575-2.028 2.651Zm-2.82-4.669c.311.38.628.755.924 1.146a14.64 14.64 0 0 1 1.553 2.678l1.621-2.118-3.971-1.653-.127-.053Zm4.753-1.679a14.55 14.55 0 0 1-2.984.792c-.491.068-.977.116-1.468.158l.058.021 4.04 1.669.354-2.64Zm2.429-1.178c-.517.306-1.04.581-1.579.824l-.443 3.306 1.378.565.644-4.695Zm2.921-1.944c-.639.455-1.284.893-1.933 1.337-.037.026-.079.047-.122.074l-.75 5.54 1.12.464 1.685-7.415Zm2.556-1.88a3.117 3.117 0 0 1-.259.206c-.433.338-.882.655-1.325.977l-1.918 8.413 1.31.544 2.192-10.14Zm2.979-2.434c-.661.559-1.331 1.114-2.002 1.658l-2.424 11.223 1.278.522 3.148-13.403Zm-10.721 25.894 7.251-11.709-1.278-.533-6.216 9.654c.089.855.169 1.716.243 2.588Zm-.861-6.972 4.045-6.432-1.119-.465-3.38 4.452c.005.048.021.09.031.137.143.766.285 1.537.423 2.308Zm.475 3.137 5.619-8.714-1.309-.544-4.595 7.304c.084.544.179 1.083.248 1.627.016.106.027.222.037.327Zm23.264-15.035-2.377 11.703 1.009.417 1.864-11.333c-.158-.264-.327-.523-.496-.787Zm-11.149-7.885-3.417 14.571 1.204.491 3.681-16.33c-.485.423-.977.845-1.468 1.268Zm9.084-18.77c-4.896-3.728-9.295-8.059-14.175-11.798a79.64 79.64 0 0 0-4.404-3.09c-2.065-1.346-4.305-2.043-6.755-2.26a28.468 28.468 0 0 0-1.896-.106c-2.218 2.292-4.769 4.268-7.346 6.158 4.663-.76 9.49.18 13.932 1.711 2.44.84 4.927 1.796 6.987 3.386 2.128 1.648 3.327 4.066 5.191 5.957 2.097 2.118 4.817 3.475 7.616 4.4.364-.08.597.232.586.538v.026c.011.307-.222.618-.586.539-2.799.924-5.519 2.281-7.616 4.399-1.864 1.891-3.063 4.31-5.191 5.958-2.06 1.584-4.547 2.545-6.987 3.385-4.442 1.531-9.269 2.471-13.932 1.711 2.577 1.891 5.128 3.866 7.346 6.153a28.66 28.66 0 0 0 1.896-.101c2.45-.216 4.69-.913 6.755-2.26a79.275 79.275 0 0 0 4.404-3.09c4.88-3.739 9.279-8.069 14.175-11.798a.392.392 0 0 1 .016-.174c.026-.09.058-.174.084-.254-.015-.058-.031-.11-.031-.174a5.749 5.749 0 0 1 2.007-4.304 5.771 5.771 0 0 1-2.007-4.315c0-.058.016-.11.031-.169-.026-.085-.058-.164-.084-.254a.392.392 0 0 1-.016-.174Zm-14.587-40.016 7.88 13.161 1.421-.597-7.627-12.585a22.102 22.102 0 0 0-1.674.021Zm-31.339-15.02c-1.769.238-3.549.56-5.297.93-2.413.502-4.494 1.595-6.38 3.18-.485.406-.955.828-1.41 1.261.048 3.2-.364 6.412-.845 9.575 2.752-3.85 6.834-6.601 11.065-8.666 2.318-1.13 4.747-2.213 7.33-2.546 2.672-.343 5.228.523 7.885.539 2.978.016 5.862-.95 8.497-2.271.201-.312.587-.264.793-.037.005.005.01.005.015.005.006.005.006.01.006.01.222.212.28.592-.037.798-1.321 2.63-2.287 5.52-2.271 8.498.016 2.651.882 5.212.538 7.885-.332 2.577-1.41 5.012-2.545 7.33-2.06 4.236-4.817 8.307-8.667 11.064 3.169-.486 6.38-.892 9.575-.845.433-.454.861-.93 1.268-1.41 1.579-1.89 2.672-3.96 3.174-6.38a71.14 71.14 0 0 0 .929-5.297c.808-6.094.861-12.268 1.68-18.363a.467.467 0 0 1-.111-.137c-.037-.08-.074-.158-.116-.243-.048-.026-.095-.047-.143-.095a5.768 5.768 0 0 1-1.627-4.468 5.752 5.752 0 0 1-4.467-1.626c-.043-.048-.069-.096-.096-.143-.079-.037-.163-.08-.242-.116a.468.468 0 0 1-.133-.116c-6.094.829-12.273.871-18.368 1.684ZM111.07 15.548l14.877 3.74.592-1.432-14.297-3.502c-.401.38-.792.787-1.172 1.194ZM78.29 27.093a70.604 70.604 0 0 0-3.085 4.399c-1.357 2.07-2.05 4.304-2.266 6.755-.058.628-.09 1.262-.105 1.896 2.292 2.218 4.267 4.774 6.163 7.34-.771-4.657.174-9.48 1.706-13.92.84-2.446 1.795-4.928 3.385-6.993 1.648-2.128 4.072-3.327 5.957-5.192 2.113-2.09 3.475-4.816 4.4-7.615-.074-.364.232-.597.538-.586.006-.006.01-.006.016-.006 0 0 .005 0 .01.006.307-.01.613.222.534.586.93 2.799 2.287 5.524 4.405 7.615 1.89 1.865 4.309 3.064 5.957 5.192 1.59 2.065 2.545 4.547 3.385 6.992 1.532 4.442 2.477 9.264 1.711 13.922 1.886-2.567 3.871-5.123 6.158-7.341a38.47 38.47 0 0 0-.105-1.896c-.217-2.45-.914-4.685-2.261-6.755-.982-1.495-2.007-2.984-3.095-4.4-3.733-4.89-8.069-9.284-11.793-14.18a.41.41 0 0 1-.18-.015 7.395 7.395 0 0 1-.253-.09c-.047.016-.1.037-.169.037A5.75 5.75 0 0 1 95 10.832a5.778 5.778 0 0 1-4.31 2.012c-.068 0-.116-.021-.168-.037-.09.032-.17.063-.26.09a.37.37 0 0 1-.168.016c-3.734 4.895-8.065 9.29-11.804 14.18ZM33.366 40.475c.83 6.095.871 12.269 1.69 18.363.232 1.77.56 3.555.924 5.297.507 2.42 1.595 4.49 3.174 6.38.407.48.83.956 1.268 1.41 3.195-.047 6.411.36 9.575.845-3.845-2.757-6.607-6.828-8.667-11.064-1.135-2.318-2.213-4.753-2.546-7.33-.343-2.673.523-5.234.54-7.885.015-2.979-.951-5.868-2.277-8.498-.312-.206-.259-.586-.032-.797l.01-.01.006-.006c.211-.227.592-.275.792.037 2.64 1.32 5.525 2.287 8.498 2.27 2.656-.015 5.218-.881 7.885-.538 2.582.333 5.017 1.416 7.335 2.546 4.23 2.065 8.313 4.816 11.065 8.666-.486-3.163-.893-6.374-.84-9.575-.465-.433-.93-.855-1.415-1.262-1.891-1.584-3.961-2.677-6.38-3.18a71.526 71.526 0 0 0-5.292-.929c-6.1-.813-12.274-.855-18.373-1.684a.466.466 0 0 1-.133.116l-.242.116a.394.394 0 0 1-.1.143 5.721 5.721 0 0 1-4.464 1.626A5.765 5.765 0 0 1 33.742 40c-.042.048-.095.069-.143.095-.042.085-.079.164-.121.243a.345.345 0 0 1-.111.137Zm-7.7 9.74L18.03 62.798l1.426.597 7.88-13.16a21.997 21.997 0 0 0-1.67-.022Zm-12.918 49.854c4.896 3.729 9.295 8.059 14.18 11.798a75.189 75.189 0 0 0 4.4 3.09c2.064 1.347 4.304 2.044 6.76 2.26a28.48 28.48 0 0 0 1.89.101c2.218-2.287 4.774-4.262 7.346-6.153-4.663.76-9.49-.18-13.932-1.711-2.44-.84-4.922-1.801-6.982-3.385-2.133-1.648-3.332-4.067-5.202-5.958-2.09-2.118-4.81-3.475-7.61-4.399-.364.08-.597-.232-.586-.539v-.026c-.01-.306.222-.618.586-.539 2.8-.924 5.52-2.281 7.61-4.399 1.87-1.89 3.069-4.31 5.203-5.957 2.06-1.59 4.541-2.546 6.981-3.386 4.442-1.531 9.269-2.471 13.932-1.71-2.572-1.891-5.128-3.867-7.346-6.159-.628.016-1.262.048-1.89.106-2.456.217-4.696.914-6.76 2.26-1.495.983-2.985 2.007-4.4 3.09-4.885 3.739-9.284 8.07-14.18 11.798a.386.386 0 0 1-.016.174c-.026.09-.058.17-.09.254.016.058.032.11.032.169a5.775 5.775 0 0 1-2.007 4.315 5.753 5.753 0 0 1 2.007 4.304c0 .063-.016.116-.032.174.032.08.064.164.09.254a.386.386 0 0 1 .016.174Zm14.587 40.016-7.88-13.161-1.426.597 7.637 12.585c.554.016 1.114.006 1.669-.021Zm31.344 15.02c1.77-.238 3.549-.56 5.292-.93 2.419-.501 4.489-1.6 6.38-3.179.485-.406.95-.829 1.415-1.262-.053-3.195.354-6.411.84-9.575-2.752 3.85-6.834 6.602-11.065 8.667-2.318 1.13-4.753 2.212-7.335 2.545-2.667.343-5.229-.523-7.885-.539-2.974-.015-5.857.951-8.498 2.271-.2.312-.575.259-.792.037l-.005-.005-.01-.01c-.228-.212-.28-.597.031-.798 1.326-2.635 2.292-5.519 2.276-8.497-.016-2.652-.882-5.213-.538-7.885.332-2.583 1.41-5.012 2.545-7.331 2.06-4.235 4.822-8.307 8.667-11.064-3.164.486-6.38.893-9.575.845-.439.454-.861.93-1.268 1.41-1.579 1.886-2.667 3.961-3.174 6.38a71.677 71.677 0 0 0-.924 5.297c-.819 6.095-.86 12.268-1.69 18.363.047.037.09.084.11.137l.122.243c.048.027.1.048.143.095a5.766 5.766 0 0 1 1.627 4.468 5.739 5.739 0 0 1 4.462 1.627c.053.047.08.095.1.142.08.037.164.08.244.117a.443.443 0 0 1 .132.11c6.1-.823 12.273-.871 18.373-1.679Zm20.243 19.667-14.883-3.739-.586 1.431 14.297 3.502c.406-.386.792-.787 1.172-1.194Zm32.775-11.544c1.088-1.416 2.113-2.905 3.095-4.4 1.347-2.07 2.044-4.304 2.261-6.754.052-.634.084-1.263.105-1.896-2.287-2.219-4.272-4.775-6.158-7.341.766 4.658-.179 9.479-1.711 13.921-.84 2.445-1.795 4.927-3.385 6.992-1.648 2.129-4.067 3.328-5.957 5.192-2.118 2.091-3.475 4.816-4.405 7.615.08.365-.227.597-.533.587-.006 0-.01.005-.01.005-.006 0-.011-.005-.017-.005-.306.01-.612-.222-.538-.587-.925-2.799-2.287-5.524-4.4-7.615-1.885-1.864-4.31-3.063-5.957-5.192-1.59-2.065-2.545-4.547-3.385-6.992-1.532-4.442-2.477-9.263-1.706-13.921-1.896 2.566-3.871 5.122-6.163 7.341.016.633.047 1.262.105 1.896.217 2.45.909 4.684 2.266 6.754a70.71 70.71 0 0 0 3.084 4.4c3.74 4.89 8.07 9.284 11.804 14.18a.35.35 0 0 1 .169.016c.09.026.169.063.259.089a.421.421 0 0 1 .169-.037 5.76 5.76 0 0 1 4.31 2.013 5.733 5.733 0 0 1 4.303-2.013c.069 0 .122.016.17.037.084-.026.174-.063.253-.089a.387.387 0 0 1 .18-.016c3.723-4.896 8.059-9.29 11.792-14.18Zm44.923-13.383c-.819-6.095-.872-12.268-1.68-18.363a71.177 71.177 0 0 0-.929-5.297c-.502-2.419-1.595-4.494-3.174-6.38-.407-.48-.835-.956-1.268-1.41-3.195.048-6.406-.359-9.575-.845 3.85 2.757 6.607 6.829 8.667 11.064 1.135 2.319 2.213 4.748 2.545 7.331.344 2.672-.522 5.233-.538 7.885-.016 2.978.95 5.862 2.271 8.497.317.201.259.586.037.798 0 0 0 .005-.006.01-.005 0-.01 0-.015.005-.206.222-.592.275-.793-.037-2.635-1.32-5.519-2.286-8.497-2.271-2.657.016-5.213.882-7.885.539-2.583-.333-5.012-1.415-7.33-2.545-4.231-2.065-8.313-4.817-11.065-8.667.481 3.164.893 6.38.845 9.575.455.433.925.856 1.41 1.262 1.886 1.579 3.967 2.678 6.38 3.179 1.748.37 3.528.692 5.297.93 6.095.808 12.274.856 18.368 1.679a.445.445 0 0 1 .133-.11c.079-.037.163-.08.242-.117.027-.047.053-.095.096-.142a5.77 5.77 0 0 1 4.467-1.627 5.768 5.768 0 0 1 1.627-4.468c.048-.047.095-.068.143-.095a4.89 4.89 0 0 0 .116-.243.465.465 0 0 1 .111-.137Zm7.71-9.739 7.627-12.585-1.421-.597-7.88 13.161c.56.027 1.115.037 1.674.021Zm22.858-6.754c.691 1.605.089 3.517-1.474 4.394a3.485 3.485 0 0 1-3.797-.259 3.474 3.474 0 0 1-2.155 3.248 3.436 3.436 0 0 1-1.31.264c-.459 0-.913-.095-1.352-.275a3.477 3.477 0 0 1-1.23-.898 3.473 3.473 0 0 1-3.454 3.164 3.484 3.484 0 0 1-2.752-1.363 3.451 3.451 0 0 1-.596 1.093 3.456 3.456 0 0 1-2.345 1.252c-.122.016-.233.016-.349.016a3.459 3.459 0 0 1-2.197-.787 3.39 3.39 0 0 1-.95-1.257 3.475 3.475 0 0 1-3.544 2.007c-1.31-.148-2.356-1.025-2.815-2.171.259 3.481.549 6.972 1.167 10.415.481 2.672 1.109 5.529 2.609 7.848.037.026.079.047.116.079.248.169.27.449.18.671a1.241 1.241 0 0 1-.069.121c-.016.021-.032.048-.053.064l-.074.058a.695.695 0 0 1-.121.068.532.532 0 0 1-.671-.179c-.026-.037-.042-.079-.074-.116-2.318-1.5-5.175-2.129-7.853-2.604-3.433-.618-6.918-.908-10.399-1.172a3.463 3.463 0 0 1 2.16 2.82c.175 1.526-.686 2.926-2.017 3.538.486.212.924.528 1.267.951.592.713.867 1.616.777 2.545a3.489 3.489 0 0 1-2.356 2.942c.37.28.687.634.925 1.056.448.808.559 1.748.311 2.641a3.478 3.478 0 0 1-3.031 2.509c.38.332.692.75.897 1.235a3.43 3.43 0 0 1 .011 2.657 3.478 3.478 0 0 1-3.222 2.165l-.026-.005a3.476 3.476 0 0 1 .259 3.792 3.477 3.477 0 0 1-3.037 1.774c-.454 0-.914-.121-1.352-.311a3.48 3.48 0 0 1-3.227 2.207c-.306 0-.623-.037-.934-.132a3.463 3.463 0 0 1-2.092-1.642 3.573 3.573 0 0 1-.407-1.22 3.42 3.42 0 0 1-1.161.787 3.488 3.488 0 0 1-1.321.259c-.454 0-.908-.09-1.341-.275a3.445 3.445 0 0 1-1.87-1.886 3.46 3.46 0 0 1-.243-1.505 3.378 3.378 0 0 1-1.278.676 3.465 3.465 0 0 1-4.378-3.797 3.5 3.5 0 0 1-1.542.37 3.443 3.443 0 0 1-2.202-.792 3.435 3.435 0 0 1-1.252-2.345 3.406 3.406 0 0 1 .217-1.548 3.55 3.55 0 0 1-1.199.217c-.132 0-.264-.011-.396-.021a3.437 3.437 0 0 1-2.324-1.294c-.824-1.03-.945-2.387-.46-3.528-2.276 2.651-4.541 5.323-6.538 8.196-1.552 2.229-3.126 4.69-3.707 7.389.005.047.02.09.032.137.063.359-.212.597-.486.639a.408.408 0 0 1-.085.011c-.037 0-.058-.005-.09-.011-.28-.042-.549-.28-.486-.639l.032-.137c-.58-2.699-2.155-5.16-3.707-7.389-1.997-2.873-4.257-5.55-6.538-8.196.485 1.141.364 2.498-.455 3.528a3.476 3.476 0 0 1-3.924 1.093 3.432 3.432 0 0 1-1.035 3.898 3.444 3.444 0 0 1-2.202.792 3.485 3.485 0 0 1-1.542-.37 3.484 3.484 0 0 1-1.743 3.486 3.461 3.461 0 0 1-3.913-.365 3.37 3.37 0 0 1-.243 1.505 3.444 3.444 0 0 1-1.87 1.886 3.41 3.41 0 0 1-1.347.275 3.48 3.48 0 0 1-1.315-.259 3.532 3.532 0 0 1-1.161-.787c-.059.422-.19.834-.412 1.22a3.422 3.422 0 0 1-2.087 1.642 3.186 3.186 0 0 1-.94.132 3.48 3.48 0 0 1-3.221-2.207c-.444.19-.898.311-1.352.311a3.477 3.477 0 0 1-3.037-1.774 3.476 3.476 0 0 1 .259-3.792c-.01 0-.016.005-.032.005a3.472 3.472 0 0 1-3.216-2.165 3.412 3.412 0 0 1 .908-3.892c-1.389-.132-2.635-1.088-3.031-2.509a3.42 3.42 0 0 1 .317-2.641 3.29 3.29 0 0 1 .919-1.056 3.474 3.474 0 0 1-2.35-2.942c-.09-.929.18-1.832.77-2.545a3.458 3.458 0 0 1 1.263-.951c-1.326-.607-2.187-2.012-2.007-3.538.1-.919.555-1.754 1.283-2.329.27-.211.565-.365.872-.491-3.475.264-6.966.554-10.404 1.172-2.673.475-5.53 1.104-7.848 2.604-.027.037-.048.079-.074.116a.531.531 0 0 1-.671.179.736.736 0 0 1-.127-.068c-.02-.021-.042-.037-.063-.058a.347.347 0 0 1-.058-.064 1.4 1.4 0 0 1-.069-.121c-.09-.222-.069-.502.18-.671.037-.032.079-.053.116-.079 1.495-2.319 2.123-5.176 2.604-7.848.617-3.443.913-6.934 1.172-10.415-.46 1.146-1.505 2.023-2.82 2.171a3.477 3.477 0 0 1-3.538-2.007 3.476 3.476 0 0 1-3.154 2.044c-.11 0-.227 0-.337-.016a3.421 3.421 0 0 1-2.345-1.252 3.363 3.363 0 0 1-.602-1.093 3.482 3.482 0 0 1-2.752 1.363c-.312 0-.628-.042-.94-.132-1.426-.396-2.382-1.637-2.514-3.026a3.478 3.478 0 0 1-2.588 1.161 3.47 3.47 0 0 1-1.31-.258 3.49 3.49 0 0 1-2.154-3.248 3.459 3.459 0 0 1-2.097.702 3.46 3.46 0 0 1-1.695-.443c-1.563-.877-2.165-2.789-1.468-4.4a3.464 3.464 0 0 1-2.076-4.151 3.484 3.484 0 0 1 2.868-2.498 3.42 3.42 0 0 1-.787-1.167 3.48 3.48 0 0 1 .01-2.656 3.49 3.49 0 0 1 1.896-1.875c.481-.19.988-.264 1.5-.238a3.479 3.479 0 0 1-.681-1.278 3.466 3.466 0 0 1 .317-2.641 3.465 3.465 0 0 1 3.48-1.737 3.485 3.485 0 0 1 .423-3.745 3.458 3.458 0 0 1 2.35-1.251 3.472 3.472 0 0 1 1.563.216 3.455 3.455 0 0 1-.211-1.595 3.434 3.434 0 0 1 1.294-2.323c1.03-.824 2.387-.946 3.528-.46-2.651-2.276-5.33-4.542-8.191-6.538-2.234-1.553-4.7-3.127-7.4-3.708-.042.006-.09.022-.132.032-.359.058-.596-.206-.639-.486-.005-.031-.005-.058-.005-.084 0-.032 0-.058.005-.09a.764.764 0 0 1 .037-.137c.09-.222.307-.402.602-.349.043.01.09.026.132.032 2.7-.581 5.165-2.155 7.4-3.708 2.862-1.996 5.534-4.256 8.18-6.532-.433.184-.892.29-1.357.29a3.45 3.45 0 0 1-2.16-.755 3.436 3.436 0 0 1-1.294-2.324 3.49 3.49 0 0 1 .206-1.584 3.514 3.514 0 0 1-1.215.227c-.11 0-.227-.01-.343-.021a3.457 3.457 0 0 1-2.35-1.252 3.498 3.498 0 0 1-.412-3.766c-.148.016-.301.058-.454.058a3.487 3.487 0 0 1-3.037-1.774 3.44 3.44 0 0 1 .364-3.919c-.063.006-.121.016-.19.016-.443 0-.887-.084-1.31-.259a3.464 3.464 0 0 1-1.896-1.87c-.57-1.356-.2-2.872.803-3.844-.433-.058-.855-.169-1.246-.385a3.457 3.457 0 0 1-1.648-2.092 3.467 3.467 0 0 1 2.076-4.15c-.698-1.612-.095-3.523 1.468-4.4a3.475 3.475 0 0 1 3.797.264 3.47 3.47 0 0 1 4.811-3.243c.48.206.893.512 1.23.893a3.56 3.56 0 0 1 .429-1.384 3.434 3.434 0 0 1 2.09-1.642 3.421 3.421 0 0 1 2.642.316c.412.233.765.544 1.05.914a3.37 3.37 0 0 1 .603-1.093 3.423 3.423 0 0 1 2.345-1.252 3.46 3.46 0 0 1 2.545.771c.417.343.729.782.945 1.263a3.41 3.41 0 0 1 .983-1.279 3.414 3.414 0 0 1 2.556-.734c1.315.148 2.36 1.025 2.82 2.176-.259-3.485-.555-6.976-1.172-10.42-.481-2.672-1.11-5.53-2.604-7.848-.037-.026-.08-.047-.116-.079-.248-.169-.27-.449-.18-.67.021-.043.042-.08.069-.122a.333.333 0 0 1 .058-.063c.021-.022.042-.037.063-.058.227-.164.586-.185.798.11.026.037.047.08.074.117 2.318 1.5 5.175 2.128 7.848 2.603 3.432.618 6.907.909 10.383 1.167a3.465 3.465 0 0 1-2.134-2.814 3.41 3.41 0 0 1 2.007-3.539 3.414 3.414 0 0 1-1.262-.95 3.44 3.44 0 0 1-.772-2.546 3.445 3.445 0 0 1 1.252-2.345c.333-.27.703-.465 1.099-.597a3.34 3.34 0 0 1-.92-1.056 3.418 3.418 0 0 1-.316-2.64 3.424 3.424 0 0 1 1.642-2.087 3.372 3.372 0 0 1 1.39-.422c-1.062-.956-1.48-2.504-.91-3.898a3.412 3.412 0 0 1 1.87-1.885 3.484 3.484 0 0 1 1.379-.27 3.475 3.475 0 0 1-.259-3.792c.877-1.563 2.789-2.165 4.4-1.473A3.461 3.461 0 0 1 60.96.903a3.41 3.41 0 0 1 2.087 1.643c.221.385.353.792.411 1.22a3.534 3.534 0 0 1 1.162-.787 3.47 3.47 0 0 1 4.532 1.9c.2.487.274.999.243 1.506.37-.312.797-.544 1.272-.681a3.462 3.462 0 0 1 2.641.317 3.472 3.472 0 0 1 1.748 3.485 3.475 3.475 0 0 1 3.74.417 3.457 3.457 0 0 1 1.25 2.35 3.43 3.43 0 0 1-.22 1.57c1.367-.508 2.967-.133 3.928 1.076.819 1.03.94 2.388.455 3.528 2.281-2.65 4.541-5.328 6.538-8.196 1.552-2.229 3.126-4.695 3.707-7.389l-.031-.137c-.064-.359.205-.597.485-.639.032-.005.053-.01.09-.01.026 0 .058.005.085.01.274.042.549.28.486.64-.011.047-.027.089-.032.136.58 2.694 2.155 5.16 3.707 7.389 1.997 2.868 4.257 5.545 6.538 8.191a3.368 3.368 0 0 1-.274-.972 3.422 3.422 0 0 1 .734-2.55c.956-1.21 2.551-1.585 3.924-1.078a3.497 3.497 0 0 1-.222-1.568 3.455 3.455 0 0 1 1.252-2.35 3.472 3.472 0 0 1 3.744-.418 3.47 3.47 0 0 1 .095-1.394 3.449 3.449 0 0 1 1.643-2.091 3.463 3.463 0 0 1 2.64-.317c.481.137.903.37 1.278.681a3.464 3.464 0 0 1 .243-1.505 3.472 3.472 0 0 1 4.532-1.901c.449.184.839.454 1.161.786.059-.427.196-.834.407-1.22a3.465 3.465 0 0 1 2.092-1.642c1.726-.491 3.501.433 4.151 2.065 1.61-.692 3.522-.09 4.399 1.473a3.475 3.475 0 0 1-.259 3.792 3.5 3.5 0 0 1 1.378.27 3.406 3.406 0 0 1 1.87 1.89c.57 1.39.158 2.937-.908 3.893.48.037.95.18 1.383.422a3.41 3.41 0 0 1 1.648 2.086 3.493 3.493 0 0 1-.311 2.64c-.238.418-.55.772-.919 1.057.39.132.765.328 1.093.597a3.473 3.473 0 0 1 1.257 2.345c.148 1.52-.724 2.9-2.044 3.496a3.462 3.462 0 0 1 2.017 3.539 3.47 3.47 0 0 1-2.139 2.814c3.47-.258 6.956-.549 10.378-1.167 2.678-.475 5.535-1.104 7.853-2.603.032-.037.048-.08.074-.117.211-.295.571-.274.792-.11.027.02.053.036.074.058.021.015.037.042.053.063.027.042.048.08.069.121.09.222.068.502-.18.671-.037.032-.079.053-.116.08-1.5 2.318-2.128 5.175-2.609 7.847-.618 3.438-.908 6.93-1.167 10.415a3.43 3.43 0 0 1 .491-.882 3.474 3.474 0 0 1 2.324-1.289c1.531-.174 2.931.687 3.544 2.013.211-.481.528-.92.95-1.263a3.441 3.441 0 0 1 2.546-.77 3.457 3.457 0 0 1 2.345 1.25c.269.328.464.703.596 1.094.28-.37.634-.681 1.051-.914a3.432 3.432 0 0 1 2.646-.317 3.42 3.42 0 0 1 2.086 1.643c.243.433.381.908.428 1.384.333-.38.745-.687 1.225-.893a3.447 3.447 0 0 1 2.662-.01 3.467 3.467 0 0 1 2.155 3.253 3.475 3.475 0 0 1 3.797-.264c1.563.877 2.165 2.788 1.474 4.4a3.45 3.45 0 0 1 1.753 1.51 3.467 3.467 0 0 1-1.331 4.732 3.469 3.469 0 0 1-1.241.385c.343.333.623.729.808 1.188a3.408 3.408 0 0 1-.016 2.657 3.427 3.427 0 0 1-1.885 1.87 3.477 3.477 0 0 1-1.315.258c-.069 0-.132-.016-.196-.016a3.472 3.472 0 0 1 .37 3.919 3.493 3.493 0 0 1-3.037 1.775c-.153 0-.306-.043-.459-.059.195.375.322.787.364 1.22a3.451 3.451 0 0 1-.776 2.546 3.422 3.422 0 0 1-2.345 1.252 3.65 3.65 0 0 1-.343.02c-.417 0-.829-.084-1.215-.226a3.42 3.42 0 0 1 .201 1.584 3.425 3.425 0 0 1-1.284 2.324 3.47 3.47 0 0 1-2.16.755 3.48 3.48 0 0 1-1.362-.29c2.646 2.276 5.318 4.536 8.186 6.532 2.228 1.553 4.69 3.127 7.388 3.708.048-.005.09-.021.138-.032.301-.053.507.127.602.349.015.047.031.095.037.137.005.032.01.058.01.09 0 .026-.005.053-.01.084-.043.28-.28.544-.639.486-.048-.01-.09-.026-.138-.032-2.698.581-5.16 2.155-7.388 3.708-2.873 1.996-5.551 4.262-8.191 6.538a3.451 3.451 0 0 1 4.811 2.783 3.392 3.392 0 0 1-.206 1.595 3.47 3.47 0 0 1 1.563-.216c.93.09 1.759.533 2.345 1.251a3.474 3.474 0 0 1 .422 3.745 3.465 3.465 0 0 1 3.798 4.378c-.132.475-.37.908-.671 1.278a3.602 3.602 0 0 1 1.5.238 3.452 3.452 0 0 1 1.885 1.875c.365.855.37 1.8.016 2.656-.185.449-.454.84-.787 1.167a3.484 3.484 0 0 1 2.868 2.498 3.468 3.468 0 0 1-.317 2.641 3.489 3.489 0 0 1-1.753 1.516Zm-38.052-19.325c0 1.352 2.107 1.358 2.107 0 0-1.357-2.107-1.357-2.107 0Zm4.806-1.225c0 1.357 2.102 1.357 2.102 0s-2.102-1.357-2.102 0Zm4.188-1.394c0 1.352 2.107 1.357 2.107 0s-2.107-1.357-2.107 0Zm3.845-2.271c0 1.352 2.107 1.352 2.107 0 0-1.357-2.107-1.357-2.107 0Zm3.581-2.715c0 1.358 2.102 1.358 2.102 0 0-1.352-2.102-1.357-2.102 0Zm3.496-3.575c0 1.352 2.102 1.357 2.102 0s-2.102-1.357-2.102 0Zm4.019-3.412c0 1.358 2.102 1.358 2.102 0 0-1.352-2.102-1.357-2.102 0Zm-59.594.967c0 .676 1.056.676 1.056 0 0-.681-1.056-.681-1.056 0Zm5.239 1.975c0 .681 1.056.681 1.056 0 0-.676-1.056-.676-1.056 0Zm5.355 2.334c0 .671 1.057.676 1.057 0 0-.681-1.057-.681-1.057 0Zm4.426 1.975c0 .682 1.056.682 1.056 0 0-.676-1.056-.676-1.056 0Zm4.426 1.516c0 .676 1.056.676 1.056 0 0-.681-1.056-.681-1.056 0Zm3.845 1.511c0 .681 1.051.681 1.051 0 0-.676-1.051-.676-1.051 0Zm5.355 4.362-34.318-14.249a.526.526 0 0 0-.692.28c-.01.021-.005.048-.01.069-.016.021-.032.037-.037.058a.526.526 0 0 0 .285.686l34.344 14.186a.522.522 0 0 0 .687-.28c.005-.016.005-.027.01-.037.005-.011.011-.016.016-.021a.53.53 0 0 0-.285-.692Zm47.864-57.951c0-.111-.037-.2-.085-.275a.49.49 0 0 0-.132-.259c-.449-.449-1.119.175-.808.65.116.55 1.025.517 1.025-.116Zm-2.044 8.291c0 .682 1.056.682 1.056 0 0-.676-1.056-.67-1.056 0Zm-2.678 6.232c0 .681 1.057.681 1.057 0 0-.676-1.057-.676-1.057 0Zm-3.491 5.704c0 .681 1.051.681 1.051 0 0-.676-1.051-.67-1.051 0Zm-4.367 5.128c0 .676 1.051.676 1.051 0 0-.681-1.051-.676-1.051 0Zm-28.271-5.186c0 1.357 2.107 1.357 2.107 0s-2.107-1.352-2.107 0Zm4.806 1.225c0 1.357 2.102 1.357 2.102 0s-2.102-1.352-2.102 0Zm4.188 1.394c0 1.358 2.107 1.358 2.107 0 0-1.352-2.107-1.352-2.107 0Zm3.845 2.271c0 1.358 2.107 1.358 2.107 0 0-1.357-2.107-1.352-2.107 0Zm5.683 2.715c0-1.357-2.102-1.357-2.102 0s2.102 1.352 2.102 0Zm3.496 3.575c0-1.357-2.102-1.352-2.102 0 0 1.358 2.102 1.358 2.102 0Zm4.019 3.407c0-1.358-2.102-1.352-2.102 0 0 1.357 2.102 1.357 2.102 0Zm-60.64-.962c0-.675-1.056-.675-1.056 0 0 .682 1.056.682 1.056 0Zm5.239-1.975c0-.681-1.056-.681-1.056 0 0 .676 1.056.676 1.056 0Zm5.356-2.334c0-.676-1.057-.67-1.057 0 0 .681 1.057.681 1.057 0Zm4.425-1.975c0-.681-1.056-.681-1.056 0 0 .676 1.056.676 1.056 0Zm4.426-1.516c0-.676-1.056-.676-1.056 0 0 .681 1.056.681 1.056 0Zm3.84-1.51c0-.682-1.051-.682-1.051 0 0 .676 1.051.676 1.051 0Zm.359 7.525c-2.108-.39-4.215-1.014-6.375-.945-1.859.058-3.422.84-4.954 1.843-1.753 1.146-3.39 2.472-5.08 3.718-.893.66-1.806 1.315-2.768 1.886h10.552l-2.123-1.611a.514.514 0 0 1-.211-.423.524.524 0 0 1 .845-.417l3.237 2.45h6.734l-4.103-3.38a.52.52 0 0 1-.196-.406.532.532 0 0 1 .866-.407l5.091 4.194h5.482l-3.311-2.551a.528.528 0 1 1 .644-.835l4.394 3.386h5.583l-3.872-3.021a.52.52 0 0 1-.2-.412c0-.111.037-.227.111-.328a.527.527 0 0 1 .739-.09l4.917 3.835c.016 0 .026.01.042.016h5.688l-5.022-4.22a.514.514 0 0 1-.185-.401c0-.122.037-.243.121-.338a.518.518 0 0 1 .74-.07l5.978 5.023c.005 0 .01.006.016.006h4.473c-1.975-.925-3.792-2.324-5.228-3.713-2.921-2.825-6.1-6.591-10.653-5.276-2.001.576-3.765 1.77-5.751 2.408-2.039.65-4.151.47-6.221.08Zm27.853 7.553h-4.468c-.011 0-.016.005-.021.005l-5.978 5.022a.527.527 0 0 1-.676-.808l5.022-4.22h-5.688c-.016.006-.026.011-.042.016l-4.917 3.835a.53.53 0 0 1-.85-.417.52.52 0 0 1 .2-.412l3.872-3.021h-5.583l-4.394 3.385a.524.524 0 0 1-.739-.1.515.515 0 0 1 .095-.734l3.311-2.551h-5.482l-5.091 4.188a.531.531 0 0 1-.866-.407.51.51 0 0 1 .196-.401l4.103-3.38h-6.734l-3.237 2.45a.533.533 0 0 1-.739-.1.509.509 0 0 1-.106-.317c0-.158.069-.317.211-.423l2.123-1.61h-10.552c.962.57 1.875 1.225 2.768 1.885 1.69 1.246 3.327 2.567 5.08 3.718 1.532 1.003 3.095 1.785 4.954 1.843 2.16.069 4.267-.554 6.375-.945 2.07-.391 4.182-.571 6.221.079 1.986.634 3.75 1.833 5.751 2.414 4.553 1.309 7.732-2.456 10.653-5.282 1.436-1.394 3.253-2.788 5.228-3.712Zm-29.802-9.02c2.097.427 4.251.987 6.406.712 2.144-.274 4.014-1.494 5.978-2.302 1.907-.782 3.919-1.046 5.9-.344 1.938.687 3.575 2.023 5.043 3.438 1.674 1.606 3.19 3.254 5.181 4.495 1.547.966 3.327 1.795 5.17 1.954a8.542 8.542 0 0 1 1.273.016c.264-.027.417.116.475.306a.522.522 0 0 1 .053.222.518.518 0 0 1-.053.216c-.058.19-.216.333-.475.307-.428.042-.85.037-1.273.015-1.843.159-3.623.988-5.17 1.955-1.991 1.24-3.507 2.883-5.181 4.494-1.468 1.41-3.105 2.751-5.043 3.438-1.981.702-3.993.438-5.9-.343-1.964-.808-3.834-2.028-5.978-2.303-2.155-.275-4.309.285-6.406.713-2.028.417-4.141.782-6.195.306-1.632-.375-3.095-1.32-4.457-2.26-1.58-1.104-3.085-2.308-4.643-3.443-1.32-.962-2.698-1.98-4.24-2.556-.022 0-.037-.011-.053-.016h-6.412a.529.529 0 0 1-.528-.523.53.53 0 0 1 .528-.528h6.412c.016-.006.031-.016.053-.016 1.542-.576 2.92-1.595 4.24-2.556 1.558-1.141 3.063-2.345 4.643-3.444 1.362-.945 2.825-1.885 4.457-2.26 2.054-.475 4.167-.111 6.195.306Zm46.971-36.24c-.475-.476-1.225.269-.744.744.48.48 1.225-.264.744-.745Zm-6.3-2.51c-.476-.48-1.22.265-.745.745.481.476 1.225-.269.745-.744Zm-6.501-1.568c-.481-.475-1.226.27-.745.745.475.486 1.225-.259.745-.745Zm-6.713-.533c-.475-.475-1.22.264-.745.744.481.481 1.226-.264.745-.744Zm-17.069 24.4c.961.955 2.451-.529 1.489-1.49-.956-.956-2.45.528-1.489 1.49Zm2.53-4.263c.961.956 2.45-.528 1.489-1.49-.951-.955-2.445.529-1.489 1.49Zm1.98-3.95c.956.956 2.445-.528 1.49-1.49-.962-.96-2.451.529-1.49 1.49Zm1.109-4.32c.962.956 2.451-.534 1.49-1.49-.956-.96-2.446.529-1.49 1.49Zm.618-4.452c.956.96 2.451-.523 1.49-1.49-.962-.956-2.446.534-1.49 1.49Zm1.426-6.491c-.95-.956-2.445.533-1.489 1.49.961.96 2.45-.529 1.489-1.49Zm-1.056-3.755c.961.956 2.45-.533 1.489-1.49-.956-.96-2.445.529-1.489 1.49Zm-40.713 42.065c-.476-.475-1.22.264-.745.745.486.48 1.225-.264.745-.745Zm5.112-2.308c-.486-.475-1.231.27-.745.745.476.486 1.226-.259.745-.745Zm5.429-2.133c-.475-.486-1.225.258-.745.744.481.476 1.226-.264.745-.744Zm4.531-1.733c-.48-.48-1.225.264-.744.745.48.48 1.225-.264.744-.745Zm4.199-2.06c-.481-.48-1.225.265-.745.745.481.481 1.226-.264.745-.744Zm3.787-1.647c-.476-.475-1.226.27-.745.745.481.48 1.225-.264.745-.745Zm-28.503 14.92c.005.015.021.026.037.042 0 .031 0 .058.01.084.085.2.286.322.491.322a.47.47 0 0 0 .201-.042l34.318-14.249a.532.532 0 0 0 .285-.692c-.005-.01-.011-.015-.021-.026-.005-.01 0-.021-.005-.032a.534.534 0 0 0-.687-.285L107.352 89.4a.526.526 0 0 0-.285.688Zm-9.538 13.963a4.586 4.586 0 0 1-2.53-2.218 4.609 4.609 0 0 1-2.044 2.007 3.526 3.526 0 0 0 4.574.211Zm7.082-8.888a3.548 3.548 0 0 0-.929-2.05 4.606 4.606 0 0 1-2.013 2.05 4.568 4.568 0 0 1 2.013 2.044c.543-.587.85-1.305.929-2.044Zm-2.82 6.791c.47-.58.76-1.299.792-2.096a4.657 4.657 0 0 1-1.473.259c-.481 0-.946-.095-1.39-.233a4.7 4.7 0 0 1 .233 1.389c0 .507-.1 1.004-.259 1.474a3.51 3.51 0 0 0 2.097-.793Zm-13.594 0c.612.492 1.373.803 2.213.803.211 0 .412-.031.612-.063a4.585 4.585 0 0 1-.243-1.421c0-.618.122-1.214.354-1.769a4.558 4.558 0 0 1-2.25.613c-.496 0-.992-.101-1.468-.26.021.798.317 1.517.782 2.097Zm-2.81-6.796c.08.744.38 1.462.924 2.049a4.566 4.566 0 0 1 2.013-2.044 4.604 4.604 0 0 1-2.013-2.05 3.537 3.537 0 0 0-.924 2.044Zm2.81-6.797a3.503 3.503 0 0 0-.782 2.102 4.572 4.572 0 0 1 2.863-.022 4.441 4.441 0 0 1-.238-1.394c0-.512.1-1.003.259-1.468a3.47 3.47 0 0 0-2.102.782Zm6.802-2.81a3.401 3.401 0 0 0-2.044.93A4.58 4.58 0 0 1 95 88.486a4.554 4.554 0 0 1 2.039-2.012A3.425 3.425 0 0 0 95 85.55Zm6.792 2.81a3.47 3.47 0 0 0-2.097-.782c.159.465.259.956.259 1.468 0 .48-.095.945-.232 1.394a4.386 4.386 0 0 1 1.389-.243c.507 0 .998.106 1.473.265a3.55 3.55 0 0 0-.792-2.102Zm.396 9.775c-.586-1.135-1.759-1.927-3.132-1.927-.375 0-.734.079-1.077.184.163.323.364.629.628.898.967.967 2.361 1.236 3.581.845Zm-14.38 0c1.219.39 2.608.122 3.575-.845a3.46 3.46 0 0 0 .628-.898 3.6 3.6 0 0 0-1.077-.184c-1.363 0-2.54.792-3.127 1.927Zm0-5.952c.585 1.136 1.763 1.928 3.126 1.928.38 0 .739-.08 1.077-.19a3.512 3.512 0 0 0-.629-.893c-.966-.966-2.355-1.236-3.575-.845Zm4.208-4.22c-.11.349-.185.708-.185 1.083 0 .945.37 1.833 1.035 2.498.265.264.576.46.898.623a3.6 3.6 0 0 0 .18-1.067c0-1.367-.787-2.545-1.928-3.137Zm5.963 0c-1.141.592-1.933 1.77-1.933 3.138 0 .37.074.723.185 1.066a3.44 3.44 0 0 0 .892-.623c.967-.966 1.241-2.355.856-3.58Zm1.077 6.148c1.373 0 2.546-.792 3.132-1.933a3.487 3.487 0 0 0-1.077-.18 3.54 3.54 0 0 0-2.504 1.03 3.65 3.65 0 0 0-.628.893c.343.11.702.19 1.077.19Zm-7.04 8.244c1.141-.592 1.928-1.769 1.928-3.137 0-.38-.074-.729-.185-1.072a3.372 3.372 0 0 0-.892.628 3.512 3.512 0 0 0-1.036 2.498c0 .375.074.734.185 1.083Zm5.847-3.58a3.405 3.405 0 0 0-1.548-.888c-.169.412-.27.86-.27 1.33 0 1.622 1.105 2.979 2.594 3.397a3.52 3.52 0 0 0 .264-1.342c0-.945-.37-1.832-1.04-2.498Zm7.795-3.613a4.562 4.562 0 0 1-1.305 3.612c-.063.063-.142.111-.211.174.005.096.026.18.026.27 0 1.399-.639 2.64-1.632 3.48-.845.993-2.08 1.632-3.48 1.632-.095 0-.18-.021-.27-.026-.063.068-.11.148-.179.211a4.543 4.543 0 0 1-3.237 1.341 4.567 4.567 0 0 1-3.248-1.341c-.09-.085-.153-.19-.233-.285a4.542 4.542 0 0 1-4.431-1.532c-.987-.84-1.637-2.081-1.637-3.48 0-.09.027-.18.032-.27-.069-.063-.148-.11-.217-.174a4.56 4.56 0 0 1-1.304-3.612c-.1-1.3.317-2.63 1.304-3.618.07-.063.148-.11.217-.174-.005-.09-.032-.18-.032-.27 0-1.399.65-2.64 1.638-3.48a4.543 4.543 0 0 1 3.475-1.632c.095 0 .184.021.274.027.058-.069.111-.148.175-.212a4.57 4.57 0 0 1 3.247-1.346c.122 0 .243.026.37.037.122-.01.243-.037.37-.037 1.225 0 2.376.48 3.237 1.346.069.064.116.143.18.212.09-.006.174-.027.27-.027 1.399 0 2.634.64 3.479 1.632a4.545 4.545 0 0 1 1.632 3.48c0 .09-.021.175-.026.27.069.063.148.11.211.174.988.993 1.41 2.319 1.305 3.618Zm34.07-88.213c-.475-.475-1.22.27-.745.745.481.48 1.226-.264.745-.745Zm2.514 6.3c-.481-.48-1.225.27-.745.745.481.48 1.22-.264.745-.744Zm1.563 6.507c-.475-.48-1.22.264-.744.745.48.475 1.225-.27.744-.745Zm-.211 7.452c.481.48 1.225-.264.745-.745-.476-.475-1.22.27-.745.745Zm-23.65 16.33c.962.956 2.446-.534 1.49-1.49-.961-.96-2.451.528-1.49 1.49Zm4.262-2.535c.962.96 2.446-.529 1.484-1.49-.955-.956-2.445.534-1.484 1.49Zm3.951-1.976c.956.962 2.445-.528 1.489-1.489-.961-.956-2.45.533-1.489 1.49Zm5.809-2.603c-.956-.956-2.445.533-1.489 1.494.966.956 2.45-.533 1.489-1.494Zm4.447-.613c-.956-.961-2.445.528-1.489 1.484.961.967 2.45-.528 1.489-1.484Zm5.007.058c-.962-.956-2.451.534-1.49 1.495.956.956 2.446-.534 1.49-1.495Zm5.244-.433c-.956-.956-2.445.534-1.484 1.49.956.966 2.445-.529 1.484-1.49ZM105.107 77.64c-.48-.476-1.225.269-.744.744.475.48 1.22-.264.744-.744Zm2.303-5.102c-.475-.48-1.22.264-.745.745.481.48 1.226-.27.745-.745Zm2.144-5.44c-.48-.475-1.225.27-.744.745.475.48 1.22-.264.744-.745Zm1.727-4.526c-.48-.48-1.225.264-.744.745.48.48 1.225-.264.744-.745Zm2.06-4.198c-.481-.481-1.225.264-.745.744.476.48 1.22-.264.745-.744Zm1.642-3.792c.481.486-.258 1.23-.744.744-.476-.475.264-1.22.744-.744Z"/></g></svg>